{
.appVersion = "1342";
copyright = "Copyright 2012 Google Inc. All Rights Reserved.";
customParameters = (
{
name = vendorID;
value = MONO;
},
{
name = panose;
value = (
2,
2,
6,
0,
6,
5,
0,
2,
2,
0
);
},
{
name = unicodeRanges;
value = (
0,
1,
2,
3,
4,
5,
6,
7,
9,
29,
30,
31,
32,
33,
34,
35,
36,
37,
38,
39,
43,
44,
45,
46,
60,
62,
64,
67,
69
);
},
{
name = glyphOrder;
value = (
.notdef,
CR,
space,
uni0000,
exclam,
quotedbl,
numbersign,
dollar,
percent,
ampersand,
quotesingle,
parenleft,
parenright,
asterisk,
plus,
comma,
hyphen,
period,
slash,
zero,
one,
two,
three,
four,
five,
six,
seven,
eight,
nine,
colon,
semicolon,
less,
equal,
greater,
question,
at,
A,
B,
C,
D,
E,
F,
G,
H,
I,
J,
K,
L,
M,
N,
O,
P,
Q,
R,
S,
T,
U,
V,
W,
X,
Y,
Z,
bracketleft,
backslash,
bracketright,
asciicircum,
underscore,
grave,
a,
b,
c,
d,
e,
f,
g,
h,
i,
j,
k,
l,
m,
n,
o,
p,
q,
r,
s,
t,
u,
v,
w,
x,
y,
z,
braceleft,
bar,
braceright,
asciitilde,
guillemotleft,
guillemotright,
uni1780,
uni1781,
uni1782,
uni1783,
uni1784,
uni1785,
uni1786,
uni1787,
uni1788,
uni1789,
uni178A,
uni178B,
uni178C,
uni178D,
uni178E,
uni178F,
uni1790,
uni1791,
uni1792,
uni1793,
uni1794,
uni1795,
uni1796,
uni1797,
uni1798,
uni1799,
uni179A,
uni179B,
uni179C,
uni179D,
uni179E,
uni179F,
uni17A0,
uni17A1,
uni17A2,
uni17A3,
uni17A4,
uni17A5,
uni17A6,
uni17A7,
uni17A8,
uni17A9,
uni17AA,
uni17AB,
uni17AC,
uni17AD,
uni17AE,
uni17AF,
uni17B0,
uni17B1,
uni17B2,
uni17B3,
uni17B4,
uni17B5,
uni17B6,
uni17B7,
uni17B8,
uni17B9,
uni17BA,
uni17BB,
uni17BC,
uni17BD,
uni17BE,
uni17BF,
uni17C0,
uni17C1,
uni17C2,
uni17C3,
uni17C4,
uni17C5,
uni17C6,
uni17C7,
uni17C8,
uni17C9,
uni17CA,
uni17CB,
uni17CC,
uni17CD,
uni17CE,
uni17CF,
uni17D0,
uni17D1,
uni17D2,
uni17D3,
uni17D4,
uni17D5,
uni17D6,
uni17D7,
uni17D8,
uni17D9,
uni17DA,
uni17DB,
uni17DC,
uni17DD,
uni17E0,
uni17E1,
uni17E2,
uni17E3,
uni17E4,
uni17E5,
uni17E6,
uni17E7,
uni17E8,
uni17E9,
uni17D2_1780,
uni17D2_1781,
uni17D2_1782,
uni17D21783,
uni17D2_1784,
uni17D2_1785,
uni17D2_1786,

glyphs = (
{
glyphname = .notdef;
layers = (
{
layerId = "D08966C8-96EF-481A-BF9E-1465DF9248E1";
paths = (
{
closed = 1;
nodes = (
"1066 1315 OFFCURVE",
"1048 1366 OFFCURVE",
"1006 1393 OFFCURVE",
"936 1400 OFFCURVE",
"884 1400 QCURVE SMOOTH",
"420 1400 LINE SMOOTH",
"367 1400 OFFCURVE",
"297 1393 OFFCURVE",
"255 1366 OFFCURVE",
"238 1315 OFFCURVE",
"238 1272 QCURVE SMOOTH",
"238 128 LINE SMOOTH",
"238 84 OFFCURVE",
"255 34 OFFCURVE",
"297 7 OFFCURVE",
"367 0 OFFCURVE",
"420 0 QCURVE SMOOTH",
"884 0 LINE SMOOTH",
"936 0 OFFCURVE",
"1006 7 OFFCURVE",
"1048 34 OFFCURVE",
"1066 84 OFFCURVE",
"1066 128 QCURVE SMOOTH",
"1066 1272 LINE SMOOTH"
);
},
{
closed = 1;
nodes = (
"816 214 LINE",
"488 214 LINE",
"488 1186 LINE",
"816 1186 LINE"
);
}
);
width = 1304;
}
);
note = .notdef;
},
{
glyphname = exclam;
layers = (
{
layerId = "D08966C8-96EF-481A-BF9E-1465DF9248E1";
paths = (
{
closed = 1;
nodes = (
"556 1174 LINE SMOOTH",
"556 1216 OFFCURVE",
"543 1296 OFFCURVE",
"507 1359 OFFCURVE",
"443 1398 OFFCURVE",
"392 1398 QCURVE SMOOTH",
"341 1398 OFFCURVE",
"276 1360 OFFCURVE",
"240 1298 OFFCURVE",
"226 1218 OFFCURVE",
"226 1176 QCURVE SMOOTH",
"226 932 LINE",
"278 608 LINE",
"278 576 OFFCURVE",
"285 516 OFFCURVE",
"309 469 OFFCURVE",
"354 440 OFFCURVE",
"392 440 QCURVE SMOOTH",
"430 440 OFFCURVE",
"475 469 OFFCURVE",
"499 516 OFFCURVE",
"506 576 OFFCURVE",
"506 608 QCURVE",
"556 928 LINE"
);
},
{
closed = 1;
nodes = (
"475 328 OFFCURVE",
"392 328 QCURVE SMOOTH",
"312 328 OFFCURVE",
"226 250 OFFCURVE",
"226 164 QCURVE SMOOTH",
"226 79 OFFCURVE",
"312 -2 OFFCURVE",
"392 -2 QCURVE SMOOTH",
"470 -2 OFFCURVE",
"556 79 OFFCURVE",
"556 164 QCURVE SMOOTH",
"556 250 OFFCURVE"
);
}
);
width = 808;
}
);
note = exclam;
unicode = 0021;
},
{
glyphname = quotedbl;
layers = (
{
layerId = "D08966C8-96EF-481A-BF9E-1465DF9248E1";
paths = (
{
closed = 1;
nodes = (
"354 1260 LINE SMOOTH",
"354 1285 OFFCURVE",
"347 1337 OFFCURVE",
"322 1378 OFFCURVE",
"274 1404 OFFCURVE",
"234 1404 QCURVE SMOOTH",
"190 1404 OFFCURVE",
"140 1378 OFFCURVE",
"116 1337 OFFCURVE",
"110 1285 OFFCURVE",
"110 1260 QCURVE SMOOTH",
"110 1048 LINE SMOOTH",
"110 1020 OFFCURVE",
"116 968 OFFCURVE",
"140 928 OFFCURVE",
"190 904 OFFCURVE",
"234 904 QCURVE SMOOTH",
"274 904 OFFCURVE",
"322 928 OFFCURVE",
"347 968 OFFCURVE",
"354 1020 OFFCURVE",
"354 1048 QCURVE SMOOTH",
"354 1104 LINE"
);
},
{
closed = 1;
nodes = (
"766 1256 LINE SMOOTH",
"766 1281 OFFCURVE",
"759 1333 OFFCURVE",
"734 1374 OFFCURVE",
"686 1400 OFFCURVE",
"646 1400 QCURVE SMOOTH",
"602 1400 OFFCURVE",
"552 1374 OFFCURVE",
"528 1333 OFFCURVE",
"522 1281 OFFCURVE",
"522 1256 QCURVE SMOOTH",
"522 1052 LINE SMOOTH",
"522 1024 OFFCURVE",
"528 972 OFFCURVE",
"552 932 OFFCURVE",
"602 908 OFFCURVE",
"646 908 QCURVE SMOOTH",
"686 908 OFFCURVE",
"734 932 OFFCURVE",
"759 972 OFFCURVE",
"766 1024 OFFCURVE",
"766 1052 QCURVE SMOOTH",
"766 1108 LINE"
);
}
);
width = 898;
}
);
note = quotedbl;
unicode = 0022;
},
{
glyphname = numbersign;
layers = (
{
layerId = "D08966C8-96EF-481A-BF9E-1465DF9248E1";
paths = (
{
closed = 1;
nodes = (
"356 588 LINE",
"228 588 LINE SMOOTH",
"207 588 OFFCURVE",
"167 584 OFFCURVE",
"137 566 OFFCURVE",
"118 528 OFFCURVE",
"118 494 QCURVE SMOOTH",
"118 462 OFFCURVE",
"137 426 OFFCURVE",
"167 407 OFFCURVE",
"207 402 OFFCURVE",
"228 402 QCURVE SMOOTH",
"326 402 LINE",
"317 349 OFFCURVE",
"307 288 OFFCURVE",
"303 256 OFFCURVE",
"302 245 OFFCURVE",
"302 242 QCURVE SMOOTH",
"302 213 OFFCURVE",
"320 181 OFFCURVE",
"350 164 OFFCURVE",
"387 160 OFFCURVE",
"406 160 QCURVE SMOOTH",
"428 160 OFFCURVE",
"459 182 OFFCURVE",
"480 219 OFFCURVE",
"493 269 OFFCURVE",
"498 298 QCURVE SMOOTH",
"514 402 LINE",
"684 402 LINE",
"675 349 OFFCURVE",
"665 288 OFFCURVE",
"661 256 OFFCURVE",
"660 245 OFFCURVE",
"660 242 QCURVE SMOOTH",
"660 213 OFFCURVE",
"678 181 OFFCURVE",
"708 164 OFFCURVE",
"745 160 OFFCURVE",
"764 160 QCURVE SMOOTH",
"786 160 OFFCURVE",
"817 182 OFFCURVE",
"838 219 OFFCURVE",
"851 269 OFFCURVE",
"856 298 QCURVE SMOOTH",
"872 402 LINE",
"988 402 LINE SMOOTH",
"1007 402 OFFCURVE",
"1047 407 OFFCURVE",
"1078 426 OFFCURVE",
"1098 462 OFFCURVE",
"1098 494 QCURVE SMOOTH",
"1098 528 OFFCURVE",
"1078 566 OFFCURVE",
"1047 584 OFFCURVE",
"1007 588 OFFCURVE",
"988 588 QCURVE SMOOTH",
"904 588 LINE",
"944 812 LINE",
"1060 812 LINE SMOOTH",
"1079 812 OFFCURVE",
"1119 818 OFFCURVE",
"1150 837 OFFCURVE",
"1170 873 OFFCURVE",
"1170 904 QCURVE SMOOTH",
"1170 938 OFFCURVE",
"1150 976 OFFCURVE",
"1119 994 OFFCURVE",
"1079 998 OFFCURVE",
"1060 998 QCURVE SMOOTH",
"974 998 LINE",
"982 1044 OFFCURVE",
"991 1097 OFFCURVE",
"995 1124 OFFCURVE",
"996 1133 OFFCURVE",
"996 1136 QCURVE SMOOTH",
"996 1164 OFFCURVE",
"978 1198 OFFCURVE",
"949 1216 OFFCURVE",
"911 1222 OFFCURVE",
"892 1222 QCURVE SMOOTH",
"868 1222 OFFCURVE",
"837 1200 OFFCURVE",
"818 1170 OFFCURVE",
"809 1138 OFFCURVE",
"808 1128 QCURVE SMOOTH",
"786 998 LINE",
"616 998 LINE",
"624 1044 OFFCURVE",
"633 1097 OFFCURVE",
"637 1124 OFFCURVE",
"638 1133 OFFCURVE",
"638 1136 QCURVE SMOOTH",
"638 1164 OFFCURVE",
"620 1198 OFFCURVE",
"591 1216 OFFCURVE",
"553 1222 OFFCURVE",
"534 1222 QCURVE SMOOTH",
"510 1222 OFFCURVE",
"479 1200 OFFCURVE",
"460 1170 OFFCURVE",
"451 1138 OFFCURVE",
"450 1128 QCURVE SMOOTH",
"428 998 LINE",
"298 998 LINE SMOOTH",
"277 998 OFFCURVE",
"237 994 OFFCURVE",
"207 976 OFFCURVE",
"188 938 OFFCURVE",
"188 904 QCURVE SMOOTH",
"188 873 OFFCURVE",
"207 837 OFFCURVE",
"237 818 OFFCURVE",
"277 812 OFFCURVE",
"298 812 QCURVE SMOOTH",
"396 812 LINE"
);
},
{
closed = 1;
nodes = (
"754 812 LINE",
"714 588 LINE",
"546 588 LINE",
"586 812 LINE"
);
}
);
width = 1268;
}
);
note = numbersign;
unicode = 0023;
},
{
glyphname = dollar;
layers = (
{
layerId = "D08966C8-96EF-481A-BF9E-1465DF9248E1";
paths = (
{
closed = 1;
nodes = (
"577 787 OFFCURVE",
"493 825 OFFCURVE",
"432 874 OFFCURVE",
"432 906 QCURVE SMOOTH",
"432 931 OFFCURVE",
"444 958 OFFCURVE",
"465 971 OFFCURVE",
"493 974 OFFCURVE",
"508 974 QCURVE SMOOTH",
"535 974 OFFCURVE",
"568 962 OFFCURVE",
"586 940 OFFCURVE",
"592 909 OFFCURVE",
"592 890 QCURVE SMOOTH",
"592 863 OFFCURVE",
"621 829 OFFCURVE",
"663 811 OFFCURVE",
"707 804 OFFCURVE",
"722 804 QCURVE SMOOTH",
"750 804 OFFCURVE",
"808 810 OFFCURVE",
"853 834 OFFCURVE",
"882 879 OFFCURVE",
"882 918 QCURVE SMOOTH",
"882 953 OFFCURVE",
"859 1030 OFFCURVE",
"802 1099 OFFCURVE",
"704 1152 OFFCURVE",
"630 1164 QCURVE",
"630 1240 LINE SMOOTH",
"630 1265 OFFCURVE",
"623 1317 OFFCURVE",
"598 1358 OFFCURVE",
"550 1384 OFFCURVE",
"510 1384 QCURVE SMOOTH",
"466 1384 OFFCURVE",
"416 1358 OFFCURVE",
"392 1317 OFFCURVE",
"386 1265 OFFCURVE",
"386 1240 QCURVE SMOOTH",
"386 1164 LINE",
"332 1156 OFFCURVE",
"242 1121 OFFCURVE",
"178 1064 OFFCURVE",
"142 983 OFFCURVE",
"142 928 QCURVE SMOOTH",
"142 870 LINE SMOOTH",
"142 814 OFFCURVE",
"187 726 OFFCURVE",
"273 651 OFFCURVE",
"398 585 OFFCURVE",
"478 552 QCURVE SMOOTH",
"490 546 LINE SMOOTH",
"511 538 OFFCURVE",
"554 519 OFFCURVE",
"588 496 OFFCURVE",
"610 467 OFFCURVE",
"610 448 QCURVE SMOOTH",
"610 409 OFFCURVE",
"568 382 OFFCURVE",
"536 382 QCURVE SMOOTH",
"500 382 OFFCURVE",
"444 420 OFFCURVE",
"444 456 QCURVE SMOOTH",
"444 494 OFFCURVE",
"409 537 OFFCURVE",
"363 558 OFFCURVE",
"318 562 OFFCURVE",
"308 562 QCURVE SMOOTH",
"252 562 OFFCURVE",
"190 532 OFFCURVE",
"160 492 OFFCURVE",
"154 452 OFFCURVE",
"154 442 QCURVE SMOOTH",
"154 426 LINE SMOOTH",
"154 409 OFFCURVE",
"166 346 OFFCURVE",
"212 275 OFFCURVE",
"305 209 OFFCURVE",
"386 190 QCURVE",
"386 150 LINE SMOOTH",
"386 122 OFFCURVE",
"392 70 OFFCURVE",
"416 30 OFFCURVE",
"466 6 OFFCURVE",
"510 6 QCURVE SMOOTH",
"550 6 OFFCURVE",
"598 30 OFFCURVE",
"623 70 OFFCURVE",
"630 122 OFFCURVE",
"630 150 QCURVE SMOOTH",
"630 178 LINE",
"691 186 OFFCURVE",
"792 231 OFFCURVE",
"864 304 OFFCURVE",
"904 404 OFFCURVE",
"904 468 QCURVE SMOOTH",
"904 520 OFFCURVE",
"890 599 OFFCURVE",
"845 664 OFFCURVE",
"759 719 OFFCURVE",
"688 748 QCURVE SMOOTH",
"663 759 OFFCURVE"
);
}
);
width = 1052;
}
);
note = dollar;
unicode = 0024;
},
{
glyphname = percent;
layers = (
{
layerId = "D08966C8-96EF-481A-BF9E-1465DF9248E1";
paths = (
{
closed = 1;
nodes = (
"1143 1216 OFFCURVE",
"1162 1262 OFFCURVE",
"1162 1292 QCURVE SMOOTH",
"1162 1316 OFFCURVE",
"1130 1362 OFFCURVE",
"1092 1382 QCURVE SMOOTH",
"1074 1391 OFFCURVE",
"1039 1400 OFFCURVE",
"1018 1400 QCURVE SMOOTH",
"998 1400 OFFCURVE",
"968 1384 OFFCURVE",
"944 1358 OFFCURVE",
"924 1326 OFFCURVE",
"916 1310 QCURVE SMOOTH",
"340 204 LINE SMOOTH",
"328 183 OFFCURVE",
"312 140 OFFCURVE",
"310 110 QCURVE",
"312 86 OFFCURVE",
"345 39 OFFCURVE",
"384 18 QCURVE SMOOTH",
"399 10 OFFCURVE",
"426 0 OFFCURVE",
"438 0 QCURVE SMOOTH",
"463 0 OFFCURVE",
"500 17 OFFCURVE",
"529 44 OFFCURVE",
"551 77 OFFCURVE",
"560 92 QCURVE",
"1132 1198 LINE"
);
},
{
closed = 1;
nodes = (
"527 1400 OFFCURVE",
"384 1400 QCURVE SMOOTH",
"247 1400 OFFCURVE",
"98 1265 OFFCURVE",
"98 1120 QCURVE SMOOTH",
"98 974 OFFCURVE",
"247 836 OFFCURVE",
"384 836 QCURVE SMOOTH",
"518 836 OFFCURVE",
"664 974 OFFCURVE",
"664 1120 QCURVE SMOOTH",
"664 1266 OFFCURVE"
);
},
{
closed = 1;
nodes = (
"1247 558 OFFCURVE",
"1104 558 QCURVE SMOOTH",
"967 558 OFFCURVE",
"818 423 OFFCURVE",
"818 278 QCURVE SMOOTH",
"818 132 OFFCURVE",
"967 -6 OFFCURVE",
"1104 -6 QCURVE SMOOTH",
"1238 -6 OFFCURVE",
"1384 132 OFFCURVE",
"1384 278 QCURVE SMOOTH",
"1384 424 OFFCURVE"
);
},
{
closed = 1;
nodes = (
"384 1020 QCURVE SMOOTH",
"336 1020 OFFCURVE",
"284 1070 OFFCURVE",
"284 1120 QCURVE SMOOTH",
"284 1171 OFFCURVE",
"336 1220 OFFCURVE",
"384 1220 QCURVE SMOOTH",
"482 1220 OFFCURVE",
"482 1120 QCURVE SMOOTH",
"482 1020 OFFCURVE"
);
},
{
closed = 1;
nodes = (
"1104 178 QCURVE SMOOTH",
"1056 178 OFFCURVE",
"1004 228 OFFCURVE",
"1004 278 QCURVE SMOOTH",
"1004 329 OFFCURVE",
"1056 378 OFFCURVE",
"1104 378 QCURVE SMOOTH",
"1202 378 OFFCURVE",
"1202 278 QCURVE SMOOTH",
"1202 178 OFFCURVE"
);
}
);
width = 1484;
}
);
note = percent;
unicode = 0025;
},
{
glyphname = ampersand;
layers = (
{
layerId = "D08966C8-96EF-481A-BF9E-1465DF9248E1";
paths = (
{
closed = 1;
nodes = (
"246 943 OFFCURVE",
"284 876 OFFCURVE",
"332 814 OFFCURVE",
"356 778 QCURVE",
"306 751 OFFCURVE",
"214 671 OFFCURVE",
"145 573 OFFCURVE",
"104 463 OFFCURVE",
"104 406 QCURVE SMOOTH",
"104 322 OFFCURVE",
"162 174 OFFCURVE",
"271 64 OFFCURVE",
"429 0 OFFCURVE",
"530 0 QCURVE SMOOTH",
"588 0 OFFCURVE",
"687 24 OFFCURVE",
"769 65 OFFCURVE",
"832 119 OFFCURVE",
"854 148 QCURVE",
"915 70 OFFCURVE",
"997 -2 OFFCURVE",
"1036 -2 QCURVE SMOOTH",
"1056 -2 OFFCURVE",
"1098 15 OFFCURVE",
"1118 32 QCURVE SMOOTH",
"1142 52 OFFCURVE",
"1166 97 OFFCURVE",
"1166 118 QCURVE SMOOTH",
"1166 154 OFFCURVE",
"1122 228 OFFCURVE",
"1092 264 QCURVE SMOOTH",
"1022 346 LINE",
"1104 446 LINE SMOOTH",
"1134 482 OFFCURVE",
"1178 554 OFFCURVE",
"1178 592 QCURVE SMOOTH",
"1178 616 OFFCURVE",
"1155 662 OFFCURVE",
"1128 686 QCURVE SMOOTH",
"1085 720 OFFCURVE",
"1046 720 QCURVE SMOOTH",
"1004 720 OFFCURVE",
"931 661 OFFCURVE",
"898 620 QCURVE SMOOTH",
"846 558 LINE",
"712 714 LINE",
"827 793 OFFCURVE",
"926 969 OFFCURVE",
"926 1056 QCURVE SMOOTH",
"926 1137 OFFCURVE",
"869 1267 OFFCURVE",
"772 1359 OFFCURVE",
"641 1408 OFFCURVE",
"568 1408 QCURVE SMOOTH",
"481 1408 OFFCURVE",
"351 1359 OFFCURVE",
"265 1272 OFFCURVE",
"222 1149 OFFCURVE",
"222 1076 QCURVE SMOOTH",
"222 1023 OFFCURVE"
);
},
{
closed = 1;
nodes = (
"662 337 OFFCURVE",
"626 299 OFFCURVE",
"590 273 OFFCURVE",
"548 260 OFFCURVE",
"520 260 QCURVE SMOOTH",
"503 260 OFFCURVE",
"459 273 OFFCURVE",
"420 306 OFFCURVE",
"394 362 OFFCURVE",
"394 406 QCURVE SMOOTH",
"394 434 OFFCURVE",
"412 488 OFFCURVE",
"442 538 OFFCURVE",
"480 580 OFFCURVE",
"500 596 QCURVE",
"684 362 LINE"
);
},
{
closed = 1;
nodes = (
"643 1165 OFFCURVE",
"673 1132 OFFCURVE",
"688 1089 OFFCURVE",
"688 1064 QCURVE SMOOTH",
"688 1040 OFFCURVE",
"674 989 OFFCURVE",
"646 941 OFFCURVE",
"605 898 OFFCURVE",
"578 882 QCURVE",
"540 927 OFFCURVE",
"500 991 OFFCURVE",
"481 1035 OFFCURVE",
"478 1060 OFFCURVE",
"478 1066 QCURVE SMOOTH",
"478 1088 OFFCURVE",
"490 1130 OFFCURVE",
"513 1163 OFFCURVE",
"546 1184 OFFCURVE",
"568 1184 QCURVE SMOOTH",
"598 1184 OFFCURVE"
);
}
);
width = 1296;
}
);
note = ampersand;
unicode = 0026;
},
{
glyphname = quotesingle;
layers = (
{
layerId = "D08966C8-96EF-481A-BF9E-1465DF9248E1";
paths = (
{
closed = 1;
nodes = (
"374 1260 LINE SMOOTH",
"374 1285 OFFCURVE",
"367 1337 OFFCURVE",
"342 1378 OFFCURVE",
"294 1404 OFFCURVE",
"254 1404 QCURVE SMOOTH",
"210 1404 OFFCURVE",
"160 1378 OFFCURVE",
"136 1337 OFFCURVE",
"130 1285 OFFCURVE",
"130 1260 QCURVE SMOOTH",
"130 1048 LINE SMOOTH",
"130 1020 OFFCURVE",
"136 968 OFFCURVE",
"160 928 OFFCURVE",
"210 904 OFFCURVE",
"254 904 QCURVE SMOOTH",
"294 904 OFFCURVE",
"342 928 OFFCURVE",
"367 968 OFFCURVE",
"374 1020 OFFCURVE",
"374 1048 QCURVE SMOOTH",
"374 1104 LINE"
);
}
);
width = 522;
}
);
note = quotesingle;
unicode = 0027;
},
{
glyphname = parenleft;
layers = (
{
layerId = "D08966C8-96EF-481A-BF9E-1465DF9248E1";
paths = (
{
closed = 1;
nodes = (
"799 28 OFFCURVE",
"766 61 OFFCURVE",
"715 80 OFFCURVE",
"680 80 QCURVE SMOOTH",
"636 82 OFFCURVE",
"603 100 QCURVE SMOOTH",
"588 107 OFFCURVE",
"561 131 OFFCURVE",
"539 164 OFFCURVE",
"526 210 OFFCURVE",
"526 240 QCURVE SMOOTH",
"526 1150 LINE SMOOTH",
"526 1183 OFFCURVE",
"539 1234 OFFCURVE",
"561 1271 OFFCURVE",
"588 1296 OFFCURVE",
"603 1304 QCURVE SMOOTH",
"636 1322 OFFCURVE",
"680 1324 QCURVE SMOOTH",
"750 1324 OFFCURVE",
"814 1392 OFFCURVE",
"814 1442 QCURVE SMOOTH",
"814 1467 OFFCURVE",
"798 1510 OFFCURVE",
"764 1543 OFFCURVE",
"710 1562 OFFCURVE",
"672 1562 QCURVE SMOOTH",
"581 1562 OFFCURVE",
"424 1516 OFFCURVE",
"307 1425 OFFCURVE",
"240 1289 OFFCURVE",
"240 1198 QCURVE SMOOTH",
"240 258 LINE SMOOTH",
"240 180 OFFCURVE",
"273 61 OFFCURVE",
"328 -26 OFFCURVE",
"398 -87 OFFCURVE",
"435 -106 QCURVE SMOOTH",
"520 -152 OFFCURVE",
"630 -158 QCURVE",
"684 -158 OFFCURVE",
"755 -140 OFFCURVE",
"797 -108 OFFCURVE",
"814 -65 OFFCURVE",
"814 -40 QCURVE SMOOTH",
"814 -15 OFFCURVE"
);
}
);
width = 888;
}
);
note = parenleft;
unicode = 0028;
},
{
glyphname = parenright;
layers = (
{
layerId = "D08966C8-96EF-481A-BF9E-1465DF9248E1";
paths = (
{
closed = 1;
nodes = (
"91 -108 OFFCURVE",
"133 -140 OFFCURVE",
"204 -158 OFFCURVE",
"258 -158 QCURVE",
"367 -152 OFFCURVE",
"453 -106 QCURVE SMOOTH",
"489 -87 OFFCURVE",
"559 -26 OFFCURVE",
"614 61 OFFCURVE",
"648 180 OFFCURVE",
"648 258 QCURVE SMOOTH",
"648 1198 LINE SMOOTH",
"648 1289 OFFCURVE",
"581 1425 OFFCURVE",
"464 1516 OFFCURVE",
"307 1562 OFFCURVE",
"216 1562 QCURVE SMOOTH",
"178 1562 OFFCURVE",
"124 1543 OFFCURVE",
"90 1510 OFFCURVE",
"74 1467 OFFCURVE",
"74 1442 QCURVE SMOOTH",
"74 1417 OFFCURVE",
"89 1374 OFFCURVE",
"122 1342 OFFCURVE",
"173 1324 OFFCURVE",
"208 1324 QCURVE SMOOTH",
"251 1322 OFFCURVE",
"285 1304 QCURVE SMOOTH",
"299 1296 OFFCURVE",
"327 1271 OFFCURVE",
"349 1234 OFFCURVE",
"362 1183 OFFCURVE",
"362 1150 QCURVE SMOOTH",
"362 240 LINE SMOOTH",
"362 210 OFFCURVE",
"349 164 OFFCURVE",
"327 131 OFFCURVE",
"299 107 OFFCURVE",
"285 100 QCURVE SMOOTH",
"251 82 OFFCURVE",
"208 80 QCURVE SMOOTH",
"173 80 OFFCURVE",
"122 61 OFFCURVE",
"89 28 OFFCURVE",
"74 -15 OFFCURVE",
"74 -40 QCURVE SMOOTH",
"74 -65 OFFCURVE"
);
}
);
width = 888;
}
);
note = parenright;
unicode = 0029;
},
{
glyphname = asterisk;
layers = (
{
layerId = "D08966C8-96EF-481A-BF9E-1465DF9248E1";
paths = (
{
closed = 1;
nodes = (
"293 1061 OFFCURVE",
"245 1078 OFFCURVE",
"224 1078 QCURVE SMOOTH",
"203 1078 OFFCURVE",
"162 1052 OFFCURVE",
"130 1012 OFFCURVE",
"110 964 OFFCURVE",
"110 942 QCURVE SMOOTH",
"110 910 OFFCURVE",
"149 857 OFFCURVE",
"184 836 QCURVE SMOOTH",
"366 726 LINE",
"366 714 LINE",
"188 608 LINE SMOOTH",
"152 587 OFFCURVE",
"110 532 OFFCURVE",
"110 500 QCURVE SMOOTH",
"110 478 OFFCURVE",
"132 430 OFFCURVE",
"165 390 OFFCURVE",
"206 364 OFFCURVE",
"226 364 QCURVE SMOOTH",
"268 364 OFFCURVE",
"322 400 QCURVE SMOOTH",
"462 496 LINE",
"472 488 LINE",
"472 304 LINE SMOOTH",
"472 272 OFFCURVE",
"484 221 OFFCURVE",
"514 184 OFFCURVE",
"562 164 OFFCURVE",
"598 164 QCURVE SMOOTH",
"667 164 OFFCURVE",
"720 241 OFFCURVE",
"720 304 QCURVE SMOOTH",
"720 488 LINE",
"730 496 LINE",
"872 400 LINE SMOOTH",
"926 364 OFFCURVE",
"968 364 QCURVE SMOOTH",
"987 364 OFFCURVE",
"1029 390 OFFCURVE",
"1062 430 OFFCURVE",
"1084 478 OFFCURVE",
"1084 500 QCURVE SMOOTH",
"1084 532 OFFCURVE",
"1042 587 OFFCURVE",
"1006 608 QCURVE SMOOTH",
"828 714 LINE",
"828 726 LINE",
"1010 836 LINE SMOOTH",
"1045 857 OFFCURVE",
"1084 910 OFFCURVE",
"1084 942 QCURVE SMOOTH",
"1084 964 OFFCURVE",
"1064 1012 OFFCURVE",
"1032 1052 OFFCURVE",
"991 1078 OFFCURVE",
"970 1078 QCURVE SMOOTH",
"927 1078 OFFCURVE",
"878 1044 QCURVE SMOOTH",
"730 944 LINE",
"720 952 LINE",
"720 1116 LINE SMOOTH",
"720 1185 OFFCURVE",
"667 1260 OFFCURVE",
"598 1260 QCURVE SMOOTH",
"526 1260 OFFCURVE",
"472 1185 OFFCURVE",
"472 1116 QCURVE SMOOTH",
"472 952 LINE",
"460 944 LINE",
"316 1044 LINE SMOOTH"
);
}
);
width = 1194;
}
);
note = asterisk;
unicode = 002A;
},
{
glyphname = plus;
layers = (
{
layerId = "D08966C8-96EF-481A-BF9E-1465DF9248E1";
paths = (
{
closed = 1;
nodes = (
"432 600 LINE",
"432 500 LINE SMOOTH",
"432 472 OFFCURVE",
"438 420 OFFCURVE",
"462 380 OFFCURVE",
"512 356 OFFCURVE",
"556 356 QCURVE SMOOTH",
"596 356 OFFCURVE",
"644 380 OFFCURVE",
"669 420 OFFCURVE",
"676 472 OFFCURVE",
"676 500 QCURVE SMOOTH",
"676 600 LINE",
"776 600 LINE SMOOTH",
"801 600 OFFCURVE",
"853 607 OFFCURVE",
"894 632 OFFCURVE",
"920 679 OFFCURVE",
"920 720 QCURVE SMOOTH",
"920 764 OFFCURVE",
"894 814 OFFCURVE",
"853 838 OFFCURVE",
"801 844 OFFCURVE",
"776 844 QCURVE SMOOTH",
"676 844 LINE",
"676 942 LINE SMOOTH",
"676 967 OFFCURVE",
"669 1019 OFFCURVE",
"644 1060 OFFCURVE",
"596 1086 OFFCURVE",
"556 1086 QCURVE SMOOTH",
"512 1086 OFFCURVE",
"462 1060 OFFCURVE",
"438 1019 OFFCURVE",
"432 967 OFFCURVE",
"432 942 QCURVE SMOOTH",
"432 844 LINE",
"334 844 LINE SMOOTH",
"306 844 OFFCURVE",
"254 838 OFFCURVE",
"214 814 OFFCURVE",
"190 764 OFFCURVE",
"190 720 QCURVE SMOOTH",
"190 679 OFFCURVE",
"214 632 OFFCURVE",
"255 607 OFFCURVE",
"307 600 OFFCURVE",
"336 600 QCURVE SMOOTH",
"356 600 LINE"
);
}
);
width = 1102;
}
);
note = plus;
unicode = 002B;
},
{
glyphname = comma;
layers = (
{
layerId = "D08966C8-96EF-481A-BF9E-1465DF9248E1";
paths = (
{
closed = 1;
nodes = (
"383 330 OFFCURVE",
"300 330 QCURVE SMOOTH",
"220 330 OFFCURVE",
"134 252 OFFCURVE",
"134 166 QCURVE SMOOTH",
"134 126 OFFCURVE",
"154 73 OFFCURVE",
"183 38 OFFCURVE",
"217 17 OFFCURVE",
"246 1 OFFCURVE",
"266 -13 OFFCURVE",
"266 -24 QCURVE SMOOTH",
"266 -35 OFFCURVE",
"257 -55 OFFCURVE",
"245 -75 OFFCURVE",
"235 -96 OFFCURVE",
"234 -106 QCURVE SMOOTH",
"234 -114 LINE SMOOTH",
"234 -140 OFFCURVE",
"265 -164 OFFCURVE",
"282 -164 QCURVE SMOOTH",
"328 -164 OFFCURVE",
"397 -97 OFFCURVE",
"442 2 OFFCURVE",
"464 117 OFFCURVE",
"464 166 QCURVE SMOOTH",
"464 252 OFFCURVE"
);
}
);
width = 598;
}
);
note = comma;
unicode = 002C;
},
{
glyphname = hyphen;
layers = (
{
layerId = "D08966C8-96EF-481A-BF9E-1465DF9248E1";
paths = (
{
closed = 1;
nodes = (
"694 480 LINE SMOOTH",
"719 480 OFFCURVE",
"771 487 OFFCURVE",
"812 512 OFFCURVE",
"838 559 OFFCURVE",
"838 600 QCURVE SMOOTH",
"838 644 OFFCURVE",
"812 694 OFFCURVE",
"771 718 OFFCURVE",
"719 724 OFFCURVE",
"694 724 QCURVE SMOOTH",
"252 724 LINE SMOOTH",
"224 724 OFFCURVE",
"172 718 OFFCURVE",
"132 694 OFFCURVE",
"108 644 OFFCURVE",
"108 600 QCURVE SMOOTH",
"108 559 OFFCURVE",
"132 512 OFFCURVE",
"172 487 OFFCURVE",
"224 480 OFFCURVE",
"252 480 QCURVE SMOOTH",
"308 480 LINE"
);
}
);
width = 966;
}
);
note = hyphen;
unicode = 002D;
},
{
glyphname = period;
layers = (
{
layerId = "D08966C8-96EF-481A-BF9E-1465DF9248E1";
paths = (
{
closed = 1;
nodes = (
"383 330 OFFCURVE",
"300 330 QCURVE SMOOTH",
"220 330 OFFCURVE",
"134 252 OFFCURVE",
"134 166 QCURVE SMOOTH",
"134 81 OFFCURVE",
"220 0 OFFCURVE",
"300 0 QCURVE SMOOTH",
"378 0 OFFCURVE",
"464 81 OFFCURVE",
"464 166 QCURVE SMOOTH",
"464 252 OFFCURVE"
);
}
);
width = 598;
}
);
note = period;
unicode = 002E;
},
{
glyphname = slash;
layers = (
{
layerId = "D08966C8-96EF-481A-BF9E-1465DF9248E1";
paths = (
{
closed = 1;
nodes = (
"813 1234 OFFCURVE",
"826 1280 OFFCURVE",
"826 1310 QCURVE",
"823 1334 OFFCURVE",
"789 1377 OFFCURVE",
"750 1394 QCURVE SMOOTH",
"730 1402 OFFCURVE",
"695 1408 OFFCURVE",
"674 1408 QCURVE SMOOTH",
"654 1406 OFFCURVE",
"625 1387 OFFCURVE",
"603 1360 OFFCURVE",
"587 1326 OFFCURVE",
"580 1310 QCURVE SMOOTH",
"92 168 LINE SMOOTH",
"83 145 OFFCURVE",
"70 103 OFFCURVE",
"70 74 QCURVE",
"73 50 OFFCURVE",
"109 6 OFFCURVE",
"150 -12 QCURVE SMOOTH",
"181 -26 OFFCURVE",
"206 -26 QCURVE SMOOTH",
"229 -26 OFFCURVE",
"264 -7 OFFCURVE",
"291 22 OFFCURVE",
"310 57 OFFCURVE",
"318 74 QCURVE SMOOTH",
"804 1214 LINE SMOOTH"
);
}
);
width = 906;
}
);
note = slash;
unicode = 002F;
},
{
glyphname = zero;
layers = (
{
layerId = "D08966C8-96EF-481A-BF9E-1465DF9248E1";
paths = (
{
closed = 1;
nodes = (
"102 310 OFFCURVE",
"157 170 OFFCURVE",
"243 77 OFFCURVE",
"347 25 OFFCURVE",
"446 -2 OFFCURVE",
"525 -8 OFFCURVE",
"544 -8 QCURVE SMOOTH",
"578 -8 LINE SMOOTH",
"597 -8 OFFCURVE",
"677 -2 OFFCURVE",
"774 25 OFFCURVE",
"877 77 OFFCURVE",
"962 170 OFFCURVE",
"1016 310 OFFCURVE",
"1016 410 QCURVE SMOOTH",
"1016 1000 LINE SMOOTH",
"1016 1097 OFFCURVE",
"962 1234 OFFCURVE",
"877 1324 OFFCURVE",
"774 1376 OFFCURVE",
"677 1402 OFFCURVE",
"597 1408 OFFCURVE",
"578 1408 QCURVE SMOOTH",
"544 1408 LINE SMOOTH",
"525 1408 OFFCURVE",
"446 1402 OFFCURVE",
"347 1376 OFFCURVE",
"243 1324 OFFCURVE",
"157 1234 OFFCURVE",
"102 1097 OFFCURVE",
"102 1000 QCURVE SMOOTH",
"102 410 LINE SMOOTH"
);
},
{
closed = 1;
nodes = (
"433 1069 OFFCURVE",
"449 1096 QCURVE SMOOTH",
"462 1119 OFFCURVE",
"515 1158 OFFCURVE",
"562 1158 QCURVE SMOOTH",
"608 1158 OFFCURVE",
"660 1119 OFFCURVE",
"673 1096 QCURVE SMOOTH",
"688 1069 OFFCURVE",
"692 1034 QCURVE",
"692 358 LINE",
"688 323 OFFCURVE",
"673 296 QCURVE SMOOTH",
"660 273 OFFCURVE",
"608 234 OFFCURVE",
"562 234 QCURVE SMOOTH",
"515 234 OFFCURVE",
"462 273 OFFCURVE",
"449 296 QCURVE SMOOTH",
"433 323 OFFCURVE",
"430 358 QCURVE",
"430 1034 LINE"
);
}
);
width = 1118;
}
);
note = zero;
unicode = 0030;
},
{
glyphname = one;
layers = (
{
layerId = "D08966C8-96EF-481A-BF9E-1465DF9248E1";
paths = (
{
closed = 1;
nodes = (
"360 192 OFFCURVE",
"368 107 OFFCURVE",
"399 41 OFFCURVE",
"459 0 OFFCURVE",
"512 0 QCURVE SMOOTH",
"564 0 OFFCURVE",
"625 41 OFFCURVE",
"656 107 OFFCURVE",
"664 192 OFFCURVE",
"664 236 QCURVE SMOOTH",
"664 1164 LINE SMOOTH",
"664 1207 OFFCURVE",
"656 1291 OFFCURVE",
"625 1358 OFFCURVE",
"564 1400 OFFCURVE",
"512 1400 QCURVE SMOOTH",
"495 1400 OFFCURVE",
"473 1399 OFFCURVE",
"455 1396 OFFCURVE",
"438 1389 OFFCURVE",
"428 1384 QCURVE SMOOTH",
"411 1376 OFFCURVE",
"365 1334 OFFCURVE",
"303 1275 OFFCURVE",
"224 1207 OFFCURVE",
"174 1174 QCURVE",
"150 1161 OFFCURVE",
"108 1137 OFFCURVE",
"76 1107 OFFCURVE",
"58 1066 OFFCURVE",
"58 1038 QCURVE SMOOTH",
"58 1010 OFFCURVE",
"79 960 OFFCURVE",
"115 921 OFFCURVE",
"166 898 OFFCURVE",
"196 898 QCURVE SMOOTH",
"249 898 OFFCURVE",
"327 932 OFFCURVE",
"360 962 QCURVE",
"360 236 LINE SMOOTH"
);
}
);
width = 786;
}
);
note = one;
unicode = 0031;
},
{
glyphname = two;
layers = (
{
layerId = "D08966C8-96EF-481A-BF9E-1465DF9248E1";
paths = (
{
closed = 1;
nodes = (
"308 1362 OFFCURVE",
"208 1288 OFFCURVE",
"146 1196 OFFCURVE",
"112 1104 OFFCURVE",
"100 1022 OFFCURVE",
"100 996 QCURVE SMOOTH",
"100 937 OFFCURVE",
"184 862 OFFCURVE",
"252 862 QCURVE SMOOTH",
"274 862 OFFCURVE",
"327 878 OFFCURVE",
"372 912 OFFCURVE",
"402 967 OFFCURVE",
"402 1006 QCURVE SMOOTH",
"402 1030 OFFCURVE",
"411 1083 OFFCURVE",
"442 1127 OFFCURVE",
"502 1156 OFFCURVE",
"552 1156 QCURVE SMOOTH",
"571 1156 OFFCURVE",
"626 1149 OFFCURVE",
"677 1120 OFFCURVE",
"712 1060 OFFCURVE",
"712 1008 QCURVE SMOOTH",
"712 979 OFFCURVE",
"696 923 OFFCURVE",
"645 868 OFFCURVE",
"551 811 OFFCURVE",
"472 780 QCURVE SMOOTH",
"393 749 OFFCURVE",
"264 661 OFFCURVE",
"171 550 OFFCURVE",
"120 415 OFFCURVE",
"120 338 QCURVE SMOOTH",
"120 178 LINE SMOOTH",
"120 147 OFFCURVE",
"135 84 OFFCURVE",
"173 33 OFFCURVE",
"238 0 OFFCURVE",
"288 0 QCURVE SMOOTH",
"786 0 LINE SMOOTH",
"828 0 OFFCURVE",
"912 8 OFFCURVE",
"980 38 OFFCURVE",
"1022 94 OFFCURVE",
"1022 142 QCURVE SMOOTH",
"1022 189 OFFCURVE",
"980 244 OFFCURVE",
"912 272 OFFCURVE",
"828 280 OFFCURVE",
"786 280 QCURVE SMOOTH",
"438 280 LINE",
"438 342 LINE SMOOTH",
"438 385 OFFCURVE",
"472 452 OFFCURVE",
"526 503 OFFCURVE",
"595 542 OFFCURVE",
"630 556 QCURVE SMOOTH",
"735 594 OFFCURVE",
"819 656 QCURVE SMOOTH",
"854 682 OFFCURVE",
"922 750 OFFCURVE",
"975 834 OFFCURVE",
"1008 936 OFFCURVE",
"1008 996 QCURVE SMOOTH",
"1008 1087 OFFCURVE",
"950 1238 OFFCURVE",
"836 1347 OFFCURVE",
"665 1408 OFFCURVE",
"552 1408 QCURVE SMOOTH",
"452 1408 OFFCURVE"
);
}
);
width = 1060;
}
);
note = two;
unicode = 0032;
},
{
glyphname = three;
layers = (
{
layerId = "D08966C8-96EF-481A-BF9E-1465DF9248E1";
paths = (
{
closed = 1;
nodes = (
"398 846 OFFCURVE",
"382 795 OFFCURVE",
"382 774 QCURVE SMOOTH",
"382 724 OFFCURVE",
"442 666 OFFCURVE",
"490 666 QCURVE SMOOTH",
"524 666 OFFCURVE",
"589 635 OFFCURVE",
"640 579 OFFCURVE",
"670 503 OFFCURVE",
"670 458 QCURVE SMOOTH",
"670 419 OFFCURVE",
"653 343 OFFCURVE",
"609 283 OFFCURVE",
"534 246 OFFCURVE",
"476 246 QCURVE SMOOTH",
"438 246 OFFCURVE",
"380 263 OFFCURVE",
"339 287 OFFCURVE",
"314 315 OFFCURVE",
"308 326 QCURVE SMOOTH",
"284 374 OFFCURVE",
"213 420 OFFCURVE",
"172 420 QCURVE SMOOTH",
"141 420 OFFCURVE",
"97 399 OFFCURVE",
"68 364 OFFCURVE",
"54 319 OFFCURVE",
"54 294 QCURVE SMOOTH",
"54 243 OFFCURVE",
"93 159 OFFCURVE",
"159 91 OFFCURVE",
"244 42 OFFCURVE",
"337 8 OFFCURVE",
"431 -8 OFFCURVE",
"472 -8 QCURVE SMOOTH",
"526 -8 OFFCURVE",
"638 12 OFFCURVE",
"743 58 OFFCURVE",
"836 133 OFFCURVE",
"905 243 OFFCURVE",
"946 392 OFFCURVE",
"946 488 QCURVE SMOOTH",
"946 573 OFFCURVE",
"905 704 OFFCURVE",
"836 800 OFFCURVE",
"748 863 OFFCURVE",
"702 882 QCURVE",
"882 1182 LINE SMOOTH",
"891 1197 OFFCURVE",
"896 1229 OFFCURVE",
"896 1246 QCURVE SMOOTH",
"896 1275 OFFCURVE",
"874 1331 OFFCURVE",
"831 1374 OFFCURVE",
"768 1400 OFFCURVE",
"728 1400 QCURVE SMOOTH",
"282 1400 LINE SMOOTH",
"248 1400 OFFCURVE",
"175 1392 OFFCURVE",
"115 1364 OFFCURVE",
"76 1309 OFFCURVE",
"76 1262 QCURVE SMOOTH",
"76 1214 OFFCURVE",
"115 1158 OFFCURVE",
"175 1130 OFFCURVE",
"248 1122 OFFCURVE",
"282 1122 QCURVE SMOOTH",
"542 1122 LINE",
"542 1108 LINE",
"416 878 LINE SMOOTH"
);
}
);
width = 1026;
}
);
note = three;
unicode = 0033;
},
{
glyphname = four;
layers = (
{
layerId = "D08966C8-96EF-481A-BF9E-1465DF9248E1";
paths = (
{
closed = 1;
nodes = (
"660 899 OFFCURVE",
"632 854 OFFCURVE",
"624 794 OFFCURVE",
"624 760 QCURVE SMOOTH",
"624 624 LINE",
"414 624 LINE",
"406 632 LINE",
"444 769 OFFCURVE",
"475 877 QCURVE SMOOTH",
"488 923 OFFCURVE",
"512 1012 OFFCURVE",
"532 1081 OFFCURVE",
"544 1124 OFFCURVE",
"544 1124 QCURVE",
"546 1132 OFFCURVE",
"557 1165 OFFCURVE",
"568 1207 OFFCURVE",
"576 1256 OFFCURVE",
"576 1280 QCURVE SMOOTH",
"576 1304 OFFCURVE",
"565 1347 OFFCURVE",
"537 1380 OFFCURVE",
"490 1400 OFFCURVE",
"454 1400 QCURVE SMOOTH",
"404 1400 OFFCURVE",
"346 1367 OFFCURVE",
"313 1313 OFFCURVE",
"294 1243 OFFCURVE",
"284 1206 QCURVE SMOOTH",
"82 504 LINE SMOOTH",
"79 492 OFFCURVE",
"74 468 OFFCURVE",
"74 456 QCURVE SMOOTH",
"74 433 OFFCURVE",
"93 389 OFFCURVE",
"140 356 OFFCURVE",
"220 336 OFFCURVE",
"282 336 QCURVE SMOOTH",
"624 336 LINE",
"624 158 LINE SMOOTH",
"624 125 OFFCURVE",
"633 67 OFFCURVE",
"663 25 OFFCURVE",
"719 0 OFFCURVE",
"766 0 QCURVE SMOOTH",
"814 0 OFFCURVE",
"870 26 OFFCURVE",
"898 71 OFFCURVE",
"906 131 OFFCURVE",
"906 166 QCURVE SMOOTH",
"906 758 LINE SMOOTH",
"906 792 OFFCURVE",
"898 853 OFFCURVE",
"869 899 OFFCURVE",
"813 926 OFFCURVE",
"764 926 QCURVE SMOOTH",
"716 926 OFFCURVE"
);
}
);
width = 1002;
}
);
note = four;
unicode = 0034;
},
{
glyphname = five;
layers = (
{
layerId = "D08966C8-96EF-481A-BF9E-1465DF9248E1";
paths = (
{
closed = 1;
nodes = (
"407 1096 OFFCURVE",
"414 1113 OFFCURVE",
"425 1121 OFFCURVE",
"440 1122 OFFCURVE",
"448 1122 QCURVE SMOOTH",
"688 1122 LINE SMOOTH",
"725 1122 OFFCURVE",
"802 1130 OFFCURVE",
"863 1158 OFFCURVE",
"902 1214 OFFCURVE",
"902 1262 QCURVE SMOOTH",
"902 1309 OFFCURVE",
"863 1364 OFFCURVE",
"802 1392 OFFCURVE",
"725 1400 OFFCURVE",
"688 1400 QCURVE SMOOTH",
"288 1400 LINE SMOOTH",
"253 1400 OFFCURVE",
"208 1373 OFFCURVE",
"181 1331 OFFCURVE",
"168 1282 OFFCURVE",
"166 1260 QCURVE SMOOTH",
"108 710 LINE",
"108 675 OFFCURVE",
"131 631 OFFCURVE",
"167 604 OFFCURVE",
"213 594 OFFCURVE",
"236 594 QCURVE SMOOTH",
"270 594 OFFCURVE",
"334 611 OFFCURVE",
"397 631 OFFCURVE",
"460 648 OFFCURVE",
"492 648 QCURVE SMOOTH",
"529 648 OFFCURVE",
"601 625 OFFCURVE",
"658 578 OFFCURVE",
"692 507 OFFCURVE",
"692 458 QCURVE SMOOTH",
"692 419 OFFCURVE",
"675 343 OFFCURVE",
"631 283 OFFCURVE",
"556 246 OFFCURVE",
"498 246 QCURVE SMOOTH",
"460 246 OFFCURVE",
"402 263 OFFCURVE",
"361 287 OFFCURVE",
"336 315 OFFCURVE",
"330 326 QCURVE SMOOTH",
"306 374 OFFCURVE",
"235 420 OFFCURVE",
"194 420 QCURVE SMOOTH",
"163 420 OFFCURVE",
"119 399 OFFCURVE",
"90 364 OFFCURVE",
"76 319 OFFCURVE",
"76 294 QCURVE SMOOTH",
"76 270 OFFCURVE",
"82 246 QCURVE SMOOTH",
"98 181 OFFCURVE",
"187 86 OFFCURVE",
"304 23 OFFCURVE",
"435 -8 OFFCURVE",
"494 -8 QCURVE SMOOTH",
"548 -8 OFFCURVE",
"660 12 OFFCURVE",
"765 58 OFFCURVE",
"858 133 OFFCURVE",
"927 243 OFFCURVE",
"968 392 OFFCURVE",
"968 488 QCURVE SMOOTH",
"968 572 OFFCURVE",
"928 702 OFFCURVE",
"862 797 OFFCURVE",
"776 861 OFFCURVE",
"686 900 OFFCURVE",
"598 916 OFFCURVE",
"562 916 QCURVE SMOOTH",
"524 916 OFFCURVE",
"427 903 OFFCURVE",
"386 888 QCURVE",
"406 1080 LINE SMOOTH"
);
}
);
width = 1026;
}
);
note = five;
unicode = 0035;
},
{
glyphname = six;
layers = (
{
layerId = "D08966C8-96EF-481A-BF9E-1465DF9248E1";
paths = (
{
closed = 1;
nodes = (
"122 310 OFFCURVE",
"169 170 OFFCURVE",
"245 77 OFFCURVE",
"338 25 OFFCURVE",
"432 -2 OFFCURVE",
"515 -8 OFFCURVE",
"542 -8 QCURVE SMOOTH",
"562 -8 OFFCURVE",
"639 -2 OFFCURVE",
"729 25 OFFCURVE",
"823 77 OFFCURVE",
"899 170 OFFCURVE",
"948 310 OFFCURVE",
"948 410 QCURVE SMOOTH",
"948 502 LINE SMOOTH",
"948 588 OFFCURVE",
"909 714 OFFCURVE",
"847 801 OFFCURVE",
"767 855 OFFCURVE",
"685 884 OFFCURVE",
"608 894 OFFCURVE",
"580 894 QCURVE SMOOTH",
"557 894 OFFCURVE",
"507 887 OFFCURVE",
"462 871 OFFCURVE",
"424 843 OFFCURVE",
"414 822 QCURVE",
"414 872 OFFCURVE",
"417 946 OFFCURVE",
"426 1001 OFFCURVE",
"443 1044 OFFCURVE",
"472 1082 OFFCURVE",
"516 1120 OFFCURVE",
"546 1144 QCURVE SMOOTH",
"584 1173 OFFCURVE",
"620 1239 OFFCURVE",
"620 1272 QCURVE SMOOTH",
"620 1296 OFFCURVE",
"602 1340 OFFCURVE",
"566 1375 OFFCURVE",
"513 1398 OFFCURVE",
"478 1400 QCURVE SMOOTH",
"427 1400 OFFCURVE",
"336 1359 OFFCURVE",
"257 1287 OFFCURVE",
"193 1191 OFFCURVE",
"148 1081 OFFCURVE",
"124 962 OFFCURVE",
"124 904 QCURVE SMOOTH",
"124 880 OFFCURVE",
"123 780 OFFCURVE",
"123 660 OFFCURVE",
"122 537 OFFCURVE",
"122 490 QCURVE SMOOTH",
"122 410 LINE SMOOTH"
);
},
{
closed = 1;
nodes = (
"416 551 OFFCURVE",
"429 577 QCURVE SMOOTH",
"440 599 OFFCURVE",
"488 636 OFFCURVE",
"532 636 QCURVE SMOOTH",
"575 636 OFFCURVE",
"622 599 OFFCURVE",
"633 577 QCURVE SMOOTH",
"645 551 OFFCURVE",
"648 518 QCURVE",
"648 372 LINE",
"645 339 OFFCURVE",
"633 313 QCURVE SMOOTH",
"622 290 OFFCURVE",
"576 254 OFFCURVE",
"532 254 QCURVE SMOOTH",
"488 254 OFFCURVE",
"440 290 OFFCURVE",
"429 313 QCURVE SMOOTH",
"416 339 OFFCURVE",
"414 372 QCURVE",
"414 518 LINE"
);
}
);
width = 992;
}
);
note = six;
unicode = 0036;
},
{
glyphname = seven;
layers = (
{
layerId = "D08966C8-96EF-481A-BF9E-1465DF9248E1";
paths = (
{
closed = 1;
nodes = (
"335 680 OFFCURVE",
"301 614 OFFCURVE",
"281 545 OFFCURVE",
"274 455 OFFCURVE",
"274 384 QCURVE SMOOTH",
"274 234 LINE SMOOTH",
"274 190 OFFCURVE",
"279 106 OFFCURVE",
"308 40 OFFCURVE",
"371 0 OFFCURVE",
"430 0 QCURVE SMOOTH",
"490 0 OFFCURVE",
"555 40 OFFCURVE",
"585 106 OFFCURVE",
"590 190 OFFCURVE",
"590 234 QCURVE SMOOTH",
"590 384 LINE SMOOTH",
"590 426 OFFCURVE",
"595 488 OFFCURVE",
"610 546 OFFCURVE",
"639 611 OFFCURVE",
"664 656 QCURVE SMOOTH",
"952 1182 LINE SMOOTH",
"960 1197 OFFCURVE",
"966 1229 OFFCURVE",
"966 1246 QCURVE SMOOTH",
"966 1275 OFFCURVE",
"944 1331 OFFCURVE",
"901 1374 OFFCURVE",
"838 1400 OFFCURVE",
"798 1400 QCURVE SMOOTH",
"262 1400 LINE SMOOTH",
"227 1400 OFFCURVE",
"152 1392 OFFCURVE",
"89 1364 OFFCURVE",
"48 1309 OFFCURVE",
"48 1262 QCURVE SMOOTH",
"48 1214 OFFCURVE",
"89 1158 OFFCURVE",
"152 1130 OFFCURVE",
"227 1122 OFFCURVE",
"262 1122 QCURVE SMOOTH",
"576 1122 LINE",
"576 1110 LINE",
"362 728 LINE SMOOTH"
);
}
);
width = 1012;
}
);
note = seven;
unicode = 0037;
},
{
glyphname = eight;
layers = (
{
layerId = "D08966C8-96EF-481A-BF9E-1465DF9248E1";
paths = (
{
closed = 1;
nodes = (
"392 568 OFFCURVE",
"406 594 QCURVE SMOOTH",
"412 605 OFFCURVE",
"430 627 OFFCURVE",
"457 644 OFFCURVE",
"492 654 OFFCURVE",
"516 654 QCURVE SMOOTH",
"561 654 OFFCURVE",
"610 617 OFFCURVE",
"621 594 QCURVE SMOOTH",
"634 568 OFFCURVE",
"636 534 QCURVE",
"636 344 LINE",
"634 313 OFFCURVE",
"621 289 QCURVE SMOOTH",
"610 268 OFFCURVE",
"561 234 OFFCURVE",
"516 234 QCURVE SMOOTH",
"468 234 OFFCURVE",
"418 268 OFFCURVE",
"406 289 QCURVE SMOOTH",
"392 313 OFFCURVE",
"390 344 QCURVE",
"390 534 LINE"
);
},
{
closed = 1;
nodes = (
"415 1403 OFFCURVE",
"325 1381 OFFCURVE",
"232 1335 OFFCURVE",
"157 1251 OFFCURVE",
"110 1124 OFFCURVE",
"110 1032 QCURVE SMOOTH",
"110 1006 LINE SMOOTH",
"110 944 OFFCURVE",
"126 857 OFFCURVE",
"156 797 OFFCURVE",
"198 757 OFFCURVE",
"224 742 QCURVE",
"198 727 OFFCURVE",
"149 687 OFFCURVE",
"112 627 OFFCURVE",
"90 540 OFFCURVE",
"90 478 QCURVE SMOOTH",
"90 368 LINE SMOOTH",
"90 276 OFFCURVE",
"140 149 OFFCURVE",
"220 65 OFFCURVE",
"317 19 OFFCURVE",
"412 -3 OFFCURVE",
"493 -8 OFFCURVE",
"516 -8 QCURVE SMOOTH",
"539 -8 OFFCURVE",
"619 -3 OFFCURVE",
"711 19 OFFCURVE",
"805 65 OFFCURVE",
"882 149 OFFCURVE",
"930 276 OFFCURVE",
"930 368 QCURVE SMOOTH",
"930 478 LINE SMOOTH",
"930 540 OFFCURVE",
"908 627 OFFCURVE",
"871 687 OFFCURVE",
"822 727 OFFCURVE",
"796 742 QCURVE",
"822 757 OFFCURVE",
"864 797 OFFCURVE",
"894 857 OFFCURVE",
"910 944 OFFCURVE",
"910 1006 QCURVE SMOOTH",
"910 1032 LINE SMOOTH",
"910 1124 OFFCURVE",
"865 1251 OFFCURVE",
"793 1335 OFFCURVE",
"704 1381 OFFCURVE",
"616 1403 OFFCURVE",
"539 1408 OFFCURVE",
"516 1408 QCURVE SMOOTH",
"493 1408 OFFCURVE"
);
},
{
closed = 1;
nodes = (
"392 1068 OFFCURVE",
"406 1094 QCURVE SMOOTH",
"412 1105 OFFCURVE",
"430 1127 OFFCURVE",
"457 1144 OFFCURVE",
"492 1154 OFFCURVE",
"516 1154 QCURVE SMOOTH",
"561 1154 OFFCURVE",
"610 1117 OFFCURVE",
"621 1094 QCURVE SMOOTH",
"634 1068 OFFCURVE",
"636 1034 QCURVE SMOOTH",
"636 952 LINE",
"634 921 OFFCURVE",
"621 897 QCURVE SMOOTH",
"610 876 OFFCURVE",
"561 842 OFFCURVE",
"516 842 QCURVE SMOOTH",
"468 842 OFFCURVE",
"418 876 OFFCURVE",
"406 897 QCURVE SMOOTH",
"392 921 OFFCURVE",
"390 952 QCURVE",
"390 1034 LINE SMOOTH"
);
}
);
width = 1020;
}
);
note = eight;
unicode = 0038;
},
{
glyphname = nine;
layers = (
{
layerId = "D08966C8-96EF-481A-BF9E-1465DF9248E1";
paths = (
{
closed = 1;
nodes = (
"870 1088 OFFCURVE",
"823 1229 OFFCURVE",
"749 1322 OFFCURVE",
"656 1375 OFFCURVE",
"563 1402 OFFCURVE",
"479 1408 OFFCURVE",
"452 1408 QCURVE SMOOTH",
"431 1408 OFFCURVE",
"355 1402 OFFCURVE",
"265 1375 OFFCURVE",
"171 1322 OFFCURVE",
"95 1229 OFFCURVE",
"46 1088 OFFCURVE",
"46 988 QCURVE SMOOTH",
"46 896 LINE SMOOTH",
"46 810 OFFCURVE",
"85 687 OFFCURVE",
"147 600 OFFCURVE",
"227 547 OFFCURVE",
"309 518 OFFCURVE",
"386 508 OFFCURVE",
"414 508 QCURVE SMOOTH",
"438 508 OFFCURVE",
"489 515 OFFCURVE",
"534 531 OFFCURVE",
"571 559 OFFCURVE",
"582 580 QCURVE",
"582 529 OFFCURVE",
"579 455 OFFCURVE",
"570 399 OFFCURVE",
"553 356 OFFCURVE",
"523 318 OFFCURVE",
"479 279 OFFCURVE",
"448 256 QCURVE SMOOTH",
"410 227 OFFCURVE",
"374 161 OFFCURVE",
"374 128 QCURVE SMOOTH",
"374 104 OFFCURVE",
"392 60 OFFCURVE",
"428 25 OFFCURVE",
"482 2 OFFCURVE",
"518 0 QCURVE SMOOTH",
"594 0 OFFCURVE",
"722 90 OFFCURVE",
"815 233 OFFCURVE",
"868 410 OFFCURVE",
"868 498 QCURVE SMOOTH",
"868 522 OFFCURVE",
"869 621 OFFCURVE",
"869 739 OFFCURVE",
"870 861 OFFCURVE",
"870 908 QCURVE SMOOTH",
"870 988 LINE SMOOTH"
);
},
{
closed = 1;
nodes = (
"580 847 OFFCURVE",
"567 821 QCURVE SMOOTH",
"556 798 OFFCURVE",
"508 762 OFFCURVE",
"464 762 QCURVE SMOOTH",
"420 762 OFFCURVE",
"372 798 OFFCURVE",
"361 821 QCURVE SMOOTH",
"348 847 OFFCURVE",
"346 880 QCURVE",
"346 1026 LINE",
"348 1059 OFFCURVE",
"361 1085 QCURVE SMOOTH",
"372 1107 OFFCURVE",
"420 1144 OFFCURVE",
"464 1144 QCURVE SMOOTH",
"508 1144 OFFCURVE",
"556 1107 OFFCURVE",
"567 1085 QCURVE SMOOTH",
"580 1059 OFFCURVE",
"582 1026 QCURVE",
"582 880 LINE"
);
}
);
width = 992;
}
);
note = nine;
unicode = 0039;
},
{
glyphname = colon;
layers = (
{
layerId = "D08966C8-96EF-481A-BF9E-1465DF9248E1";
paths = (
{
closed = 1;
nodes = (
"373 330 OFFCURVE",
"290 330 QCURVE SMOOTH",
"210 330 OFFCURVE",
"124 252 OFFCURVE",
"124 166 QCURVE SMOOTH",
"124 81 OFFCURVE",
"210 0 OFFCURVE",
"290 0 QCURVE SMOOTH",
"368 0 OFFCURVE",
"454 81 OFFCURVE",
"454 166 QCURVE SMOOTH",
"454 252 OFFCURVE"
);
},
{
closed = 1;
nodes = (
"371 854 OFFCURVE",
"288 854 QCURVE SMOOTH",
"208 854 OFFCURVE",
"122 776 OFFCURVE",
"122 690 QCURVE SMOOTH",
"122 605 OFFCURVE",
"208 524 OFFCURVE",
"288 524 QCURVE SMOOTH",
"366 524 OFFCURVE",
"452 605 OFFCURVE",
"452 690 QCURVE SMOOTH",
"452 776 OFFCURVE"
);
}
);
width = 572;
}
);
note = colon;
unicode = 003A;
},
{
glyphname = semicolon;
layers = (
{
layerId = "D08966C8-96EF-481A-BF9E-1465DF9248E1";
paths = (
{
closed = 1;
nodes = (
"369 852 OFFCURVE",
"286 852 QCURVE SMOOTH",
"206 852 OFFCURVE",
"120 774 OFFCURVE",
"120 688 QCURVE SMOOTH",
"120 603 OFFCURVE",
"206 522 OFFCURVE",
"286 522 QCURVE SMOOTH",
"364 522 OFFCURVE",
"450 603 OFFCURVE",
"450 688 QCURVE SMOOTH",
"450 774 OFFCURVE"
);
},
{
closed = 1;
nodes = (
"371 328 OFFCURVE",
"288 328 QCURVE SMOOTH",
"208 328 OFFCURVE",
"122 250 OFFCURVE",
"122 164 QCURVE SMOOTH",
"122 124 OFFCURVE",
"142 71 OFFCURVE",
"171 36 OFFCURVE",
"205 15 OFFCURVE",
"234 -1 OFFCURVE",
"254 -15 OFFCURVE",
"254 -26 QCURVE SMOOTH",
"254 -37 OFFCURVE",
"245 -57 OFFCURVE",
"233 -77 OFFCURVE",
"223 -98 OFFCURVE",
"222 -108 QCURVE SMOOTH",
"222 -116 LINE SMOOTH",
"222 -142 OFFCURVE",
"253 -166 OFFCURVE",
"270 -166 QCURVE SMOOTH",
"316 -166 OFFCURVE",
"385 -99 OFFCURVE",
"430 0 OFFCURVE",
"452 115 OFFCURVE",
"452 164 QCURVE SMOOTH",
"452 250 OFFCURVE"
);
}
);
width = 596;
}
);
note = semicolon;
unicode = 003B;
},
{
glyphname = less;
layers = (
{
layerId = "D08966C8-96EF-481A-BF9E-1465DF9248E1";
paths = (
{
closed = 1;
nodes = (
"560 162 OFFCURVE",
"611 126 OFFCURVE",
"640 126 QCURVE SMOOTH",
"660 126 OFFCURVE",
"699 145 OFFCURVE",
"722 168 QCURVE SMOOTH",
"748 194 OFFCURVE",
"768 236 OFFCURVE",
"768 256 QCURVE SMOOTH",
"768 285 OFFCURVE",
"732 334 OFFCURVE",
"708 358 QCURVE SMOOTH",
"464 598 LINE",
"710 842 LINE SMOOTH",
"733 865 OFFCURVE",
"768 916 OFFCURVE",
"768 946 QCURVE SMOOTH",
"768 966 OFFCURVE",
"749 1005 OFFCURVE",
"726 1028 QCURVE SMOOTH",
"702 1052 OFFCURVE",
"660 1074 OFFCURVE",
"640 1074 QCURVE SMOOTH",
"610 1074 OFFCURVE",
"561 1037 OFFCURVE",
"538 1014 QCURVE SMOOTH",
"224 702 LINE SMOOTH",
"198 676 OFFCURVE",
"162 629 OFFCURVE",
"162 600 QCURVE SMOOTH",
"162 584 OFFCURVE",
"173 556 OFFCURVE",
"191 530 OFFCURVE",
"212 508 OFFCURVE",
"222 498 QCURVE SMOOTH",
"536 186 LINE SMOOTH"
);
}
);
width = 930;
}
);
note = less;
unicode = 003C;
},
{
glyphname = equal;
layers = (
{
layerId = "D08966C8-96EF-481A-BF9E-1465DF9248E1";
paths = (
{
closed = 1;
nodes = (
"770 682 LINE SMOOTH",
"795 682 OFFCURVE",
"847 689 OFFCURVE",
"888 714 OFFCURVE",
"914 761 OFFCURVE",
"914 802 QCURVE SMOOTH",
"914 846 OFFCURVE",
"888 896 OFFCURVE",
"847 920 OFFCURVE",
"795 926 OFFCURVE",
"770 926 QCURVE SMOOTH",
"328 926 LINE SMOOTH",
"300 926 OFFCURVE",
"248 920 OFFCURVE",
"208 896 OFFCURVE",
"184 846 OFFCURVE",
"184 802 QCURVE SMOOTH",
"184 761 OFFCURVE",
"208 714 OFFCURVE",
"248 689 OFFCURVE",
"300 682 OFFCURVE",
"328 682 QCURVE SMOOTH",
"384 682 LINE"
);
},
{
closed = 1;
nodes = (
"766 290 LINE SMOOTH",
"791 290 OFFCURVE",
"843 297 OFFCURVE",
"884 322 OFFCURVE",
"910 369 OFFCURVE",
"910 410 QCURVE SMOOTH",
"910 454 OFFCURVE",
"884 504 OFFCURVE",
"843 528 OFFCURVE",
"791 534 OFFCURVE",
"766 534 QCURVE SMOOTH",
"324 534 LINE SMOOTH",
"296 534 OFFCURVE",
"244 528 OFFCURVE",
"204 504 OFFCURVE",
"180 454 OFFCURVE",
"180 410 QCURVE SMOOTH",
"180 369 OFFCURVE",
"204 322 OFFCURVE",
"244 297 OFFCURVE",
"296 290 OFFCURVE",
"324 290 QCURVE SMOOTH",
"380 290 LINE"
);
}
);
width = 1102;
}
);
note = equal;
unicode = 003D;
},
{
glyphname = greater;
layers = (
{
layerId = "D08966C8-96EF-481A-BF9E-1465DF9248E1";
paths = (
{
closed = 1;
nodes = (
"718 508 OFFCURVE",
"739 530 OFFCURVE",
"757 556 OFFCURVE",
"768 584 OFFCURVE",
"768 600 QCURVE SMOOTH",
"768 629 OFFCURVE",
"732 676 OFFCURVE",
"706 702 QCURVE SMOOTH",
"392 1014 LINE SMOOTH",
"369 1037 OFFCURVE",
"320 1074 OFFCURVE",
"290 1074 QCURVE SMOOTH",
"270 1074 OFFCURVE",
"228 1052 OFFCURVE",
"204 1028 QCURVE SMOOTH",
"181 1005 OFFCURVE",
"162 966 OFFCURVE",
"162 946 QCURVE SMOOTH",
"162 916 OFFCURVE",
"197 865 OFFCURVE",
"220 842 QCURVE SMOOTH",
"466 598 LINE",
"222 358 LINE SMOOTH",
"198 334 OFFCURVE",
"162 285 OFFCURVE",
"162 256 QCURVE SMOOTH",
"162 236 OFFCURVE",
"182 194 OFFCURVE",
"208 168 QCURVE SMOOTH",
"231 145 OFFCURVE",
"270 126 OFFCURVE",
"290 126 QCURVE SMOOTH",
"319 126 OFFCURVE",
"370 162 OFFCURVE",
"394 186 QCURVE SMOOTH",
"708 498 LINE SMOOTH"
);
}
);
width = 930;
}
);
note = greater;
unicode = 003E;
},
{
glyphname = question;
layers = (
{
layerId = "D08966C8-96EF-481A-BF9E-1465DF9248E1";
paths = (
{
closed = 1;
nodes = (
"954 1250 OFFCURVE",
"840 1359 OFFCURVE",
"669 1420 OFFCURVE",
"556 1420 QCURVE SMOOTH",
"456 1420 OFFCURVE",
"312 1374 OFFCURVE",
"212 1300 OFFCURVE",
"150 1208 OFFCURVE",
"116 1116 OFFCURVE",
"104 1034 OFFCURVE",
"104 1008 QCURVE SMOOTH",
"104 949 OFFCURVE",
"188 874 OFFCURVE",
"256 874 QCURVE SMOOTH",
"278 874 OFFCURVE",
"331 890 OFFCURVE",
"376 924 OFFCURVE",
"406 979 OFFCURVE",
"406 1018 QCURVE SMOOTH",
"406 1042 OFFCURVE",
"415 1095 OFFCURVE",
"446 1139 OFFCURVE",
"506 1168 OFFCURVE",
"556 1168 QCURVE SMOOTH",
"575 1168 OFFCURVE",
"630 1161 OFFCURVE",
"681 1132 OFFCURVE",
"716 1072 OFFCURVE",
"716 1020 QCURVE SMOOTH",
"716 970 OFFCURVE",
"670 903 OFFCURVE",
"600 849 OFFCURVE",
"520 799 OFFCURVE",
"450 732 OFFCURVE",
"404 640 OFFCURVE",
"404 572 QCURVE SMOOTH",
"404 553 OFFCURVE",
"417 507 OFFCURVE",
"450 467 OFFCURVE",
"505 440 OFFCURVE",
"548 440 QCURVE SMOOTH",
"619 440 OFFCURVE",
"686 510 OFFCURVE",
"686 564 QCURVE SMOOTH",
"686 585 OFFCURVE",
"702 618 OFFCURVE",
"708 626 QCURVE SMOOTH",
"722 645 OFFCURVE",
"779 688 OFFCURVE",
"846 738 OFFCURVE",
"917 798 OFFCURVE",
"975 870 OFFCURVE",
"1012 956 OFFCURVE",
"1012 1008 QCURVE SMOOTH",
"1012 1099 OFFCURVE"
);
},
{
closed = 1;
nodes = (
"639 330 OFFCURVE",
"556 330 QCURVE SMOOTH",
"476 330 OFFCURVE",
"390 252 OFFCURVE",
"390 166 QCURVE SMOOTH",
"390 81 OFFCURVE",
"476 0 OFFCURVE",
"556 0 QCURVE SMOOTH",
"634 0 OFFCURVE",
"720 81 OFFCURVE",
"720 166 QCURVE SMOOTH",
"720 252 OFFCURVE"
);
}
);
width = 1122;
}
);
note = question;
unicode = 003F;
},
{
glyphname = at;
layers = (
{
layerId = "D08966C8-96EF-481A-BF9E-1465DF9248E1";
paths = (
{
closed = 1;
nodes = (
"1050 726 OFFCURVE",
"1043 791 OFFCURVE",
"1019 842 OFFCURVE",
"972 872 OFFCURVE",
"932 872 QCURVE SMOOTH",
"911 872 OFFCURVE",
"868 859 OFFCURVE",
"834 829 OFFCURVE",
"812 777 OFFCURVE",
"812 738 QCURVE",
"804 761 OFFCURVE",
"778 808 OFFCURVE",
"737 846 OFFCURVE",
"680 870 OFFCURVE",
"642 870 QCURVE SMOOTH",
"599 870 OFFCURVE",
"513 842 OFFCURVE",
"444 776 OFFCURVE",
"400 670 OFFCURVE",
"400 592 QCURVE SMOOTH",
"400 364 LINE SMOOTH",
"400 286 OFFCURVE",
"444 180 OFFCURVE",
"513 114 OFFCURVE",
"599 86 OFFCURVE",
"642 86 QCURVE SMOOTH",
"680 86 OFFCURVE",
"737 110 OFFCURVE",
"778 148 OFFCURVE",
"804 195 OFFCURVE",
"812 218 QCURVE",
"812 209 OFFCURVE",
"814 188 OFFCURVE",
"816 176 QCURVE SMOOTH",
"825 123 OFFCURVE",
"904 74 OFFCURVE",
"958 74 QCURVE SMOOTH",
"1058 74 OFFCURVE",
"1192 139 OFFCURVE",
"1273 253 OFFCURVE",
"1306 406 OFFCURVE",
"1306 494 QCURVE SMOOTH",
"1306 624 OFFCURVE",
"1250 839 OFFCURVE",
"1115 993 OFFCURVE",
"891 1078 OFFCURVE",
"722 1078 QCURVE SMOOTH",
"602 1078 OFFCURVE",
"421 1032 OFFCURVE",
"290 950 OFFCURVE",
"204 839 OFFCURVE",
"153 709 OFFCURVE",
"132 566 OFFCURVE",
"132 494 QCURVE SMOOTH",
"132 371 OFFCURVE",
"180 189 OFFCURVE",
"264 58 OFFCURVE",
"378 -27 OFFCURVE",
"509 -77 OFFCURVE",
"652 -96 OFFCURVE",
"722 -96 QCURVE SMOOTH",
"730 -96 OFFCURVE",
"786 -96 OFFCURVE",
"860 -95 OFFCURVE",
"945 -93 OFFCURVE",
"1022 -90 OFFCURVE",
"1082 -86 OFFCURVE",
"1094 -82 QCURVE SMOOTH",
"1116 -75 OFFCURVE",
"1170 -57 OFFCURVE",
"1215 -32 OFFCURVE",
"1246 3 OFFCURVE",
"1246 26 QCURVE SMOOTH",
"1246 41 OFFCURVE",
"1227 60 OFFCURVE",
"1210 60 QCURVE SMOOTH",
"1205 60 OFFCURVE",
"1197 58 OFFCURVE",
"1192 56 QCURVE SMOOTH",
"1175 50 OFFCURVE",
"1143 32 OFFCURVE",
"1108 14 OFFCURVE",
"1069 -1 OFFCURVE",
"1046 -4 QCURVE SMOOTH",
"1035 -6 OFFCURVE",
"986 -8 OFFCURVE",
"923 -9 OFFCURVE",
"851 -10 OFFCURVE",
"786 -10 OFFCURVE",
"735 -10 OFFCURVE",
"722 -10 QCURVE SMOOTH",
"695 -10 OFFCURVE",
"601 -5 OFFCURVE",
"490 24 OFFCURVE",
"375 85 OFFCURVE",
"281 197 OFFCURVE",
"222 369 OFFCURVE",
"222 494 QCURVE SMOOTH",
"222 631 OFFCURVE",
"297 821 OFFCURVE",
"431 938 OFFCURVE",
"614 990 OFFCURVE",
"722 990 QCURVE SMOOTH",
"857 990 OFFCURVE",
"1047 925 OFFCURVE",
"1167 799 OFFCURVE",
"1222 614 OFFCURVE",
"1222 494 QCURVE SMOOTH",
"1222 426 OFFCURVE",
"1202 315 OFFCURVE",
"1167 234 OFFCURVE",
"1120 190 OFFCURVE",
"1092 190 QCURVE SMOOTH",
"1077 190 OFFCURVE",
"1060 202 OFFCURVE",
"1052 221 OFFCURVE",
"1050 245 OFFCURVE",
"1050 256 QCURVE SMOOTH",
"1050 692 LINE SMOOTH"
);
},
{
closed = 1;
nodes = (
"642 595 OFFCURVE",
"645 635 OFFCURVE",
"659 667 OFFCURVE",
"686 686 OFFCURVE",
"710 686 QCURVE SMOOTH",
"741 686 OFFCURVE",
"780 647 OFFCURVE",
"803 590 OFFCURVE",
"812 527 OFFCURVE",
"812 502 QCURVE SMOOTH",
"811 442 OFFCURVE",
"802 354 OFFCURVE",
"780 297 OFFCURVE",
"741 270 OFFCURVE",
"710 270 QCURVE SMOOTH",
"686 270 OFFCURVE",
"659 290 OFFCURVE",
"645 322 OFFCURVE",
"642 363 OFFCURVE",
"642 384 QCURVE SMOOTH",
"642 574 LINE SMOOTH"
);
}
);
width = 1494;
}
);
note = at;
unicode = 0040;
},
{
glyphname = A;
layers = (
{
layerId = "D08966C8-96EF-481A-BF9E-1465DF9248E1";
paths = (
{
closed = 1;
nodes = (
"564 1140 LINE",
"712 604 LINE",
"394 604 LINE",
"542 1140 LINE"
);
},
{
closed = 1;
nodes = (
"803 1249 OFFCURVE",
"776 1318 OFFCURVE",
"730 1369 OFFCURVE",
"657 1400 OFFCURVE",
"602 1400 QCURVE SMOOTH",
"502 1400 LINE SMOOTH",
"446 1400 OFFCURVE",
"374 1369 OFFCURVE",
"328 1318 OFFCURVE",
"300 1249 OFFCURVE",
"290 1212 QCURVE SMOOTH",
"240 1037 OFFCURVE",
"130 680 OFFCURVE",
"80 506 QCURVE",
"79 474 OFFCURVE",
"77 403 OFFCURVE",
"75 331 OFFCURVE",
"74 261 OFFCURVE",
"74 230 QCURVE SMOOTH",
"74 200 LINE SMOOTH",
"74 162 OFFCURVE",
"78 91 OFFCURVE",
"104 34 OFFCURVE",
"160 0 OFFCURVE",
"212 0 QCURVE SMOOTH",
"264 0 OFFCURVE",
"320 34 OFFCURVE",
"347 90 OFFCURVE",
"352 162 OFFCURVE",
"352 200 QCURVE SMOOTH",
"352 340 LINE",
"752 340 LINE",
"752 200 LINE SMOOTH",
"752 162 OFFCURVE",
"757 90 OFFCURVE",
"784 34 OFFCURVE",
"840 0 OFFCURVE",
"892 0 QCURVE SMOOTH",
"943 0 OFFCURVE",
"999 34 OFFCURVE",
"1025 91 OFFCURVE",
"1030 162 OFFCURVE",
"1030 200 QCURVE SMOOTH",
"1030 230 LINE SMOOTH",
"1030 296 OFFCURVE",
"1024 438 OFFCURVE",
"1022 506 QCURVE",
"814 1212 LINE SMOOTH"
);
}
);
width = 1104;
}
);
note = A;
unicode = 0041;
},
{
glyphname = B;
layers = (
{
layerId = "D08966C8-96EF-481A-BF9E-1465DF9248E1";
paths = (
{
closed = 1;
nodes = (
"215 1400 OFFCURVE",
"153 1361 OFFCURVE",
"125 1297 OFFCURVE",
"120 1215 OFFCURVE",
"120 1172 QCURVE SMOOTH",
"120 230 LINE SMOOTH",
"120 186 OFFCURVE",
"125 104 OFFCURVE",
"153 39 OFFCURVE",
"215 0 OFFCURVE",
"272 0 QCURVE SMOOTH",
"600 0 LINE",
"723 6 OFFCURVE",
"821 52 QCURVE SMOOTH",
"862 71 OFFCURVE",
"942 132 OFFCURVE",
"1004 219 OFFCURVE",
"1042 338 OFFCURVE",
"1042 416 QCURVE SMOOTH",
"1042 432 OFFCURVE",
"1039 485 OFFCURVE",
"1024 548 OFFCURVE",
"993 615 OFFCURVE",
"938 678 OFFCURVE",
"856 731 OFFCURVE",
"796 748 QCURVE",
"803 750 OFFCURVE",
"837 769 OFFCURVE",
"881 802 OFFCURVE",
"928 848 OFFCURVE",
"967 910 OFFCURVE",
"992 987 OFFCURVE",
"992 1034 QCURVE SMOOTH",
"992 1125 OFFCURVE",
"925 1262 OFFCURVE",
"808 1354 OFFCURVE",
"651 1400 OFFCURVE",
"562 1400 QCURVE SMOOTH",
"272 1400 LINE SMOOTH"
);
},
{
closed = 1;
nodes = (
"611 608 OFFCURVE",
"650 587 QCURVE SMOOTH",
"666 578 OFFCURVE",
"698 549 OFFCURVE",
"723 508 OFFCURVE",
"738 453 OFFCURVE",
"738 416 QCURVE SMOOTH",
"738 382 OFFCURVE",
"724 331 OFFCURVE",
"700 292 OFFCURVE",
"670 266 OFFCURVE",
"654 258 QCURVE SMOOTH",
"617 238 OFFCURVE",
"570 236 QCURVE SMOOTH",
"424 236 LINE",
"424 612 LINE",
"562 612 LINE"
);
},
{
closed = 1;
nodes = (
"589 1160 OFFCURVE",
"625 1141 QCURVE SMOOTH",
"640 1132 OFFCURVE",
"669 1106 OFFCURVE",
"692 1069 OFFCURVE",
"706 1018 OFFCURVE",
"706 984 QCURVE SMOOTH",
"706 954 OFFCURVE",
"693 908 OFFCURVE",
"671 875 OFFCURVE",
"643 851 OFFCURVE",
"629 844 QCURVE SMOOTH",
"595 826 OFFCURVE",
"552 824 QCURVE SMOOTH",
"424 824 LINE",
"424 1164 LINE",
"544 1164 LINE"
);
}
);
width = 1104;
}
);
note = B;
unicode = 0042;
},
{
glyphname = C;
layers = (
{
layerId = "D08966C8-96EF-481A-BF9E-1465DF9248E1";
paths = (
{
closed = 1;
nodes = (
"323 1353 QCURVE SMOOTH",
"279 1332 OFFCURVE",
"195 1269 OFFCURVE",
"130 1176 OFFCURVE",
"90 1050 OFFCURVE",
"90 968 QCURVE SMOOTH",
"90 410 LINE SMOOTH",
"90 310 OFFCURVE",
"146 171 OFFCURVE",
"233 78 OFFCURVE",
"339 26 OFFCURVE",
"439 0 OFFCURVE",
"520 -6 OFFCURVE",
"538 -6 QCURVE SMOOTH",
"650 -6 OFFCURVE",
"837 57 OFFCURVE",
"972 177 OFFCURVE",
"1046 350 OFFCURVE",
"1046 460 QCURVE SMOOTH",
"1046 465 OFFCURVE",
"1041 498 OFFCURVE",
"1011 533 OFFCURVE",
"946 560 OFFCURVE",
"886 560 QCURVE SMOOTH",
"826 560 OFFCURVE",
"756 542 OFFCURVE",
"720 515 OFFCURVE",
"710 483 OFFCURVE",
"710 468 QCURVE SMOOTH",
"710 421 OFFCURVE",
"697 335 OFFCURVE",
"663 269 OFFCURVE",
"603 230 OFFCURVE",
"556 230 QCURVE SMOOTH",
"507 230 OFFCURVE",
"454 278 OFFCURVE",
"442 307 QCURVE SMOOTH",
"428 340 OFFCURVE",
"426 384 QCURVE",
"426 1018 LINE",
"428 1054 OFFCURVE",
"442 1083 QCURVE SMOOTH",
"454 1107 OFFCURVE",
"507 1148 OFFCURVE",
"556 1148 QCURVE SMOOTH",
"603 1148 OFFCURVE",
"663 1116 OFFCURVE",
"697 1056 OFFCURVE",
"710 970 OFFCURVE",
"710 916 QCURVE SMOOTH",
"710 881 OFFCURVE",
"750 842 OFFCURVE",
"806 821 OFFCURVE",
"866 816 OFFCURVE",
"886 816 QCURVE SMOOTH",
"946 816 OFFCURVE",
"1011 844 OFFCURVE",
"1041 884 OFFCURVE",
"1046 927 OFFCURVE",
"1046 942 QCURVE SMOOTH",
"1046 977 OFFCURVE",
"1035 1073 OFFCURVE",
"1000 1177 OFFCURVE",
"934 1278 OFFCURVE",
"825 1358 OFFCURVE",
"666 1408 OFFCURVE",
"556 1408 QCURVE",
"425 1401 OFFCURVE"
);
}
);
width = 1110;
}
);
note = C;
unicode = 0043;
},
{
glyphname = D;
layers = (
{
layerId = "D08966C8-96EF-481A-BF9E-1465DF9248E1";
paths = (
{
closed = 1;
nodes = (
"229 1400 OFFCURVE",
"167 1361 OFFCURVE",
"139 1297 OFFCURVE",
"134 1215 OFFCURVE",
"134 1172 QCURVE SMOOTH",
"134 230 LINE SMOOTH",
"134 186 OFFCURVE",
"139 104 OFFCURVE",
"167 39 OFFCURVE",
"229 0 OFFCURVE",
"286 0 QCURVE SMOOTH",
"618 0 LINE",
"727 6 OFFCURVE",
"813 52 QCURVE SMOOTH",
"849 71 OFFCURVE",
"919 132 OFFCURVE",
"974 219 OFFCURVE",
"1008 338 OFFCURVE",
"1008 416 QCURVE SMOOTH",
"1008 1036 LINE SMOOTH",
"1008 1127 OFFCURVE",
"941 1263 OFFCURVE",
"824 1354 OFFCURVE",
"667 1400 OFFCURVE",
"576 1400 QCURVE SMOOTH",
"286 1400 LINE SMOOTH"
);
},
{
closed = 1;
nodes = (
"611 1163 OFFCURVE",
"645 1144 QCURVE SMOOTH",
"659 1136 OFFCURVE",
"687 1110 OFFCURVE",
"709 1072 OFFCURVE",
"722 1021 OFFCURVE",
"722 988 QCURVE SMOOTH",
"722 398 LINE SMOOTH",
"722 368 OFFCURVE",
"709 322 OFFCURVE",
"687 289 OFFCURVE",
"659 265 OFFCURVE",
"645 258 QCURVE SMOOTH",
"611 240 OFFCURVE",
"568 238 QCURVE SMOOTH",
"438 238 LINE",
"438 1166 LINE",
"568 1166 LINE"
);
}
);
width = 1094;
}
);
note = D;
unicode = 0044;
},
{
glyphname = E;
layers = (
{
layerId = "D08966C8-96EF-481A-BF9E-1465DF9248E1";
paths = (
{
closed = 1;
nodes = (
"234 1400 OFFCURVE",
"173 1360 OFFCURVE",
"145 1295 OFFCURVE",
"140 1213 OFFCURVE",
"140 1170 QCURVE SMOOTH",
"140 230 LINE SMOOTH",
"140 187 OFFCURVE",
"145 105 OFFCURVE",
"173 40 OFFCURVE",
"234 0 OFFCURVE",
"290 0 QCURVE SMOOTH",
"682 0 LINE SMOOTH",
"721 0 OFFCURVE",
"803 6 OFFCURVE",
"869 34 OFFCURVE",
"912 92 OFFCURVE",
"912 144 QCURVE SMOOTH",
"912 194 OFFCURVE",
"870 251 OFFCURVE",
"804 278 OFFCURVE",
"722 284 OFFCURVE",
"682 284 QCURVE SMOOTH",
"444 284 LINE",
"444 572 LINE",
"570 572 LINE SMOOTH",
"610 572 OFFCURVE",
"691 577 OFFCURVE",
"754 604 OFFCURVE",
"794 658 OFFCURVE",
"794 708 QCURVE SMOOTH",
"794 757 OFFCURVE",
"754 812 OFFCURVE",
"691 839 OFFCURVE",
"610 844 OFFCURVE",
"570 844 QCURVE SMOOTH",
"444 844 LINE",
"444 1116 LINE",
"682 1116 LINE SMOOTH",
"722 1116 OFFCURVE",
"804 1122 OFFCURVE",
"870 1150 OFFCURVE",
"912 1207 OFFCURVE",
"912 1258 QCURVE SMOOTH",
"912 1309 OFFCURVE",
"870 1366 OFFCURVE",
"804 1394 OFFCURVE",
"722 1400 OFFCURVE",
"682 1400 QCURVE SMOOTH",
"290 1400 LINE SMOOTH"
);
}
);
width = 986;
}
);
note = E;
unicode = 0045;
},
{
glyphname = F;
layers = (
{
layerId = "D08966C8-96EF-481A-BF9E-1465DF9248E1";
paths = (
{
closed = 1;
nodes = (
"235 1400 OFFCURVE",
"173 1360 OFFCURVE",
"145 1295 OFFCURVE",
"140 1213 OFFCURVE",
"140 1170 QCURVE SMOOTH",
"140 230 LINE SMOOTH",
"140 186 OFFCURVE",
"145 104 OFFCURVE",
"173 39 OFFCURVE",
"235 0 OFFCURVE",
"292 0 QCURVE SMOOTH",
"348 0 OFFCURVE",
"410 39 OFFCURVE",
"439 104 OFFCURVE",
"444 186 OFFCURVE",
"444 230 QCURVE SMOOTH",
"444 548 LINE",
"570 548 LINE SMOOTH",
"610 548 OFFCURVE",
"692 554 OFFCURVE",
"758 582 OFFCURVE",
"800 642 OFFCURVE",
"800 696 QCURVE SMOOTH",
"800 750 OFFCURVE",
"757 810 OFFCURVE",
"691 838 OFFCURVE",
"609 844 OFFCURVE",
"570 844 QCURVE SMOOTH",
"444 844 LINE",
"444 1104 LINE",
"682 1104 LINE SMOOTH",
"722 1104 OFFCURVE",
"804 1112 OFFCURVE",
"870 1142 OFFCURVE",
"912 1201 OFFCURVE",
"912 1252 QCURVE SMOOTH",
"912 1303 OFFCURVE",
"870 1362 OFFCURVE",
"804 1392 OFFCURVE",
"722 1400 OFFCURVE",
"682 1400 QCURVE SMOOTH",
"292 1400 LINE SMOOTH"
);
}
);
width = 938;
}
);
note = F;
unicode = 0046;
},
{
glyphname = G;
layers = (
{
layerId = "D08966C8-96EF-481A-BF9E-1465DF9248E1";
paths = (
{
closed = 1;
nodes = (
"1072 560 OFFCURVE",
"1047 607 OFFCURVE",
"1014 631 OFFCURVE",
"983 636 OFFCURVE",
"976 636 QCURVE SMOOTH",
"716 636 LINE",
"687 634 OFFCURVE",
"665 623 QCURVE SMOOTH",
"645 613 OFFCURVE",
"614 572 OFFCURVE",
"614 534 QCURVE SMOOTH",
"614 499 OFFCURVE",
"645 459 OFFCURVE",
"665 449 QCURVE SMOOTH",
"687 437 OFFCURVE",
"716 434 QCURVE",
"812 434 LINE",
"796 393 OFFCURVE",
"755 318 OFFCURVE",
"703 259 OFFCURVE",
"638 224 OFFCURVE",
"598 224 QCURVE SMOOTH",
"564 224 OFFCURVE",
"507 248 OFFCURVE",
"465 290 OFFCURVE",
"442 346 OFFCURVE",
"442 378 QCURVE SMOOTH",
"442 1018 LINE",
"444 1054 OFFCURVE",
"458 1082 QCURVE SMOOTH",
"470 1106 OFFCURVE",
"523 1146 OFFCURVE",
"572 1146 QCURVE SMOOTH",
"619 1146 OFFCURVE",
"679 1115 OFFCURVE",
"713 1055 OFFCURVE",
"726 970 OFFCURVE",
"726 916 QCURVE SMOOTH",
"726 882 OFFCURVE",
"766 843 OFFCURVE",
"822 823 OFFCURVE",
"883 818 OFFCURVE",
"904 818 QCURVE SMOOTH",
"964 818 OFFCURVE",
"1029 845 OFFCURVE",
"1059 884 OFFCURVE",
"1064 927 OFFCURVE",
"1064 942 QCURVE SMOOTH",
"1064 977 OFFCURVE",
"1053 1073 OFFCURVE",
"1017 1177 OFFCURVE",
"951 1278 OFFCURVE",
"841 1358 OFFCURVE",
"683 1408 OFFCURVE",
"572 1408 QCURVE",
"441 1401 OFFCURVE",
"339 1353 QCURVE SMOOTH",
"295 1332 OFFCURVE",
"211 1269 OFFCURVE",
"146 1176 OFFCURVE",
"106 1050 OFFCURVE",
"106 968 QCURVE SMOOTH",
"106 408 LINE SMOOTH",
"106 308 OFFCURVE",
"162 169 OFFCURVE",
"249 76 OFFCURVE",
"355 24 OFFCURVE",
"455 -2 OFFCURVE",
"535 -8 OFFCURVE",
"554 -8 QCURVE SMOOTH",
"663 -8 OFFCURVE",
"812 81 OFFCURVE",
"860 152 QCURVE",
"860 92 LINE SMOOTH",
"860 78 OFFCURVE",
"867 44 OFFCURVE",
"890 13 OFFCURVE",
"934 -8 OFFCURVE",
"972 -8 QCURVE SMOOTH",
"1006 -8 OFFCURVE",
"1046 14 OFFCURVE",
"1067 45 OFFCURVE",
"1072 79 OFFCURVE",
"1072 92 QCURVE SMOOTH",
"1072 518 LINE SMOOTH"
);
}
);
width = 1156;
}
);
note = G;
unicode = 0047;
},
{
glyphname = H;
layers = (
{
layerId = "D08966C8-96EF-481A-BF9E-1465DF9248E1";
paths = (
{
closed = 1;
nodes = (
"146 186 OFFCURVE",
"154 104 OFFCURVE",
"185 39 OFFCURVE",
"245 0 OFFCURVE",
"298 0 QCURVE SMOOTH",
"350 0 OFFCURVE",
"411 39 OFFCURVE",
"442 104 OFFCURVE",
"450 186 OFFCURVE",
"450 230 QCURVE SMOOTH",
"450 562 LINE",
"724 562 LINE",
"724 230 LINE SMOOTH",
"724 186 OFFCURVE",
"732 104 OFFCURVE",
"763 39 OFFCURVE",
"823 0 OFFCURVE",
"876 0 QCURVE SMOOTH",
"928 0 OFFCURVE",
"989 39 OFFCURVE",
"1020 104 OFFCURVE",
"1028 186 OFFCURVE",
"1028 230 QCURVE SMOOTH",
"1028 1170 LINE SMOOTH",
"1028 1213 OFFCURVE",
"1020 1295 OFFCURVE",
"989 1360 OFFCURVE",
"928 1400 OFFCURVE",
"876 1400 QCURVE SMOOTH",
"823 1400 OFFCURVE",
"763 1360 OFFCURVE",
"732 1295 OFFCURVE",
"724 1213 OFFCURVE",
"724 1170 QCURVE SMOOTH",
"724 856 LINE",
"450 856 LINE",
"450 1170 LINE SMOOTH",
"450 1213 OFFCURVE",
"442 1295 OFFCURVE",
"411 1360 OFFCURVE",
"350 1400 OFFCURVE",
"298 1400 QCURVE SMOOTH",
"245 1400 OFFCURVE",
"185 1360 OFFCURVE",
"154 1295 OFFCURVE",
"146 1213 OFFCURVE",
"146 1170 QCURVE SMOOTH",
"146 230 LINE SMOOTH"
);
}
);
width = 1166;
}
);
note = H;
unicode = 0048;
},
{
glyphname = I;
layers = (
{
layerId = "D08966C8-96EF-481A-BF9E-1465DF9248E1";
paths = (
{
closed = 1;
nodes = (
"168 186 OFFCURVE",
"177 104 OFFCURVE",
"210 39 OFFCURVE",
"276 0 OFFCURVE",
"334 0 QCURVE SMOOTH",
"392 0 OFFCURVE",
"459 39 OFFCURVE",
"492 104 OFFCURVE",
"500 186 OFFCURVE",
"500 230 QCURVE SMOOTH",
"500 1170 LINE SMOOTH",
"500 1213 OFFCURVE",
"491 1295 OFFCURVE",
"458 1360 OFFCURVE",
"392 1400 OFFCURVE",
"334 1400 QCURVE SMOOTH",
"276 1400 OFFCURVE",
"210 1360 OFFCURVE",
"177 1295 OFFCURVE",
"168 1213 OFFCURVE",
"168 1170 QCURVE SMOOTH",
"168 230 LINE SMOOTH"
);
}
);
width = 666;
}
);
note = I;
unicode = 0049;
},
{
glyphname = J;
layers = (
{
layerId = "D08966C8-96EF-481A-BF9E-1465DF9248E1";
paths = (
{
closed = 1;
nodes = (
"621 -4 OFFCURVE",
"720 19 OFFCURVE",
"829 69 OFFCURVE",
"920 162 OFFCURVE",
"980 306 OFFCURVE",
"980 410 QCURVE SMOOTH",
"980 1170 LINE SMOOTH",
"980 1213 OFFCURVE",
"970 1295 OFFCURVE",
"936 1360 OFFCURVE",
"869 1400 OFFCURVE",
"812 1400 QCURVE SMOOTH",
"404 1400 LINE SMOOTH",
"364 1400 OFFCURVE",
"284 1392 OFFCURVE",
"219 1363 OFFCURVE",
"178 1305 OFFCURVE",
"178 1256 QCURVE SMOOTH",
"178 1208 OFFCURVE",
"219 1152 OFFCURVE",
"284 1124 OFFCURVE",
"364 1116 OFFCURVE",
"404 1116 QCURVE SMOOTH",
"666 1116 LINE",
"666 382 LINE",
"664 345 OFFCURVE",
"650 317 QCURVE SMOOTH",
"638 292 OFFCURVE",
"585 252 OFFCURVE",
"536 252 QCURVE SMOOTH",
"489 252 OFFCURVE",
"429 284 OFFCURVE",
"395 344 OFFCURVE",
"382 430 OFFCURVE",
"382 484 QCURVE SMOOTH",
"382 518 OFFCURVE",
"342 558 OFFCURVE",
"286 579 OFFCURVE",
"226 584 OFFCURVE",
"206 584 QCURVE SMOOTH",
"146 584 OFFCURVE",
"81 556 OFFCURVE",
"51 516 OFFCURVE",
"46 473 OFFCURVE",
"46 458 QCURVE SMOOTH",
"46 423 OFFCURVE",
"57 327 OFFCURVE",
"92 223 OFFCURVE",
"158 122 OFFCURVE",
"267 42 OFFCURVE",
"426 -8 OFFCURVE",
"536 -8 QCURVE SMOOTH",
"547 -8 OFFCURVE"
);
}
);
width = 1126;
}
);
note = J;
unicode = 004A;
},
{
glyphname = K;
layers = (
{
layerId = "D08966C8-96EF-481A-BF9E-1465DF9248E1";
paths = (
{
closed = 1;
nodes = (
"140 186 OFFCURVE",
"148 104 OFFCURVE",
"178 39 OFFCURVE",
"238 0 OFFCURVE",
"290 0 QCURVE SMOOTH",
"343 0 OFFCURVE",
"405 39 OFFCURVE",
"436 104 OFFCURVE",
"444 186 OFFCURVE",
"444 230 QCURVE SMOOTH",
"444 566 LINE",
"556 566 LINE SMOOTH",
"604 566 OFFCURVE",
"664 535 OFFCURVE",
"698 480 OFFCURVE",
"710 405 OFFCURVE",
"710 362 QCURVE SMOOTH",
"710 156 LINE SMOOTH",
"710 115 OFFCURVE",
"745 53 OFFCURVE",
"801 12 OFFCURVE",
"869 -8 OFFCURVE",
"902 -8 QCURVE SMOOTH",
"933 -8 OFFCURVE",
"992 4 OFFCURVE",
"1037 34 OFFCURVE",
"1064 82 OFFCURVE",
"1064 118 QCURVE SMOOTH",
"1064 129 OFFCURVE",
"1058 163 OFFCURVE",
"1038 186 QCURVE SMOOTH",
"1030 195 OFFCURVE",
"1014 209 OFFCURVE",
"1014 220 QCURVE SMOOTH",
"1014 362 LINE SMOOTH",
"1014 416 OFFCURVE",
"998 503 OFFCURVE",
"972 571 OFFCURVE",
"939 622 OFFCURVE",
"922 640 QCURVE SMOOTH",
"882 683 OFFCURVE",
"830 702 QCURVE",
"1010 1128 LINE SMOOTH",
"1025 1163 OFFCURVE",
"1042 1234 OFFCURVE",
"1042 1260 QCURVE SMOOTH",
"1042 1294 OFFCURVE",
"1015 1346 OFFCURVE",
"971 1382 OFFCURVE",
"915 1400 OFFCURVE",
"886 1400 QCURVE SMOOTH",
"856 1400 OFFCURVE",
"811 1376 OFFCURVE",
"775 1336 OFFCURVE",
"748 1284 OFFCURVE",
"736 1256 QCURVE SMOOTH",
"724 1230 OFFCURVE",
"697 1163 OFFCURVE",
"668 1091 OFFCURVE",
"638 1016 OFFCURVE",
"624 981 QCURVE SMOOTH",
"591 898 OFFCURVE",
"558 812 QCURVE",
"444 812 LINE",
"444 1172 LINE SMOOTH",
"444 1215 OFFCURVE",
"436 1297 OFFCURVE",
"405 1361 OFFCURVE",
"343 1400 OFFCURVE",
"290 1400 QCURVE SMOOTH",
"238 1400 OFFCURVE",
"178 1361 OFFCURVE",
"148 1297 OFFCURVE",
"140 1215 OFFCURVE",
"140 1172 QCURVE SMOOTH",
"140 230 LINE SMOOTH"
);
}
);
width = 1142;
}
);
note = K;
unicode = 004B;
},
{
glyphname = L;
layers = (
{
layerId = "D08966C8-96EF-481A-BF9E-1465DF9248E1";
paths = (
{
closed = 1;
nodes = (
"178 97 OFFCURVE",
"208 38 OFFCURVE",
"265 8 OFFCURVE",
"347 0 OFFCURVE",
"400 0 QCURVE SMOOTH",
"684 0 LINE SMOOTH",
"725 0 OFFCURVE",
"805 8 OFFCURVE",
"868 38 OFFCURVE",
"906 97 OFFCURVE",
"906 148 QCURVE SMOOTH",
"906 198 OFFCURVE",
"868 256 OFFCURVE",
"805 286 OFFCURVE",
"725 294 OFFCURVE",
"684 294 QCURVE SMOOTH",
"488 294 LINE",
"488 1170 LINE SMOOTH",
"488 1213 OFFCURVE",
"481 1295 OFFCURVE",
"451 1360 OFFCURVE",
"387 1400 OFFCURVE",
"330 1400 QCURVE SMOOTH",
"277 1400 OFFCURVE",
"217 1360 OFFCURVE",
"186 1295 OFFCURVE",
"178 1213 OFFCURVE",
"178 1170 QCURVE SMOOTH",
"178 148 LINE SMOOTH"
);
}
);
width = 968;
}
);
note = L;
unicode = 004C;
},
{
glyphname = M;
layers = (
{
layerId = "D08966C8-96EF-481A-BF9E-1465DF9248E1";
paths = (
{
closed = 1;
nodes = (
"832 324 OFFCURVE",
"872 346 OFFCURVE",
"902 380 OFFCURVE",
"922 422 OFFCURVE",
"930 442 QCURVE SMOOTH",
"1118 990 LINE",
"1146 990 LINE",
"1146 156 LINE SMOOTH",
"1146 124 OFFCURVE",
"1154 68 OFFCURVE",
"1181 25 OFFCURVE",
"1234 0 OFFCURVE",
"1280 0 QCURVE SMOOTH",
"1332 0 OFFCURVE",
"1392 25 OFFCURVE",
"1422 68 OFFCURVE",
"1430 124 OFFCURVE",
"1430 156 QCURVE SMOOTH",
"1430 1172 LINE SMOOTH",
"1430 1215 OFFCURVE",
"1425 1297 OFFCURVE",
"1397 1361 OFFCURVE",
"1336 1400 OFFCURVE",
"1280 1400 QCURVE SMOOTH",
"1134 1400 LINE SMOOTH",
"1101 1400 OFFCURVE",
"1055 1395 OFFCURVE",
"1016 1366 OFFCURVE",
"981 1305 OFFCURVE",
"937 1192 OFFCURVE",
"879 1018 OFFCURVE",
"838 892 QCURVE SMOOTH",
"806 792 LINE",
"782 792 LINE",
"756 872 LINE SMOOTH",
"711 1004 OFFCURVE",
"649 1185 OFFCURVE",
"602 1302 OFFCURVE",
"563 1366 OFFCURVE",
"523 1395 OFFCURVE",
"476 1400 OFFCURVE",
"442 1400 QCURVE SMOOTH",
"306 1400 LINE SMOOTH",
"250 1400 OFFCURVE",
"189 1361 OFFCURVE",
"161 1297 OFFCURVE",
"156 1215 OFFCURVE",
"156 1172 QCURVE SMOOTH",
"156 156 LINE SMOOTH",
"156 124 OFFCURVE",
"164 68 OFFCURVE",
"194 25 OFFCURVE",
"254 0 OFFCURVE",
"306 0 QCURVE SMOOTH",
"352 0 OFFCURVE",
"405 25 OFFCURVE",
"432 68 OFFCURVE",
"440 124 OFFCURVE",
"440 156 QCURVE SMOOTH",
"440 990 LINE",
"466 990 LINE",
"656 442 LINE SMOOTH",
"663 422 OFFCURVE",
"684 380 OFFCURVE",
"714 346 OFFCURVE",
"755 324 OFFCURVE",
"784 324 QCURVE SMOOTH",
"804 324 LINE SMOOTH"
);
}
);
width = 1594;
}
);
note = M;
unicode = 004D;
},
{
glyphname = N;
layers = (
{
layerId = "D08966C8-96EF-481A-BF9E-1465DF9248E1";
paths = (
{
closed = 1;
nodes = (
"585 1311 OFFCURVE",
"563 1338 QCURVE SMOOTH",
"543 1361 OFFCURVE",
"480 1400 OFFCURVE",
"430 1400 QCURVE SMOOTH",
"298 1400 LINE SMOOTH",
"242 1400 OFFCURVE",
"181 1361 OFFCURVE",
"153 1296 OFFCURVE",
"148 1213 OFFCURVE",
"148 1170 QCURVE SMOOTH",
"148 156 LINE SMOOTH",
"148 124 OFFCURVE",
"156 67 OFFCURVE",
"186 25 OFFCURVE",
"246 0 OFFCURVE",
"298 0 QCURVE SMOOTH",
"344 0 OFFCURVE",
"397 25 OFFCURVE",
"424 67 OFFCURVE",
"432 124 OFFCURVE",
"432 156 QCURVE SMOOTH",
"432 986 LINE",
"456 986 LINE",
"758 168 LINE SMOOTH",
"765 148 OFFCURVE",
"790 90 OFFCURVE",
"832 37 OFFCURVE",
"895 0 OFFCURVE",
"942 0 QCURVE SMOOTH",
"1074 0 LINE SMOOTH",
"1129 0 OFFCURVE",
"1190 39 OFFCURVE",
"1217 104 OFFCURVE",
"1222 186 OFFCURVE",
"1222 230 QCURVE SMOOTH",
"1222 1244 LINE SMOOTH",
"1222 1276 OFFCURVE",
"1214 1333 OFFCURVE",
"1184 1375 OFFCURVE",
"1125 1400 OFFCURVE",
"1074 1400 QCURVE SMOOTH",
"1028 1400 OFFCURVE",
"975 1375 OFFCURVE",
"948 1333 OFFCURVE",
"940 1276 OFFCURVE",
"940 1244 QCURVE SMOOTH",
"940 414 LINE",
"916 414 LINE",
"598 1276 LINE SMOOTH"
);
}
);
width = 1360;
}
);
note = N;
unicode = 004E;
},
{
glyphname = O;
layers = (
{
layerId = "D08966C8-96EF-481A-BF9E-1465DF9248E1";
paths = (
{
closed = 1;
nodes = (
"104 307 OFFCURVE",
"160 169 OFFCURVE",
"247 77 OFFCURVE",
"352 24 OFFCURVE",
"451 -2 OFFCURVE",
"531 -8 OFFCURVE",
"550 -8 QCURVE SMOOTH",
"584 -8 LINE SMOOTH",
"603 -8 OFFCURVE",
"683 -2 OFFCURVE",
"781 24 OFFCURVE",
"886 77 OFFCURVE",
"971 169 OFFCURVE",
"1026 307 OFFCURVE",
"1026 406 QCURVE SMOOTH",
"1026 1004 LINE SMOOTH",
"1026 1100 OFFCURVE",
"971 1235 OFFCURVE",
"886 1325 OFFCURVE",
"781 1376 OFFCURVE",
"683 1402 OFFCURVE",
"603 1408 OFFCURVE",
"584 1408 QCURVE SMOOTH",
"550 1408 LINE SMOOTH",
"531 1408 OFFCURVE",
"451 1402 OFFCURVE",
"352 1376 OFFCURVE",
"247 1325 OFFCURVE",
"160 1235 OFFCURVE",
"104 1100 OFFCURVE",
"104 1004 QCURVE SMOOTH",
"104 406 LINE SMOOTH"
);
},
{
closed = 1;
nodes = (
"438 1056 OFFCURVE",
"453 1085 QCURVE SMOOTH",
"466 1109 OFFCURVE",
"519 1150 OFFCURVE",
"568 1150 QCURVE SMOOTH",
"616 1150 OFFCURVE",
"668 1109 OFFCURVE",
"681 1085 QCURVE SMOOTH",
"695 1056 OFFCURVE",
"698 1020 QCURVE",
"698 368 LINE",
"695 331 OFFCURVE",
"681 303 QCURVE SMOOTH",
"668 278 OFFCURVE",
"616 238 OFFCURVE",
"568 238 QCURVE SMOOTH",
"519 238 OFFCURVE",
"466 278 OFFCURVE",
"453 303 QCURVE SMOOTH",
"438 331 OFFCURVE",
"436 368 QCURVE",
"436 1020 LINE"
);
}
);
width = 1128;
}
);
note = O;
unicode = 004F;
},
{
glyphname = P;
layers = (
{
layerId = "D08966C8-96EF-481A-BF9E-1465DF9248E1";
paths = (
{
closed = 1;
nodes = (
"689 552 OFFCURVE",
"872 607 OFFCURVE",
"999 716 OFFCURVE",
"1066 877 OFFCURVE",
"1066 984 QCURVE SMOOTH",
"1066 1062 OFFCURVE",
"1028 1181 OFFCURVE",
"965 1268 OFFCURVE",
"886 1328 OFFCURVE",
"844 1348 QCURVE SMOOTH",
"746 1394 OFFCURVE",
"622 1400 QCURVE",
"292 1400 LINE SMOOTH",
"236 1400 OFFCURVE",
"175 1361 OFFCURVE",
"147 1297 OFFCURVE",
"142 1215 OFFCURVE",
"142 1172 QCURVE SMOOTH",
"142 228 LINE SMOOTH",
"142 185 OFFCURVE",
"147 103 OFFCURVE",
"175 39 OFFCURVE",
"236 0 OFFCURVE",
"292 0 QCURVE SMOOTH",
"350 0 OFFCURVE",
"412 39 OFFCURVE",
"441 103 OFFCURVE",
"446 185 OFFCURVE",
"446 228 QCURVE SMOOTH",
"446 552 LINE",
"574 552 LINE SMOOTH"
);
},
{
closed = 1;
nodes = (
"446 1164 LINE",
"592 1164 LINE",
"639 1160 OFFCURVE",
"677 1141 QCURVE SMOOTH",
"693 1132 OFFCURVE",
"723 1106 OFFCURVE",
"747 1069 OFFCURVE",
"762 1018 OFFCURVE",
"762 984 QCURVE SMOOTH",
"762 948 OFFCURVE",
"747 892 OFFCURVE",
"721 851 OFFCURVE",
"689 823 OFFCURVE",
"672 814 QCURVE SMOOTH",
"632 793 OFFCURVE",
"582 790 QCURVE",
"446 790 LINE"
);
}
);
width = 1082;
}
);
note = P;
unicode = 0050;
},
{
glyphname = Q;
layers = (
{
layerId = "D08966C8-96EF-481A-BF9E-1465DF9248E1";
paths = (
{
closed = 1;
nodes = (
"122 307 OFFCURVE",
"178 169 OFFCURVE",
"265 77 OFFCURVE",
"370 24 OFFCURVE",
"469 -2 OFFCURVE",
"549 -8 OFFCURVE",
"568 -8 QCURVE SMOOTH",
"602 -8 LINE SMOOTH",
"614 -8 OFFCURVE",
"654 -7 OFFCURVE",
"707 -1 OFFCURVE",
"772 13 OFFCURVE",
"810 26 QCURVE",
"922 -80 LINE SMOOTH",
"933 -91 OFFCURVE",
"969 -110 OFFCURVE",
"1004 -110 QCURVE SMOOTH",
"1021 -110 OFFCURVE",
"1060 -98 OFFCURVE",
"1080 -80 QCURVE SMOOTH",
"1100 -60 OFFCURVE",
"1114 -19 OFFCURVE",
"1114 -4 QCURVE SMOOTH",
"1114 31 OFFCURVE",
"1094 62 OFFCURVE",
"1080 76 QCURVE SMOOTH",
"980 166 LINE",
"1009 213 OFFCURVE",
"1044 331 OFFCURVE",
"1044 406 QCURVE SMOOTH",
"1044 1002 LINE SMOOTH",
"1044 1099 OFFCURVE",
"989 1235 OFFCURVE",
"903 1326 OFFCURVE",
"799 1377 OFFCURVE",
"700 1402 OFFCURVE",
"621 1408 OFFCURVE",
"602 1408 QCURVE SMOOTH",
"568 1408 LINE SMOOTH",
"549 1408 OFFCURVE",
"469 1402 OFFCURVE",
"370 1377 OFFCURVE",
"265 1326 OFFCURVE",
"178 1235 OFFCURVE",
"122 1099 OFFCURVE",
"122 1002 QCURVE SMOOTH",
"122 406 LINE SMOOTH"
);
},
{
closed = 1;
nodes = (
"456 1056 OFFCURVE",
"471 1084 QCURVE SMOOTH",
"484 1108 OFFCURVE",
"537 1148 OFFCURVE",
"586 1148 QCURVE SMOOTH",
"634 1148 OFFCURVE",
"686 1108 OFFCURVE",
"699 1084 QCURVE SMOOTH",
"713 1056 OFFCURVE",
"716 1020 QCURVE",
"716 368 LINE",
"713 331 OFFCURVE",
"699 303 QCURVE SMOOTH",
"686 278 OFFCURVE",
"634 238 OFFCURVE",
"586 238 QCURVE SMOOTH",
"537 238 OFFCURVE",
"484 278 OFFCURVE",
"471 303 QCURVE SMOOTH",
"456 331 OFFCURVE",
"454 368 QCURVE",
"454 1020 LINE"
);
}
);
width = 1156;
}
);
note = Q;
unicode = 0051;
},
{
glyphname = R;
layers = (
{
layerId = "D08966C8-96EF-481A-BF9E-1465DF9248E1";
paths = (
{
closed = 1;
nodes = (
"142 188 OFFCURVE",
"147 104 OFFCURVE",
"175 39 OFFCURVE",
"236 0 OFFCURVE",
"292 0 QCURVE SMOOTH",
"349 0 OFFCURVE",
"411 39 OFFCURVE",
"439 104 OFFCURVE",
"444 188 OFFCURVE",
"444 232 QCURVE SMOOTH",
"444 566 LINE",
"556 566 LINE SMOOTH",
"604 566 OFFCURVE",
"664 536 OFFCURVE",
"698 482 OFFCURVE",
"710 408 OFFCURVE",
"710 364 QCURVE SMOOTH",
"710 152 LINE SMOOTH",
"710 113 OFFCURVE",
"745 53 OFFCURVE",
"801 13 OFFCURVE",
"869 -8 OFFCURVE",
"902 -8 QCURVE SMOOTH",
"932 -8 OFFCURVE",
"989 5 OFFCURVE",
"1034 35 OFFCURVE",
"1062 83 OFFCURVE",
"1062 118 QCURVE SMOOTH",
"1062 129 OFFCURVE",
"1054 164 OFFCURVE",
"1030 188 QCURVE SMOOTH",
"1024 194 OFFCURVE",
"1012 210 OFFCURVE",
"1012 222 QCURVE SMOOTH",
"1012 364 LINE SMOOTH",
"1012 429 OFFCURVE",
"975 527 OFFCURVE",
"917 597 OFFCURVE",
"845 642 OFFCURVE",
"810 656 QCURVE",
"865 672 OFFCURVE",
"946 724 OFFCURVE",
"1002 786 OFFCURVE",
"1036 854 OFFCURVE",
"1056 917 OFFCURVE",
"1062 970 OFFCURVE",
"1062 986 QCURVE SMOOTH",
"1062 1064 OFFCURVE",
"1024 1182 OFFCURVE",
"962 1269 OFFCURVE",
"883 1328 OFFCURVE",
"842 1348 QCURVE SMOOTH",
"745 1394 OFFCURVE",
"622 1400 QCURVE",
"292 1400 LINE SMOOTH",
"236 1400 OFFCURVE",
"175 1361 OFFCURVE",
"147 1297 OFFCURVE",
"142 1215 OFFCURVE",
"142 1172 QCURVE SMOOTH",
"142 232 LINE SMOOTH"
);
},
{
closed = 1;
nodes = (
"444 1164 LINE",
"588 1164 LINE",
"636 1161 OFFCURVE",
"674 1142 QCURVE SMOOTH",
"690 1134 OFFCURVE",
"721 1108 OFFCURVE",
"745 1070 OFFCURVE",
"760 1019 OFFCURVE",
"760 986 QCURVE SMOOTH",
"760 949 OFFCURVE",
"745 893 OFFCURVE",
"719 851 OFFCURVE",
"687 823 OFFCURVE",
"670 814 QCURVE SMOOTH",
"630 792 OFFCURVE",
"580 790 QCURVE SMOOTH",
"444 790 LINE"
);
}
);
width = 1142;
}
);
note = R;
unicode = 0052;
},
{
glyphname = S;
layers = (
{
layerId = "D08966C8-96EF-481A-BF9E-1465DF9248E1";
paths = (
{
closed = 1;
nodes = (
"421 1155 OFFCURVE",
"460 1182 OFFCURVE",
"511 1188 OFFCURVE",
"538 1188 QCURVE SMOOTH",
"595 1188 OFFCURVE",
"654 1124 OFFCURVE",
"654 1042 QCURVE SMOOTH",
"654 1022 OFFCURVE",
"678 983 OFFCURVE",
"716 953 OFFCURVE",
"764 934 OFFCURVE",
"788 934 QCURVE SMOOTH",
"819 934 OFFCURVE",
"872 953 OFFCURVE",
"911 987 OFFCURVE",
"934 1036 OFFCURVE",
"934 1066 QCURVE SMOOTH",
"934 1086 OFFCURVE",
"928 1152 OFFCURVE",
"904 1228 OFFCURVE",
"855 1306 OFFCURVE",
"770 1368 OFFCURVE",
"642 1408 OFFCURVE",
"550 1408 QCURVE SMOOTH",
"524 1408 LINE SMOOTH",
"423 1408 OFFCURVE",
"267 1373 OFFCURVE",
"160 1289 OFFCURVE",
"105 1147 OFFCURVE",
"104 1040 QCURVE SMOOTH",
"104 1024 LINE SMOOTH",
"105 959 OFFCURVE",
"152 857 OFFCURVE",
"230 773 OFFCURVE",
"327 702 OFFCURVE",
"429 637 OFFCURVE",
"527 572 OFFCURVE",
"603 500 OFFCURVE",
"650 416 OFFCURVE",
"650 364 QCURVE SMOOTH",
"650 322 OFFCURVE",
"629 267 OFFCURVE",
"593 234 OFFCURVE",
"542 221 OFFCURVE",
"512 220 QCURVE SMOOTH",
"452 220 OFFCURVE",
"388 275 OFFCURVE",
"386 350 QCURVE SMOOTH",
"385 384 OFFCURVE",
"356 435 OFFCURVE",
"311 468 OFFCURVE",
"256 484 OFFCURVE",
"230 484 QCURVE SMOOTH",
"202 484 OFFCURVE",
"151 468 OFFCURVE",
"112 435 OFFCURVE",
"88 383 OFFCURVE",
"88 348 QCURVE SMOOTH",
"88 314 OFFCURVE",
"104 236 OFFCURVE",
"140 157 OFFCURVE",
"201 83 OFFCURVE",
"293 26 OFFCURVE",
"421 -8 OFFCURVE",
"506 -8 QCURVE SMOOTH",
"516 -8 LINE SMOOTH",
"560 -7 OFFCURVE",
"659 7 OFFCURVE",
"756 41 OFFCURVE",
"844 98 OFFCURVE",
"910 186 OFFCURVE",
"950 308 OFFCURVE",
"950 390 QCURVE SMOOTH",
"950 398 LINE SMOOTH",
"948 473 OFFCURVE",
"900 591 OFFCURVE",
"822 685 OFFCURVE",
"724 759 OFFCURVE",
"621 822 OFFCURVE",
"523 879 OFFCURVE",
"446 939 OFFCURVE",
"399 1006 OFFCURVE",
"398 1048 QCURVE SMOOTH",
"398 1099 OFFCURVE"
);
}
);
width = 1014;
}
);
note = S;
unicode = 0053;
},
{
glyphname = T;
layers = (
{
layerId = "D08966C8-96EF-481A-BF9E-1465DF9248E1";
paths = (
{
closed = 1;
nodes = (
"198 1400 OFFCURVE",
"117 1394 OFFCURVE",
"51 1366 OFFCURVE",
"10 1309 OFFCURVE",
"10 1258 QCURVE SMOOTH",
"10 1208 OFFCURVE",
"51 1151 OFFCURVE",
"117 1123 OFFCURVE",
"198 1116 OFFCURVE",
"238 1116 QCURVE SMOOTH",
"340 1116 LINE",
"340 228 LINE SMOOTH",
"340 185 OFFCURVE",
"345 103 OFFCURVE",
"373 39 OFFCURVE",
"435 0 OFFCURVE",
"492 0 QCURVE SMOOTH",
"549 0 OFFCURVE",
"611 39 OFFCURVE",
"639 103 OFFCURVE",
"644 185 OFFCURVE",
"644 228 QCURVE SMOOTH",
"644 1116 LINE",
"746 1116 LINE SMOOTH",
"786 1116 OFFCURVE",
"867 1123 OFFCURVE",
"933 1151 OFFCURVE",
"974 1208 OFFCURVE",
"974 1258 QCURVE SMOOTH",
"974 1309 OFFCURVE",
"933 1366 OFFCURVE",
"867 1394 OFFCURVE",
"786 1400 OFFCURVE",
"746 1400 QCURVE SMOOTH",
"238 1400 LINE SMOOTH"
);
}
);
width = 982;
}
);
note = T;
unicode = 0054;
},
{
glyphname = U;
layers = (
{
layerId = "D08966C8-96EF-481A-BF9E-1465DF9248E1";
paths = (
{
closed = 1;
nodes = (
"142 309 OFFCURVE",
"209 153 OFFCURVE",
"332 47 OFFCURVE",
"502 -8 OFFCURVE",
"606 -8 QCURVE SMOOTH",
"709 -8 OFFCURVE",
"880 45 OFFCURVE",
"1003 150 OFFCURVE",
"1070 306 OFFCURVE",
"1070 410 QCURVE SMOOTH",
"1070 1172 LINE SMOOTH",
"1070 1215 OFFCURVE",
"1061 1297 OFFCURVE",
"1028 1361 OFFCURVE",
"962 1400 OFFCURVE",
"904 1400 QCURVE SMOOTH",
"845 1400 OFFCURVE",
"779 1361 OFFCURVE",
"746 1297 OFFCURVE",
"738 1215 OFFCURVE",
"738 1172 QCURVE SMOOTH",
"738 384 LINE",
"736 340 OFFCURVE",
"721 306 QCURVE SMOOTH",
"715 291 OFFCURVE",
"695 263 OFFCURVE",
"668 241 OFFCURVE",
"630 228 OFFCURVE",
"606 228 QCURVE SMOOTH",
"582 228 OFFCURVE",
"545 241 OFFCURVE",
"518 263 OFFCURVE",
"498 291 OFFCURVE",
"492 306 QCURVE SMOOTH",
"477 340 OFFCURVE",
"474 384 QCURVE",
"474 1172 LINE SMOOTH",
"474 1215 OFFCURVE",
"466 1297 OFFCURVE",
"433 1361 OFFCURVE",
"366 1400 OFFCURVE",
"308 1400 QCURVE SMOOTH",
"250 1400 OFFCURVE",
"184 1361 OFFCURVE",
"151 1297 OFFCURVE",
"142 1215 OFFCURVE",
"142 1172 QCURVE SMOOTH",
"142 410 LINE SMOOTH"
);
}
);
width = 1208;
}
);
note = U;
unicode = 0055;
},
{
glyphname = V;
layers = (
{
layerId = "D08966C8-96EF-481A-BF9E-1465DF9248E1";
paths = (
{
closed = 1;
nodes = (
"738 1358 OFFCURVE",
"721 1332 QCURVE SMOOTH",
"702 1302 OFFCURVE",
"692 1264 QCURVE SMOOTH",
"682 1216 OFFCURVE",
"656 1095 OFFCURVE",
"628 965 OFFCURVE",
"599 830 OFFCURVE",
"586 767 QCURVE SMOOTH",
"554 619 OFFCURVE",
"520 464 QCURVE",
"488 464 LINE",
"457 619 OFFCURVE",
"426 767 QCURVE SMOOTH",
"413 830 OFFCURVE",
"384 965 OFFCURVE",
"356 1095 OFFCURVE",
"328 1216 OFFCURVE",
"316 1264 QCURVE SMOOTH",
"307 1302 OFFCURVE",
"288 1332 QCURVE SMOOTH",
"271 1358 OFFCURVE",
"212 1400 OFFCURVE",
"164 1400 QCURVE SMOOTH",
"133 1400 OFFCURVE",
"79 1380 OFFCURVE",
"39 1346 OFFCURVE",
"16 1299 OFFCURVE",
"16 1272 QCURVE SMOOTH",
"16 1247 OFFCURVE",
"21 1227 QCURVE SMOOTH",
"23 1216 OFFCURVE",
"26 1208 QCURVE",
"310 120 LINE",
"324 86 OFFCURVE",
"349 60 QCURVE SMOOTH",
"370 37 OFFCURVE",
"438 0 OFFCURVE",
"488 0 QCURVE SMOOTH",
"520 0 LINE SMOOTH",
"570 0 OFFCURVE",
"637 37 OFFCURVE",
"658 60 QCURVE SMOOTH",
"683 86 OFFCURVE",
"698 120 QCURVE",
"766 386 OFFCURVE",
"914 941 OFFCURVE",
"982 1208 QCURVE SMOOTH",
"984 1216 OFFCURVE",
"987 1227 QCURVE SMOOTH",
"989 1236 OFFCURVE",
"992 1259 OFFCURVE",
"992 1272 QCURVE SMOOTH",
"992 1299 OFFCURVE",
"968 1346 OFFCURVE",
"927 1380 OFFCURVE",
"873 1400 OFFCURVE",
"844 1400 QCURVE SMOOTH",
"796 1400 OFFCURVE"
);
}
);
width = 1000;
}
);
note = V;
unicode = 0056;
},
{
glyphname = W;
layers = (
{
layerId = "D08966C8-96EF-481A-BF9E-1465DF9248E1";
paths = (
{
closed = 1;
nodes = (
"706 1319 OFFCURVE",
"692 1262 QCURVE SMOOTH",
"671 1169 OFFCURVE",
"626 966 OFFCURVE",
"581 759 OFFCURVE",
"537 556 OFFCURVE",
"518 464 QCURVE",
"484 464 LINE",
"310 1262 LINE SMOOTH",
"301 1300 OFFCURVE",
"283 1331 QCURVE SMOOTH",
"267 1357 OFFCURVE",
"210 1400 OFFCURVE",
"164 1400 QCURVE SMOOTH",
"129 1400 OFFCURVE",
"76 1375 OFFCURVE",
"41 1336 OFFCURVE",
"24 1290 OFFCURVE",
"24 1268 QCURVE SMOOTH",
"24 1256 OFFCURVE",
"26 1234 OFFCURVE",
"28 1226 QCURVE SMOOTH",
"30 1216 OFFCURVE",
"32 1208 QCURVE SMOOTH",
"302 120 LINE",
"317 86 OFFCURVE",
"343 60 QCURVE SMOOTH",
"365 37 OFFCURVE",
"434 0 OFFCURVE",
"484 0 QCURVE SMOOTH",
"518 0 LINE SMOOTH",
"568 0 OFFCURVE",
"631 37 OFFCURVE",
"651 60 QCURVE SMOOTH",
"673 86 OFFCURVE",
"686 120 QCURVE",
"719 262 OFFCURVE",
"792 564 OFFCURVE",
"824 706 QCURVE",
"858 706 LINE",
"998 120 LINE",
"1009 86 OFFCURVE",
"1031 60 QCURVE SMOOTH",
"1050 37 OFFCURVE",
"1114 0 OFFCURVE",
"1164 0 QCURVE SMOOTH",
"1198 0 LINE SMOOTH",
"1248 0 OFFCURVE",
"1315 37 OFFCURVE",
"1336 60 QCURVE SMOOTH",
"1361 86 OFFCURVE",
"1376 120 QCURVE",
"1650 1208 LINE SMOOTH",
"1652 1216 OFFCURVE",
"1654 1226 QCURVE SMOOTH",
"1656 1234 OFFCURVE",
"1658 1256 OFFCURVE",
"1658 1268 QCURVE SMOOTH",
"1658 1290 OFFCURVE",
"1641 1336 OFFCURVE",
"1606 1375 OFFCURVE",
"1553 1400 OFFCURVE",
"1518 1400 QCURVE SMOOTH",
"1472 1400 OFFCURVE",
"1415 1357 OFFCURVE",
"1399 1331 QCURVE SMOOTH",
"1381 1300 OFFCURVE",
"1372 1262 QCURVE SMOOTH",
"1328 1066 OFFCURVE",
"1240 659 OFFCURVE",
"1198 464 QCURVE",
"1164 464 LINE",
"992 1262 LINE SMOOTH",
"986 1290 OFFCURVE",
"958 1339 OFFCURVE",
"919 1374 OFFCURVE",
"870 1394 OFFCURVE",
"842 1394 QCURVE SMOOTH",
"786 1394 OFFCURVE"
);
}
);
width = 1666;
}
);
note = W;
unicode = 0057;
},
{
glyphname = X;
layers = (
{
layerId = "D08966C8-96EF-481A-BF9E-1465DF9248E1";
paths = (
{
closed = 1;
nodes = (
"108 258 LINE SMOOTH",
"87 225 OFFCURVE",
"56 160 OFFCURVE",
"56 128 QCURVE SMOOTH",
"56 101 OFFCURVE",
"87 48 OFFCURVE",
"128 24 QCURVE SMOOTH",
"170 0 OFFCURVE",
"208 0 QCURVE SMOOTH",
"233 0 OFFCURVE",
"275 21 OFFCURVE",
"310 55 OFFCURVE",
"341 99 OFFCURVE",
"356 122 QCURVE SMOOTH",
"558 450 LINE",
"588 450 LINE",
"790 122 LINE SMOOTH",
"805 99 OFFCURVE",
"836 55 OFFCURVE",
"872 21 OFFCURVE",
"914 0 OFFCURVE",
"940 0 QCURVE SMOOTH",
"977 0 OFFCURVE",
"1022 24 QCURVE SMOOTH",
"1061 48 OFFCURVE",
"1090 101 OFFCURVE",
"1090 128 QCURVE SMOOTH",
"1090 160 OFFCURVE",
"1059 225 OFFCURVE",
"1038 258 QCURVE SMOOTH",
"760 696 LINE",
"760 714 LINE",
"1010 1096 LINE",
"1034 1129 OFFCURVE",
"1052 1162 QCURVE SMOOTH",
"1068 1190 OFFCURVE",
"1094 1250 OFFCURVE",
"1094 1272 QCURVE SMOOTH",
"1094 1298 OFFCURVE",
"1062 1351 OFFCURVE",
"1020 1374 QCURVE SMOOTH",
"997 1386 OFFCURVE",
"956 1400 OFFCURVE",
"938 1400 QCURVE SMOOTH",
"909 1400 OFFCURVE",
"863 1375 OFFCURVE",
"824 1334 OFFCURVE",
"790 1282 OFFCURVE",
"774 1256 QCURVE SMOOTH",
"588 950 LINE",
"558 950 LINE",
"372 1256 LINE SMOOTH",
"356 1282 OFFCURVE",
"322 1334 OFFCURVE",
"283 1375 OFFCURVE",
"236 1400 OFFCURVE",
"208 1400 QCURVE SMOOTH",
"171 1400 OFFCURVE",
"126 1376 QCURVE SMOOTH",
"87 1353 OFFCURVE",
"56 1297 OFFCURVE",
"56 1270 QCURVE SMOOTH",
"56 1249 OFFCURVE",
"81 1189 OFFCURVE",
"96 1162 QCURVE SMOOTH",
"114 1129 OFFCURVE",
"136 1096 QCURVE SMOOTH",
"388 714 LINE",
"388 696 LINE"
);
}
);
width = 1146;
}
);
note = X;
unicode = 0058;
},
{
glyphname = Y;
layers = (
{
layerId = "D08966C8-96EF-481A-BF9E-1465DF9248E1";
paths = (
{
closed = 1;
nodes = (
"954 1106 LINE SMOOTH",
"990 1171 OFFCURVE",
"1022 1252 OFFCURVE",
"1022 1270 QCURVE SMOOTH",
"1022 1297 OFFCURVE",
"989 1352 OFFCURVE",
"950 1376 QCURVE SMOOTH",
"927 1388 OFFCURVE",
"887 1400 OFFCURVE",
"866 1400 QCURVE SMOOTH",
"836 1400 OFFCURVE",
"787 1373 OFFCURVE",
"747 1329 OFFCURVE",
"715 1274 OFFCURVE",
"702 1246 QCURVE SMOOTH",
"520 864 LINE",
"488 864 LINE",
"306 1246 LINE SMOOTH",
"293 1274 OFFCURVE",
"261 1329 OFFCURVE",
"221 1373 OFFCURVE",
"172 1400 OFFCURVE",
"142 1400 QCURVE SMOOTH",
"103 1400 OFFCURVE",
"58 1376 QCURVE SMOOTH",
"17 1352 OFFCURVE",
"-14 1297 OFFCURVE",
"-14 1270 QCURVE SMOOTH",
"-14 1229 OFFCURVE",
"30 1148 OFFCURVE",
"54 1106 QCURVE SMOOTH",
"352 574 LINE",
"352 226 LINE SMOOTH",
"352 184 OFFCURVE",
"360 103 OFFCURVE",
"391 39 OFFCURVE",
"451 0 OFFCURVE",
"504 0 QCURVE SMOOTH",
"556 0 OFFCURVE",
"616 39 OFFCURVE",
"646 103 OFFCURVE",
"654 184 OFFCURVE",
"654 226 QCURVE SMOOTH",
"654 574 LINE"
);
}
);
width = 1000;
}
);
note = Y;
unicode = 0059;
},
{
glyphname = Z;
layers = (
{
layerId = "D08966C8-96EF-481A-BF9E-1465DF9248E1";
paths = (
{
closed = 1;
nodes = (
"75 189 OFFCURVE",
"70 162 OFFCURVE",
"70 144 QCURVE SMOOTH",
"70 117 OFFCURVE",
"92 65 OFFCURVE",
"133 25 OFFCURVE",
"192 0 OFFCURVE",
"230 0 QCURVE SMOOTH",
"756 0 LINE SMOOTH",
"795 0 OFFCURVE",
"875 8 OFFCURVE",
"941 37 OFFCURVE",
"982 94 OFFCURVE",
"982 144 QCURVE SMOOTH",
"982 193 OFFCURVE",
"941 249 OFFCURVE",
"875 278 OFFCURVE",
"795 286 OFFCURVE",
"756 286 QCURVE SMOOTH",
"468 286 LINE",
"454 300 LINE",
"968 1194 LINE SMOOTH",
"974 1205 OFFCURVE",
"980 1233 OFFCURVE",
"980 1248 QCURVE SMOOTH",
"980 1275 OFFCURVE",
"959 1329 OFFCURVE",
"919 1373 OFFCURVE",
"860 1400 OFFCURVE",
"822 1400 QCURVE SMOOTH",
"296 1400 LINE SMOOTH",
"256 1400 OFFCURVE",
"176 1392 OFFCURVE",
"111 1361 OFFCURVE",
"70 1300 OFFCURVE",
"70 1248 QCURVE SMOOTH",
"70 1202 OFFCURVE",
"111 1149 OFFCURVE",
"176 1122 OFFCURVE",
"256 1114 OFFCURVE",
"296 1114 QCURVE SMOOTH",
"584 1114 LINE",
"600 1098 LINE",
"84 204 LINE SMOOTH"
);
}
);
width = 1042;
}
);
note = Z;
unicode = 005A;
},
{
glyphname = bracketleft;
layers = (
{
layerId = "D08966C8-96EF-481A-BF9E-1465DF9248E1";
paths = (
{
closed = 1;
nodes = (
"484 1160 LINE",
"592 1160 LINE SMOOTH",
"620 1160 OFFCURVE",
"672 1166 OFFCURVE",
"712 1190 OFFCURVE",
"736 1240 OFFCURVE",
"736 1284 QCURVE SMOOTH",
"736 1324 OFFCURVE",
"712 1372 OFFCURVE",
"672 1397 OFFCURVE",
"620 1404 OFFCURVE",
"592 1404 QCURVE SMOOTH",
"386 1404 LINE SMOOTH",
"305 1404 OFFCURVE",
"240 1327 OFFCURVE",
"240 1256 QCURVE SMOOTH",
"240 146 LINE SMOOTH",
"240 103 OFFCURVE",
"262 48 OFFCURVE",
"301 15 OFFCURVE",
"353 2 OFFCURVE",
"384 2 QCURVE SMOOTH",
"590 2 LINE SMOOTH",
"618 2 OFFCURVE",
"670 8 OFFCURVE",
"710 32 OFFCURVE",
"734 82 OFFCURVE",
"734 126 QCURVE SMOOTH",
"734 166 OFFCURVE",
"710 214 OFFCURVE",
"670 239 OFFCURVE",
"618 246 OFFCURVE",
"590 246 QCURVE SMOOTH",
"484 246 LINE"
);
}
);
width = 836;
}
);
note = bracketleft;
unicode = 005B;
},
{
glyphname = backslash;
layers = (
{
layerId = "D08966C8-96EF-481A-BF9E-1465DF9248E1";
paths = (
{
closed = 1;
nodes = (
"166 1402 OFFCURVE",
"146 1394 QCURVE SMOOTH",
"107 1377 OFFCURVE",
"73 1334 OFFCURVE",
"70 1310 QCURVE",
"70 1280 OFFCURVE",
"83 1234 OFFCURVE",
"92 1214 QCURVE SMOOTH",
"578 74 LINE SMOOTH",
"585 57 OFFCURVE",
"605 22 OFFCURVE",
"632 -7 OFFCURVE",
"667 -26 OFFCURVE",
"690 -26 QCURVE SMOOTH",
"715 -26 OFFCURVE",
"746 -12 QCURVE SMOOTH",
"787 6 OFFCURVE",
"823 50 OFFCURVE",
"826 74 QCURVE",
"826 103 OFFCURVE",
"813 145 OFFCURVE",
"804 168 QCURVE SMOOTH",
"316 1310 LINE SMOOTH",
"309 1326 OFFCURVE",
"293 1360 OFFCURVE",
"271 1387 OFFCURVE",
"241 1406 OFFCURVE",
"222 1408 QCURVE SMOOTH",
"201 1408 OFFCURVE"
);
}
);
width = 906;
}
);
note = backslash;
unicode = 005C;
},
{
glyphname = bracketright;
layers = (
{
layerId = "D08966C8-96EF-481A-BF9E-1465DF9248E1";
paths = (
{
closed = 1;
nodes = (
"258 246 OFFCURVE",
"206 239 OFFCURVE",
"166 214 OFFCURVE",
"142 166 OFFCURVE",
"142 126 QCURVE SMOOTH",
"142 82 OFFCURVE",
"166 32 OFFCURVE",
"206 8 OFFCURVE",
"258 2 OFFCURVE",
"286 2 QCURVE SMOOTH",
"492 2 LINE SMOOTH",
"523 2 OFFCURVE",
"575 15 OFFCURVE",
"614 48 OFFCURVE",
"636 103 OFFCURVE",
"636 146 QCURVE SMOOTH",
"636 1256 LINE SMOOTH",
"636 1327 OFFCURVE",
"571 1404 OFFCURVE",
"490 1404 QCURVE SMOOTH",
"284 1404 LINE SMOOTH",
"256 1404 OFFCURVE",
"204 1397 OFFCURVE",
"164 1372 OFFCURVE",
"140 1324 OFFCURVE",
"140 1284 QCURVE SMOOTH",
"140 1240 OFFCURVE",
"164 1190 OFFCURVE",
"204 1166 OFFCURVE",
"256 1160 OFFCURVE",
"284 1160 QCURVE SMOOTH",
"392 1160 LINE",
"392 246 LINE",
"286 246 LINE SMOOTH"
);
}
);
width = 836;
}
);
note = bracketright;
unicode = 005D;
},
{
glyphname = asciicircum;
layers = (
{
layerId = "D08966C8-96EF-481A-BF9E-1465DF9248E1";
paths = (
{
closed = 1;
nodes = (
"533 1153 OFFCURVE",
"488 1156 QCURVE SMOOTH",
"468 1156 LINE SMOOTH",
"444 1154 OFFCURVE",
"407 1137 OFFCURVE",
"392 1122 QCURVE SMOOTH",
"202 942 LINE SMOOTH",
"191 931 OFFCURVE",
"174 894 OFFCURVE",
"174 870 QCURVE SMOOTH",
"174 844 OFFCURVE",
"197 806 OFFCURVE",
"212 792 QCURVE SMOOTH",
"230 775 OFFCURVE",
"264 762 OFFCURVE",
"282 762 QCURVE SMOOTH",
"306 762 OFFCURVE",
"354 777 OFFCURVE",
"368 794 QCURVE",
"478 898 LINE",
"588 794 LINE",
"602 777 OFFCURVE",
"650 762 OFFCURVE",
"674 762 QCURVE SMOOTH",
"692 762 OFFCURVE",
"726 775 OFFCURVE",
"744 792 QCURVE SMOOTH",
"759 806 OFFCURVE",
"782 844 OFFCURVE",
"782 870 QCURVE SMOOTH",
"782 894 OFFCURVE",
"765 931 OFFCURVE",
"754 942 QCURVE SMOOTH",
"564 1122 LINE SMOOTH"
);
}
);
width = 976;
}
);
note = asciicircum;
unicode = 005E;
},
{
glyphname = underscore;
layers = (
{
layerId = "D08966C8-96EF-481A-BF9E-1465DF9248E1";
paths = (
{
closed = 1;
nodes = (
"1110 2 LINE SMOOTH",
"1135 2 OFFCURVE",
"1187 9 OFFCURVE",
"1228 34 OFFCURVE",
"1254 81 OFFCURVE",
"1254 122 QCURVE SMOOTH",
"1254 166 OFFCURVE",
"1228 216 OFFCURVE",
"1187 240 OFFCURVE",
"1135 246 OFFCURVE",
"1110 246 QCURVE SMOOTH",
"290 246 LINE SMOOTH",
"262 246 OFFCURVE",
"210 240 OFFCURVE",
"170 216 OFFCURVE",
"146 166 OFFCURVE",
"146 122 QCURVE SMOOTH",
"146 81 OFFCURVE",
"170 34 OFFCURVE",
"210 9 OFFCURVE",
"262 2 OFFCURVE",
"290 2 QCURVE SMOOTH",
"346 2 LINE"
);
}
);
width = 1408;
}
);
note = underscore;
unicode = 005F;
},
{
glyphname = grave;
layers = (
{
layerId = "D08966C8-96EF-481A-BF9E-1465DF9248E1";
paths = (
{
closed = 1;
nodes = (
"283 1452 OFFCURVE",
"254 1452 QCURVE SMOOTH",
"228 1452 OFFCURVE",
"174 1435 OFFCURVE",
"154 1406 QCURVE SMOOTH",
"142 1388 OFFCURVE",
"132 1352 OFFCURVE",
"132 1338 QCURVE SMOOTH",
"132 1311 OFFCURVE",
"162 1266 OFFCURVE",
"182 1252 QCURVE",
"402 1118 LINE SMOOTH",
"416 1109 OFFCURVE",
"447 1102 OFFCURVE",
"462 1102 QCURVE SMOOTH",
"489 1102 OFFCURVE",
"536 1119 OFFCURVE",
"556 1148 QCURVE SMOOTH",
"568 1165 OFFCURVE",
"578 1198 OFFCURVE",
"578 1212 QCURVE SMOOTH",
"578 1242 OFFCURVE",
"548 1289 OFFCURVE",
"534 1298 QCURVE SMOOTH",
"310 1434 LINE SMOOTH"
);
}
);
width = 698;
}
);
note = grave;
unicode = 0060;
},
{
glyphname = a;
layers = (
{
layerId = "D08966C8-96EF-481A-BF9E-1465DF9248E1";
paths = (
{
closed = 1;
nodes = (
"912 815 OFFCURVE",
"903 898 OFFCURVE",
"872 961 OFFCURVE",
"812 1000 OFFCURVE",
"762 1000 QCURVE SMOOTH",
"735 1000 OFFCURVE",
"680 985 OFFCURVE",
"636 946 OFFCURVE",
"608 880 OFFCURVE",
"608 830 QCURVE",
"599 860 OFFCURVE",
"566 920 OFFCURVE",
"514 968 OFFCURVE",
"441 998 OFFCURVE",
"392 998 QCURVE SMOOTH",
"337 998 OFFCURVE",
"227 962 OFFCURVE",
"139 879 OFFCURVE",
"84 744 OFFCURVE",
"84 644 QCURVE SMOOTH",
"84 354 LINE SMOOTH",
"84 255 OFFCURVE",
"139 120 OFFCURVE",
"227 36 OFFCURVE",
"337 0 OFFCURVE",
"392 0 QCURVE SMOOTH",
"441 0 OFFCURVE",
"514 31 OFFCURVE",
"566 79 OFFCURVE",
"599 139 OFFCURVE",
"608 168 QCURVE",
"608 148 OFFCURVE",
"615 90 OFFCURVE",
"645 37 OFFCURVE",
"707 0 OFFCURVE",
"762 0 QCURVE SMOOTH",
"816 0 OFFCURVE",
"876 39 OFFCURVE",
"906 103 OFFCURVE",
"912 184 OFFCURVE",
"912 226 QCURVE SMOOTH",
"912 772 LINE SMOOTH"
);
},
{
closed = 1;
nodes = (
"392 648 OFFCURVE",
"396 699 OFFCURVE",
"414 739 OFFCURVE",
"449 764 OFFCURVE",
"480 764 QCURVE SMOOTH",
"519 764 OFFCURVE",
"569 714 OFFCURVE",
"597 642 OFFCURVE",
"608 561 OFFCURVE",
"608 530 QCURVE SMOOTH",
"607 453 OFFCURVE",
"596 342 OFFCURVE",
"568 269 OFFCURVE",
"519 234 OFFCURVE",
"480 234 QCURVE SMOOTH",
"449 234 OFFCURVE",
"414 259 OFFCURVE",
"396 301 OFFCURVE",
"392 353 OFFCURVE",
"392 380 QCURVE SMOOTH",
"392 622 LINE SMOOTH"
);
}
);
width = 1020;
}
);
note = a;
unicode = 0061;
},
{
glyphname = b;
layers = (
{
layerId = "D08966C8-96EF-481A-BF9E-1465DF9248E1";
paths = (
{
closed = 1;
nodes = (
"120 184 OFFCURVE",
"126 103 OFFCURVE",
"156 39 OFFCURVE",
"216 0 OFFCURVE",
"270 0 QCURVE SMOOTH",
"325 0 OFFCURVE",
"387 37 OFFCURVE",
"417 90 OFFCURVE",
"424 148 OFFCURVE",
"424 168 QCURVE",
"433 139 OFFCURVE",
"466 79 OFFCURVE",
"518 31 OFFCURVE",
"591 0 OFFCURVE",
"640 0 QCURVE SMOOTH",
"695 0 OFFCURVE",
"805 36 OFFCURVE",
"893 120 OFFCURVE",
"948 255 OFFCURVE",
"948 354 QCURVE SMOOTH",
"948 644 LINE SMOOTH",
"948 744 OFFCURVE",
"893 879 OFFCURVE",
"805 962 OFFCURVE",
"695 998 OFFCURVE",
"640 998 QCURVE SMOOTH",
"591 998 OFFCURVE",
"518 968 OFFCURVE",
"466 920 OFFCURVE",
"433 860 OFFCURVE",
"424 830 QCURVE",
"424 1172 LINE SMOOTH",
"424 1215 OFFCURVE",
"415 1298 OFFCURVE",
"384 1361 OFFCURVE",
"322 1400 OFFCURVE",
"270 1400 QCURVE SMOOTH",
"220 1400 OFFCURVE",
"160 1361 OFFCURVE",
"129 1298 OFFCURVE",
"120 1215 OFFCURVE",
"120 1172 QCURVE SMOOTH",
"120 226 LINE SMOOTH"
);
},
{
closed = 1;
nodes = (
"640 353 OFFCURVE",
"636 301 OFFCURVE",
"618 259 OFFCURVE",
"583 234 OFFCURVE",
"552 234 QCURVE SMOOTH",
"513 234 OFFCURVE",
"464 269 OFFCURVE",
"436 342 OFFCURVE",
"425 453 OFFCURVE",
"424 530 QCURVE SMOOTH",
"424 561 OFFCURVE",
"435 642 OFFCURVE",
"463 714 OFFCURVE",
"513 764 OFFCURVE",
"552 764 QCURVE SMOOTH",
"583 764 OFFCURVE",
"618 739 OFFCURVE",
"636 699 OFFCURVE",
"640 648 OFFCURVE",
"640 622 QCURVE SMOOTH",
"640 380 LINE SMOOTH"
);
}
);
width = 1042;
}
);
note = b;
unicode = 0062;
},
{
glyphname = c;
layers = (
{
layerId = "D08966C8-96EF-481A-BF9E-1465DF9248E1";
paths = (
{
closed = 1;
nodes = (
"388 672 OFFCURVE",
"394 712 OFFCURVE",
"416 748 OFFCURVE",
"459 772 OFFCURVE",
"496 772 QCURVE SMOOTH",
"540 772 OFFCURVE",
"589 751 OFFCURVE",
"613 717 OFFCURVE",
"618 672 OFFCURVE",
"618 648 QCURVE SMOOTH",
"618 613 OFFCURVE",
"656 575 OFFCURVE",
"710 557 OFFCURVE",
"767 554 OFFCURVE",
"786 554 QCURVE SMOOTH",
"839 554 OFFCURVE",
"897 582 OFFCURVE",
"924 621 OFFCURVE",
"928 664 OFFCURVE",
"928 680 QCURVE SMOOTH",
"928 711 OFFCURVE",
"913 783 OFFCURVE",
"877 855 OFFCURVE",
"814 920 OFFCURVE",
"718 970 OFFCURVE",
"585 1000 OFFCURVE",
"496 1000 QCURVE SMOOTH",
"466 1000 OFFCURVE",
"383 994 OFFCURVE",
"291 970 OFFCURVE",
"201 921 OFFCURVE",
"129 833 OFFCURVE",
"84 701 OFFCURVE",
"84 606 QCURVE SMOOTH",
"84 372 LINE SMOOTH",
"84 273 OFFCURVE",
"154 132 OFFCURVE",
"269 42 OFFCURVE",
"417 0 OFFCURVE",
"496 0 QCURVE SMOOTH",
"542 0 OFFCURVE",
"642 12 OFFCURVE",
"739 40 OFFCURVE",
"825 88 OFFCURVE",
"891 159 OFFCURVE",
"930 256 OFFCURVE",
"930 320 QCURVE SMOOTH",
"930 330 OFFCURVE",
"926 365 OFFCURVE",
"899 398 OFFCURVE",
"841 422 OFFCURVE",
"788 422 QCURVE SMOOTH",
"730 422 OFFCURVE",
"663 403 OFFCURVE",
"629 374 OFFCURVE",
"620 341 OFFCURVE",
"620 328 QCURVE SMOOTH",
"620 302 OFFCURVE",
"614 255 OFFCURVE",
"590 220 OFFCURVE",
"540 200 OFFCURVE",
"496 200 QCURVE SMOOTH",
"459 200 OFFCURVE",
"416 234 OFFCURVE",
"394 281 OFFCURVE",
"388 330 OFFCURVE",
"388 346 QCURVE SMOOTH",
"388 656 LINE SMOOTH"
);
}
);
width = 1000;
}
);
note = c;
unicode = 0063;
},
{
glyphname = d;
layers = (
{
layerId = "D08966C8-96EF-481A-BF9E-1465DF9248E1";
paths = (
{
closed = 1;
nodes = (
"910 1215 OFFCURVE",
"901 1298 OFFCURVE",
"870 1361 OFFCURVE",
"810 1400 OFFCURVE",
"760 1400 QCURVE SMOOTH",
"707 1400 OFFCURVE",
"646 1361 OFFCURVE",
"615 1298 OFFCURVE",
"606 1215 OFFCURVE",
"606 1172 QCURVE SMOOTH",
"606 830 LINE",
"597 860 OFFCURVE",
"564 920 OFFCURVE",
"512 968 OFFCURVE",
"439 998 OFFCURVE",
"390 998 QCURVE SMOOTH",
"335 998 OFFCURVE",
"225 962 OFFCURVE",
"137 879 OFFCURVE",
"82 744 OFFCURVE",
"82 644 QCURVE SMOOTH",
"82 354 LINE SMOOTH",
"82 255 OFFCURVE",
"137 120 OFFCURVE",
"225 36 OFFCURVE",
"335 0 OFFCURVE",
"390 0 QCURVE SMOOTH",
"439 0 OFFCURVE",
"512 31 OFFCURVE",
"564 79 OFFCURVE",
"597 139 OFFCURVE",
"606 168 QCURVE",
"606 148 OFFCURVE",
"613 90 OFFCURVE",
"643 37 OFFCURVE",
"705 0 OFFCURVE",
"760 0 QCURVE SMOOTH",
"814 0 OFFCURVE",
"874 39 OFFCURVE",
"904 103 OFFCURVE",
"910 184 OFFCURVE",
"910 226 QCURVE SMOOTH",
"910 1172 LINE SMOOTH"
);
},
{
closed = 1;
nodes = (
"390 648 OFFCURVE",
"394 699 OFFCURVE",
"412 739 OFFCURVE",
"447 764 OFFCURVE",
"478 764 QCURVE SMOOTH",
"517 764 OFFCURVE",
"567 714 OFFCURVE",
"595 642 OFFCURVE",
"606 561 OFFCURVE",
"606 530 QCURVE SMOOTH",
"605 453 OFFCURVE",
"594 342 OFFCURVE",
"566 269 OFFCURVE",
"517 234 OFFCURVE",
"478 234 QCURVE SMOOTH",
"447 234 OFFCURVE",
"412 259 OFFCURVE",
"394 301 OFFCURVE",
"390 353 OFFCURVE",
"390 380 QCURVE SMOOTH",
"390 622 LINE SMOOTH"
);
}
);
width = 1020;
}
);
note = d;
unicode = 0064;
},
{
glyphname = e;
layers = (
{
layerId = "D08966C8-96EF-481A-BF9E-1465DF9248E1";
paths = (
{
closed = 1;
nodes = (
"936 668 OFFCURVE",
"928 751 OFFCURVE",
"900 832 OFFCURVE",
"844 908 OFFCURVE",
"748 966 OFFCURVE",
"605 1002 OFFCURVE",
"504 1002 QCURVE SMOOTH",
"474 1002 OFFCURVE",
"391 996 OFFCURVE",
"299 972 OFFCURVE",
"209 923 OFFCURVE",
"137 835 OFFCURVE",
"92 703 OFFCURVE",
"92 608 QCURVE SMOOTH",
"92 374 LINE SMOOTH",
"92 271 OFFCURVE",
"160 129 OFFCURVE",
"275 41 OFFCURVE",
"425 1 OFFCURVE",
"508 0 QCURVE SMOOTH",
"571 0 OFFCURVE",
"716 22 OFFCURVE",
"840 74 OFFCURVE",
"922 161 OFFCURVE",
"922 226 QCURVE SMOOTH",
"922 257 OFFCURVE",
"900 296 OFFCURVE",
"864 318 OFFCURVE",
"817 326 OFFCURVE",
"792 326 QCURVE SMOOTH",
"740 326 OFFCURVE",
"681 307 OFFCURVE",
"648 279 OFFCURVE",
"628 247 OFFCURVE",
"603 219 OFFCURVE",
"560 200 OFFCURVE",
"520 200 QCURVE SMOOTH",
"485 200 OFFCURVE",
"437 228 OFFCURVE",
"408 272 OFFCURVE",
"396 324 OFFCURVE",
"396 348 QCURVE SMOOTH",
"396 444 LINE",
"794 444 LINE SMOOTH",
"847 444 OFFCURVE",
"905 472 OFFCURVE",
"932 511 OFFCURVE",
"936 554 OFFCURVE",
"936 570 QCURVE SMOOTH",
"936 632 LINE SMOOTH"
);
},
{
closed = 1;
nodes = (
"396 681 OFFCURVE",
"402 725 OFFCURVE",
"426 764 OFFCURVE",
"473 790 OFFCURVE",
"514 790 QCURVE SMOOTH",
"563 790 OFFCURVE",
"616 764 OFFCURVE",
"641 714 OFFCURVE",
"646 641 OFFCURVE",
"646 594 QCURVE",
"396 594 LINE",
"396 664 LINE SMOOTH"
);
}
);
width = 1020;
}
);
note = e;
unicode = 0065;
},
{
glyphname = f;
layers = (
{
layerId = "D08966C8-96EF-481A-BF9E-1465DF9248E1";
paths = (
{
closed = 1;
nodes = (
"504 1042 LINE SMOOTH",
"504 1060 OFFCURVE",
"506 1096 OFFCURVE",
"515 1126 OFFCURVE",
"530 1144 OFFCURVE",
"544 1144 QCURVE SMOOTH",
"561 1144 OFFCURVE",
"587 1130 OFFCURVE",
"602 1130 QCURVE SMOOTH",
"620 1130 OFFCURVE",
"663 1142 OFFCURVE",
"699 1172 OFFCURVE",
"724 1220 OFFCURVE",
"724 1256 QCURVE SMOOTH",
"724 1295 OFFCURVE",
"689 1350 OFFCURVE",
"629 1384 OFFCURVE",
"549 1400 OFFCURVE",
"504 1400 QCURVE SMOOTH",
"398 1400 OFFCURVE",
"276 1341 OFFCURVE",
"214 1236 OFFCURVE",
"198 1088 OFFCURVE",
"198 1000 QCURVE",
"142 1000 LINE SMOOTH",
"114 1000 OFFCURVE",
"63 994 OFFCURVE",
"24 970 OFFCURVE",
"0 920 OFFCURVE",
"0 876 QCURVE SMOOTH",
"0 835 OFFCURVE",
"24 788 OFFCURVE",
"63 763 OFFCURVE",
"114 756 OFFCURVE",
"142 756 QCURVE SMOOTH",
"198 756 LINE",
"198 226 LINE SMOOTH",
"198 182 OFFCURVE",
"206 101 OFFCURVE",
"236 38 OFFCURVE",
"295 0 OFFCURVE",
"346 0 QCURVE SMOOTH",
"399 0 OFFCURVE",
"462 38 OFFCURVE",
"495 101 OFFCURVE",
"504 182 OFFCURVE",
"504 226 QCURVE SMOOTH",
"504 756 LINE",
"564 756 LINE SMOOTH",
"589 756 OFFCURVE",
"641 763 OFFCURVE",
"682 788 OFFCURVE",
"708 835 OFFCURVE",
"708 876 QCURVE SMOOTH",
"708 920 OFFCURVE",
"682 970 OFFCURVE",
"641 994 OFFCURVE",
"589 1000 OFFCURVE",
"564 1000 QCURVE SMOOTH",
"504 1000 LINE"
);
}
);
width = 750;
}
);
note = f;
unicode = 0066;
},
{
glyphname = g;
layers = (
{
layerId = "D08966C8-96EF-481A-BF9E-1465DF9248E1";
paths = (
{
closed = 1;
nodes = (
"922 816 OFFCURVE",
"916 897 OFFCURVE",
"886 961 OFFCURVE",
"826 1000 OFFCURVE",
"772 1000 QCURVE SMOOTH",
"717 1000 OFFCURVE",
"655 963 OFFCURVE",
"625 910 OFFCURVE",
"618 852 OFFCURVE",
"618 832 QCURVE",
"609 861 OFFCURVE",
"576 921 OFFCURVE",
"524 969 OFFCURVE",
"451 1000 OFFCURVE",
"402 1000 QCURVE SMOOTH",
"347 1000 OFFCURVE",
"237 964 OFFCURVE",
"148 880 OFFCURVE",
"92 745 OFFCURVE",
"92 646 QCURVE SMOOTH",
"92 356 LINE SMOOTH",
"92 255 OFFCURVE",
"148 119 OFFCURVE",
"237 36 OFFCURVE",
"347 0 OFFCURVE",
"402 0 QCURVE SMOOTH",
"451 0 OFFCURVE",
"524 30 OFFCURVE",
"576 78 OFFCURVE",
"609 138 OFFCURVE",
"618 168 QCURVE",
"618 -56 LINE SMOOTH",
"618 -72 OFFCURVE",
"612 -121 OFFCURVE",
"590 -168 OFFCURVE",
"547 -202 OFFCURVE",
"510 -202 QCURVE SMOOTH",
"469 -202 OFFCURVE",
"422 -185 OFFCURVE",
"414 -164 QCURVE SMOOTH",
"409 -151 OFFCURVE",
"400 -120 OFFCURVE",
"370 -93 OFFCURVE",
"308 -74 OFFCURVE",
"250 -74 QCURVE SMOOTH",
"202 -74 OFFCURVE",
"146 -93 OFFCURVE",
"118 -120 OFFCURVE",
"110 -150 OFFCURVE",
"110 -162 QCURVE SMOOTH",
"115 -234 OFFCURVE",
"192 -326 OFFCURVE",
"309 -380 OFFCURVE",
"451 -400 OFFCURVE",
"522 -400 QCURVE SMOOTH",
"541 -400 OFFCURVE",
"615 -395 OFFCURVE",
"704 -372 OFFCURVE",
"797 -326 OFFCURVE",
"873 -244 OFFCURVE",
"922 -120 OFFCURVE",
"922 -30 QCURVE SMOOTH",
"922 774 LINE SMOOTH"
);
},
{
closed = 1;
nodes = (
"402 647 OFFCURVE",
"406 699 OFFCURVE",
"424 741 OFFCURVE",
"459 766 OFFCURVE",
"490 766 QCURVE SMOOTH",
"529 766 OFFCURVE",
"578 731 OFFCURVE",
"606 658 OFFCURVE",
"617 546 OFFCURVE",
"618 470 QCURVE SMOOTH",
"618 438 OFFCURVE",
"607 357 OFFCURVE",
"579 284 OFFCURVE",
"529 234 OFFCURVE",
"490 234 QCURVE SMOOTH",
"459 234 OFFCURVE",
"424 259 OFFCURVE",
"406 300 OFFCURVE",
"402 352 OFFCURVE",
"402 378 QCURVE SMOOTH",
"402 620 LINE SMOOTH"
);
}
);
width = 1042;
}
);
note = g;
unicode = 0067;
},
{
glyphname = h;
layers = (
{
layerId = "D08966C8-96EF-481A-BF9E-1465DF9248E1";
paths = (
{
closed = 1;
nodes = (
"956 742 OFFCURVE",
"901 879 OFFCURVE",
"814 963 OFFCURVE",
"703 1000 OFFCURVE",
"648 1000 QCURVE SMOOTH",
"600 1000 OFFCURVE",
"527 969 OFFCURVE",
"473 921 OFFCURVE",
"439 861 OFFCURVE",
"430 832 QCURVE",
"430 1174 LINE SMOOTH",
"430 1216 OFFCURVE",
"421 1297 OFFCURVE",
"389 1361 OFFCURVE",
"327 1400 OFFCURVE",
"274 1400 QCURVE SMOOTH",
"222 1400 OFFCURVE",
"162 1361 OFFCURVE",
"131 1297 OFFCURVE",
"122 1216 OFFCURVE",
"122 1174 QCURVE SMOOTH",
"122 226 LINE SMOOTH",
"122 184 OFFCURVE",
"131 103 OFFCURVE",
"162 39 OFFCURVE",
"222 0 OFFCURVE",
"274 0 QCURVE SMOOTH",
"327 0 OFFCURVE",
"389 39 OFFCURVE",
"421 103 OFFCURVE",
"430 184 OFFCURVE",
"430 226 QCURVE SMOOTH",
"430 416 LINE SMOOTH",
"430 489 OFFCURVE",
"441 616 OFFCURVE",
"470 709 OFFCURVE",
"520 762 OFFCURVE",
"560 762 QCURVE SMOOTH",
"591 762 OFFCURVE",
"626 737 OFFCURVE",
"644 697 OFFCURVE",
"648 646 OFFCURVE",
"648 620 QCURVE SMOOTH",
"648 226 LINE SMOOTH",
"648 184 OFFCURVE",
"658 103 OFFCURVE",
"691 39 OFFCURVE",
"752 0 OFFCURVE",
"804 0 QCURVE SMOOTH",
"856 0 OFFCURVE",
"916 39 OFFCURVE",
"947 103 OFFCURVE",
"956 184 OFFCURVE",
"956 226 QCURVE SMOOTH",
"956 642 LINE SMOOTH"
);
}
);
width = 1042;
}
);
note = h;
unicode = 0068;
},
{
glyphname = i;
layers = (
{
layerId = "D08966C8-96EF-481A-BF9E-1465DF9248E1";
paths = (
{
closed = 1;
nodes = (
"154 182 OFFCURVE",
"163 101 OFFCURVE",
"195 38 OFFCURVE",
"255 0 OFFCURVE",
"306 0 QCURVE SMOOTH",
"357 0 OFFCURVE",
"417 38 OFFCURVE",
"449 101 OFFCURVE",
"458 182 OFFCURVE",
"458 224 QCURVE SMOOTH",
"458 776 LINE SMOOTH",
"458 818 OFFCURVE",
"449 898 OFFCURVE",
"417 961 OFFCURVE",
"357 1000 OFFCURVE",
"306 1000 QCURVE SMOOTH",
"255 1000 OFFCURVE",
"195 961 OFFCURVE",
"163 898 OFFCURVE",
"154 818 OFFCURVE",
"154 776 QCURVE SMOOTH",
"154 224 LINE SMOOTH"
);
},
{
closed = 1;
nodes = (
"385 1400 OFFCURVE",
"308 1400 QCURVE SMOOTH",
"236 1400 OFFCURVE",
"156 1328 OFFCURVE",
"156 1248 QCURVE SMOOTH",
"156 1171 OFFCURVE",
"236 1096 OFFCURVE",
"308 1096 QCURVE SMOOTH",
"380 1096 OFFCURVE",
"460 1171 OFFCURVE",
"460 1248 QCURVE SMOOTH",
"460 1328 OFFCURVE"
);
}
);
width = 626;
}
);
note = i;
unicode = 0069;
},
{
glyphname = j;
layers = (
{
layerId = "D08966C8-96EF-481A-BF9E-1465DF9248E1";
paths = (
{
closed = 1;
nodes = (
"176 1 OFFCURVE",
"173 -53 OFFCURVE",
"157 -95 OFFCURVE",
"123 -120 OFFCURVE",
"92 -120 QCURVE SMOOTH",
"55 -120 OFFCURVE",
"4 -132 OFFCURVE",
"-29 -161 OFFCURVE",
"-44 -209 OFFCURVE",
"-44 -246 QCURVE SMOOTH",
"-44 -286 OFFCURVE",
"-8 -344 OFFCURVE",
"52 -382 OFFCURVE",
"132 -400 OFFCURVE",
"176 -400 QCURVE SMOOTH",
"284 -400 OFFCURVE",
"406 -335 OFFCURVE",
"466 -221 OFFCURVE",
"480 -63 OFFCURVE",
"480 30 QCURVE SMOOTH",
"480 776 LINE SMOOTH",
"480 819 OFFCURVE",
"471 900 OFFCURVE",
"440 963 OFFCURVE",
"380 1000 OFFCURVE",
"330 1000 QCURVE SMOOTH",
"278 1000 OFFCURVE",
"217 963 OFFCURVE",
"185 900 OFFCURVE",
"176 819 OFFCURVE",
"176 776 QCURVE SMOOTH",
"176 30 LINE SMOOTH"
);
},
{
closed = 1;
nodes = (
"407 1402 OFFCURVE",
"330 1402 QCURVE SMOOTH",
"258 1402 OFFCURVE",
"176 1328 OFFCURVE",
"176 1250 QCURVE SMOOTH",
"176 1175 OFFCURVE",
"258 1100 OFFCURVE",
"330 1100 QCURVE SMOOTH",
"401 1100 OFFCURVE",
"480 1175 OFFCURVE",
"480 1250 QCURVE SMOOTH",
"480 1328 OFFCURVE"
);
}
);
width = 626;
}
);
note = j;
unicode = 006A;
},
{
glyphname = k;
layers = (
{
layerId = "D08966C8-96EF-481A-BF9E-1465DF9248E1";
paths = (
{
closed = 1;
nodes = (
"150 182 OFFCURVE",
"156 101 OFFCURVE",
"184 38 OFFCURVE",
"241 0 OFFCURVE",
"292 0 QCURVE SMOOTH",
"344 0 OFFCURVE",
"401 38 OFFCURVE",
"428 101 OFFCURVE",
"434 182 OFFCURVE",
"434 224 QCURVE SMOOTH",
"434 392 LINE",
"490 392 LINE",
"602 154 LINE SMOOTH",
"612 131 OFFCURVE",
"642 77 OFFCURVE",
"681 30 OFFCURVE",
"733 -2 OFFCURVE",
"766 -2 QCURVE SMOOTH",
"792 -2 OFFCURVE",
"847 15 OFFCURVE",
"892 48 OFFCURVE",
"920 98 OFFCURVE",
"920 130 QCURVE SMOOTH",
"920 163 OFFCURVE",
"894 236 OFFCURVE",
"876 272 QCURVE SMOOTH",
"680 646 LINE",
"860 858 LINE SMOOTH",
"888 892 OFFCURVE",
"888 932 QCURVE SMOOTH",
"888 963 OFFCURVE",
"863 1012 OFFCURVE",
"824 1047 OFFCURVE",
"773 1066 OFFCURVE",
"748 1066 QCURVE SMOOTH",
"722 1066 OFFCURVE",
"674 1047 OFFCURVE",
"656 1026 QCURVE SMOOTH",
"450 784 LINE",
"434 784 LINE",
"434 1178 LINE SMOOTH",
"434 1220 OFFCURVE",
"428 1300 OFFCURVE",
"401 1362 OFFCURVE",
"344 1400 OFFCURVE",
"292 1400 QCURVE SMOOTH",
"241 1400 OFFCURVE",
"184 1362 OFFCURVE",
"156 1300 OFFCURVE",
"150 1220 OFFCURVE",
"150 1178 QCURVE SMOOTH",
"150 224 LINE SMOOTH"
);
}
);
width = 1014;
}
);
note = k;
unicode = 006B;
},
{
glyphname = l;
layers = (
{
layerId = "D08966C8-96EF-481A-BF9E-1465DF9248E1";
paths = (
{
closed = 1;
nodes = (
"140 182 OFFCURVE",
"149 101 OFFCURVE",
"181 38 OFFCURVE",
"241 0 OFFCURVE",
"292 0 QCURVE SMOOTH",
"344 0 OFFCURVE",
"404 38 OFFCURVE",
"435 101 OFFCURVE",
"444 182 OFFCURVE",
"444 224 QCURVE SMOOTH",
"444 1178 LINE SMOOTH",
"444 1220 OFFCURVE",
"435 1300 OFFCURVE",
"404 1362 OFFCURVE",
"344 1400 OFFCURVE",
"292 1400 QCURVE SMOOTH",
"241 1400 OFFCURVE",
"181 1362 OFFCURVE",
"149 1300 OFFCURVE",
"140 1220 OFFCURVE",
"140 1178 QCURVE SMOOTH",
"140 224 LINE SMOOTH"
);
}
);
width = 586;
}
);
note = l;
unicode = 006C;
},
{
glyphname = m;
layers = (
{
layerId = "D08966C8-96EF-481A-BF9E-1465DF9248E1";
paths = (
{
closed = 1;
nodes = (
"921 39 OFFCURVE",
"953 103 OFFCURVE",
"962 184 OFFCURVE",
"962 226 QCURVE SMOOTH",
"962 502 LINE",
"965 559 OFFCURVE",
"981 656 OFFCURVE",
"1011 726 OFFCURVE",
"1056 766 OFFCURVE",
"1088 766 QCURVE SMOOTH",
"1118 766 OFFCURVE",
"1154 741 OFFCURVE",
"1172 701 OFFCURVE",
"1178 649 OFFCURVE",
"1178 622 QCURVE SMOOTH",
"1178 226 LINE SMOOTH",
"1178 184 OFFCURVE",
"1187 103 OFFCURVE",
"1219 39 OFFCURVE",
"1280 0 OFFCURVE",
"1332 0 QCURVE SMOOTH",
"1383 0 OFFCURVE",
"1444 39 OFFCURVE",
"1476 103 OFFCURVE",
"1486 184 OFFCURVE",
"1486 226 QCURVE SMOOTH",
"1486 646 LINE SMOOTH",
"1486 745 OFFCURVE",
"1431 880 OFFCURVE",
"1343 964 OFFCURVE",
"1233 1000 OFFCURVE",
"1178 1000 QCURVE SMOOTH",
"1137 1000 OFFCURVE",
"1053 983 OFFCURVE",
"979 949 OFFCURVE",
"921 898 OFFCURVE",
"906 864 QCURVE",
"862 936 OFFCURVE",
"738 1000 OFFCURVE",
"672 1000 QCURVE SMOOTH",
"624 1000 OFFCURVE",
"546 969 OFFCURVE",
"486 921 OFFCURVE",
"447 861 OFFCURVE",
"438 832 QCURVE",
"438 852 OFFCURVE",
"432 910 OFFCURVE",
"402 963 OFFCURVE",
"341 1000 OFFCURVE",
"286 1000 QCURVE SMOOTH",
"232 1000 OFFCURVE",
"171 961 OFFCURVE",
"141 897 OFFCURVE",
"134 816 OFFCURVE",
"134 774 QCURVE SMOOTH",
"134 226 LINE SMOOTH",
"134 184 OFFCURVE",
"143 103 OFFCURVE",
"174 39 OFFCURVE",
"234 0 OFFCURVE",
"286 0 QCURVE SMOOTH",
"338 0 OFFCURVE",
"398 39 OFFCURVE",
"429 103 OFFCURVE",
"438 184 OFFCURVE",
"438 226 QCURVE SMOOTH",
"438 420 LINE SMOOTH",
"438 493 OFFCURVE",
"449 619 OFFCURVE",
"478 712 OFFCURVE",
"528 766 OFFCURVE",
"568 766 QCURVE SMOOTH",
"598 766 OFFCURVE",
"633 741 OFFCURVE",
"651 701 OFFCURVE",
"656 649 OFFCURVE",
"656 622 QCURVE SMOOTH",
"656 226 LINE SMOOTH",
"656 184 OFFCURVE",
"665 103 OFFCURVE",
"697 39 OFFCURVE",
"757 0 OFFCURVE",
"808 0 QCURVE SMOOTH",
"860 0 OFFCURVE"
);
}
);
width = 1604;
}
);
note = m;
unicode = 006D;
},
{
glyphname = n;
layers = (
{
layerId = "D08966C8-96EF-481A-BF9E-1465DF9248E1";
paths = (
{
closed = 1;
nodes = (
"966 744 OFFCURVE",
"911 880 OFFCURVE",
"823 964 OFFCURVE",
"713 1000 OFFCURVE",
"658 1000 QCURVE SMOOTH",
"609 1000 OFFCURVE",
"535 969 OFFCURVE",
"482 921 OFFCURVE",
"448 861 OFFCURVE",
"440 832 QCURVE",
"440 853 OFFCURVE",
"432 911 OFFCURVE",
"401 963 OFFCURVE",
"339 1000 OFFCURVE",
"284 1000 QCURVE SMOOTH",
"229 1000 OFFCURVE",
"168 961 OFFCURVE",
"138 898 OFFCURVE",
"132 817 OFFCURVE",
"132 774 QCURVE SMOOTH",
"132 228 LINE SMOOTH",
"132 185 OFFCURVE",
"141 103 OFFCURVE",
"173 39 OFFCURVE",
"233 0 OFFCURVE",
"284 0 QCURVE SMOOTH",
"336 0 OFFCURVE",
"397 39 OFFCURVE",
"430 103 OFFCURVE",
"440 185 OFFCURVE",
"440 228 QCURVE SMOOTH",
"440 418 LINE SMOOTH",
"440 491 OFFCURVE",
"450 618 OFFCURVE",
"479 712 OFFCURVE",
"529 766 OFFCURVE",
"570 766 QCURVE SMOOTH",
"600 766 OFFCURVE",
"635 741 OFFCURVE",
"653 700 OFFCURVE",
"658 646 OFFCURVE",
"658 618 QCURVE SMOOTH",
"658 228 LINE SMOOTH",
"658 185 OFFCURVE",
"667 103 OFFCURVE",
"699 39 OFFCURVE",
"759 0 OFFCURVE",
"810 0 QCURVE SMOOTH",
"862 0 OFFCURVE",
"923 39 OFFCURVE",
"956 103 OFFCURVE",
"966 185 OFFCURVE",
"966 228 QCURVE SMOOTH",
"966 644 LINE SMOOTH"
);
}
);
width = 1082;
}
);
note = n;
unicode = 006E;
},
{
glyphname = o;
layers = (
{
layerId = "D08966C8-96EF-481A-BF9E-1465DF9248E1";
paths = (
{
closed = 1;
nodes = (
"78 284 OFFCURVE",
"128 156 OFFCURVE",
"207 70 OFFCURVE",
"304 22 OFFCURVE",
"398 -2 OFFCURVE",
"479 -8 OFFCURVE",
"502 -8 QCURVE SMOOTH",
"525 -8 OFFCURVE",
"605 -2 OFFCURVE",
"696 22 OFFCURVE",
"789 70 OFFCURVE",
"864 156 OFFCURVE",
"912 284 OFFCURVE",
"912 376 QCURVE SMOOTH",
"912 624 LINE SMOOTH",
"912 716 OFFCURVE",
"864 844 OFFCURVE",
"789 930 OFFCURVE",
"696 978 OFFCURVE",
"605 1002 OFFCURVE",
"525 1008 OFFCURVE",
"502 1008 QCURVE SMOOTH",
"479 1008 OFFCURVE",
"398 1002 OFFCURVE",
"304 978 OFFCURVE",
"207 930 OFFCURVE",
"128 844 OFFCURVE",
"78 716 OFFCURVE",
"78 624 QCURVE SMOOTH",
"78 376 LINE SMOOTH"
);
},
{
closed = 1;
nodes = (
"387 698 OFFCURVE",
"400 723 QCURVE SMOOTH",
"411 743 OFFCURVE",
"458 778 OFFCURVE",
"502 778 QCURVE SMOOTH",
"544 778 OFFCURVE",
"589 743 OFFCURVE",
"600 723 QCURVE SMOOTH",
"612 698 OFFCURVE",
"614 668 QCURVE",
"614 306 LINE",
"612 277 OFFCURVE",
"600 255 QCURVE SMOOTH",
"589 235 OFFCURVE",
"544 204 OFFCURVE",
"502 204 QCURVE SMOOTH",
"458 204 OFFCURVE",
"411 235 OFFCURVE",
"400 255 QCURVE SMOOTH",
"387 277 OFFCURVE",
"386 306 QCURVE SMOOTH",
"386 668 LINE SMOOTH"
);
}
);
width = 990;
}
);
note = o;
unicode = 006F;
},
{
glyphname = p;
layers = (
{
layerId = "D08966C8-96EF-481A-BF9E-1465DF9248E1";
paths = (
{
closed = 1;
nodes = (
"132 -216 OFFCURVE",
"141 -298 OFFCURVE",
"172 -361 OFFCURVE",
"232 -400 OFFCURVE",
"282 -400 QCURVE SMOOTH",
"334 -400 OFFCURVE",
"396 -361 OFFCURVE",
"427 -298 OFFCURVE",
"436 -216 OFFCURVE",
"436 -172 QCURVE SMOOTH",
"436 170 LINE",
"445 140 OFFCURVE",
"478 80 OFFCURVE",
"530 32 OFFCURVE",
"603 2 OFFCURVE",
"652 2 QCURVE SMOOTH",
"707 2 OFFCURVE",
"817 38 OFFCURVE",
"905 121 OFFCURVE",
"960 256 OFFCURVE",
"960 356 QCURVE SMOOTH",
"960 646 LINE SMOOTH",
"960 745 OFFCURVE",
"905 880 OFFCURVE",
"817 964 OFFCURVE",
"707 1000 OFFCURVE",
"652 1000 QCURVE SMOOTH",
"603 1000 OFFCURVE",
"530 969 OFFCURVE",
"478 921 OFFCURVE",
"445 861 OFFCURVE",
"436 832 QCURVE",
"436 852 OFFCURVE",
"429 910 OFFCURVE",
"399 963 OFFCURVE",
"337 1000 OFFCURVE",
"282 1000 QCURVE SMOOTH",
"228 1000 OFFCURVE",
"168 961 OFFCURVE",
"138 897 OFFCURVE",
"132 816 OFFCURVE",
"132 774 QCURVE SMOOTH",
"132 -172 LINE SMOOTH"
);
},
{
closed = 1;
nodes = (
"652 352 OFFCURVE",
"648 301 OFFCURVE",
"630 261 OFFCURVE",
"595 236 OFFCURVE",
"564 236 QCURVE SMOOTH",
"525 236 OFFCURVE",
"475 285 OFFCURVE",
"447 357 OFFCURVE",
"436 438 OFFCURVE",
"436 470 QCURVE SMOOTH",
"437 546 OFFCURVE",
"448 658 OFFCURVE",
"476 731 OFFCURVE",
"525 766 OFFCURVE",
"564 766 QCURVE SMOOTH",
"595 766 OFFCURVE",
"630 741 OFFCURVE",
"648 699 OFFCURVE",
"652 647 OFFCURVE",
"652 620 QCURVE SMOOTH",
"652 378 LINE SMOOTH"
);
}
);
width = 1062;
}
);
note = p;
unicode = 0070;
},
{
glyphname = q;
layers = (
{
layerId = "D08966C8-96EF-481A-BF9E-1465DF9248E1";
paths = (
{
closed = 1;
nodes = (
"932 816 OFFCURVE",
"926 897 OFFCURVE",
"896 961 OFFCURVE",
"836 1000 OFFCURVE",
"782 1000 QCURVE SMOOTH",
"727 1000 OFFCURVE",
"665 963 OFFCURVE",
"635 910 OFFCURVE",
"628 852 OFFCURVE",
"628 832 QCURVE",
"619 861 OFFCURVE",
"586 921 OFFCURVE",
"534 969 OFFCURVE",
"461 1000 OFFCURVE",
"412 1000 QCURVE SMOOTH",
"357 1000 OFFCURVE",
"247 964 OFFCURVE",
"159 880 OFFCURVE",
"104 745 OFFCURVE",
"104 646 QCURVE SMOOTH",
"104 356 LINE SMOOTH",
"104 256 OFFCURVE",
"159 121 OFFCURVE",
"247 38 OFFCURVE",
"357 2 OFFCURVE",
"412 2 QCURVE SMOOTH",
"461 2 OFFCURVE",
"534 32 OFFCURVE",
"586 80 OFFCURVE",
"619 140 OFFCURVE",
"628 170 QCURVE",
"628 -172 LINE SMOOTH",
"628 -216 OFFCURVE",
"637 -298 OFFCURVE",
"668 -361 OFFCURVE",
"729 -400 OFFCURVE",
"782 -400 QCURVE SMOOTH",
"832 -400 OFFCURVE",
"892 -361 OFFCURVE",
"923 -298 OFFCURVE",
"932 -216 OFFCURVE",
"932 -172 QCURVE SMOOTH",
"932 774 LINE SMOOTH"
);
},
{
closed = 1;
nodes = (
"412 647 OFFCURVE",
"416 699 OFFCURVE",
"434 741 OFFCURVE",
"469 766 OFFCURVE",
"500 766 QCURVE SMOOTH",
"539 766 OFFCURVE",
"588 731 OFFCURVE",
"616 658 OFFCURVE",
"627 546 OFFCURVE",
"628 470 QCURVE SMOOTH",
"628 438 OFFCURVE",
"617 357 OFFCURVE",
"589 285 OFFCURVE",
"539 236 OFFCURVE",
"500 236 QCURVE SMOOTH",
"469 236 OFFCURVE",
"434 261 OFFCURVE",
"416 301 OFFCURVE",
"412 352 OFFCURVE",
"412 378 QCURVE SMOOTH",
"412 620 LINE SMOOTH"
);
}
);
width = 1062;
}
);
note = q;
unicode = 0071;
},
{
glyphname = r;
layers = (
{
layerId = "D08966C8-96EF-481A-BF9E-1465DF9248E1";
paths = (
{
closed = 1;
nodes = (
"760 945 OFFCURVE",
"732 981 OFFCURVE",
"683 998 OFFCURVE",
"644 998 QCURVE SMOOTH",
"612 998 OFFCURVE",
"548 964 OFFCURVE",
"492 901 OFFCURVE",
"446 810 OFFCURVE",
"432 754 QCURVE",
"416 754 LINE",
"416 795 OFFCURVE",
"412 882 OFFCURVE",
"386 953 OFFCURVE",
"331 998 OFFCURVE",
"280 998 QCURVE SMOOTH",
"230 998 OFFCURVE",
"172 961 OFFCURVE",
"141 899 OFFCURVE",
"132 820 OFFCURVE",
"132 778 QCURVE SMOOTH",
"132 218 LINE SMOOTH",
"132 177 OFFCURVE",
"141 99 OFFCURVE",
"172 38 OFFCURVE",
"230 0 OFFCURVE",
"280 0 QCURVE SMOOTH",
"331 0 OFFCURVE",
"391 38 OFFCURVE",
"423 99 OFFCURVE",
"432 177 OFFCURVE",
"432 218 QCURVE SMOOTH",
"432 504 LINE SMOOTH",
"432 550 OFFCURVE",
"454 616 OFFCURVE",
"490 659 OFFCURVE",
"533 684 OFFCURVE",
"575 697 OFFCURVE",
"612 700 OFFCURVE",
"622 700 QCURVE SMOOTH",
"693 700 OFFCURVE",
"770 772 OFFCURVE",
"770 850 QCURVE SMOOTH",
"770 889 OFFCURVE"
);
}
);
width = 792;
}
);
note = r;
unicode = 0072;
},
{
glyphname = s;
layers = (
{
layerId = "D08966C8-96EF-481A-BF9E-1465DF9248E1";
paths = (
{
closed = 1;
nodes = (
"401 788 OFFCURVE",
"426 805 OFFCURVE",
"457 812 OFFCURVE",
"474 812 QCURVE SMOOTH",
"515 812 OFFCURVE",
"572 772 OFFCURVE",
"574 734 QCURVE SMOOTH",
"574 720 OFFCURVE",
"589 690 OFFCURVE",
"617 666 OFFCURVE",
"656 650 OFFCURVE",
"680 650 QCURVE SMOOTH",
"708 651 OFFCURVE",
"760 660 OFFCURVE",
"801 683 OFFCURVE",
"826 722 OFFCURVE",
"826 752 QCURVE SMOOTH",
"826 770 OFFCURVE",
"821 822 OFFCURVE",
"800 879 OFFCURVE",
"757 935 OFFCURVE",
"682 980 OFFCURVE",
"569 1008 OFFCURVE",
"488 1008 QCURVE SMOOTH",
"472 1008 LINE SMOOTH",
"382 1006 OFFCURVE",
"241 978 OFFCURVE",
"143 913 OFFCURVE",
"92 808 OFFCURVE",
"92 730 QCURVE SMOOTH",
"92 677 OFFCURVE",
"138 594 OFFCURVE",
"212 528 OFFCURVE",
"303 474 OFFCURVE",
"348 450 QCURVE SMOOTH",
"384 430 OFFCURVE",
"453 391 OFFCURVE",
"507 349 OFFCURVE",
"540 300 OFFCURVE",
"540 272 QCURVE SMOOTH",
"540 239 OFFCURVE",
"491 198 OFFCURVE",
"452 198 QCURVE SMOOTH",
"433 198 OFFCURVE",
"393 203 OFFCURVE",
"360 218 OFFCURVE",
"339 242 OFFCURVE",
"338 262 QCURVE SMOOTH",
"336 322 OFFCURVE",
"272 376 OFFCURVE",
"222 376 QCURVE SMOOTH",
"153 376 OFFCURVE",
"86 320 OFFCURVE",
"86 260 QCURVE SMOOTH",
"86 235 OFFCURVE",
"98 176 OFFCURVE",
"128 116 OFFCURVE",
"181 61 OFFCURVE",
"263 18 OFFCURVE",
"377 -8 OFFCURVE",
"454 -8 QCURVE SMOOTH",
"493 -8 OFFCURVE",
"581 3 OFFCURVE",
"666 29 OFFCURVE",
"743 73 OFFCURVE",
"801 140 OFFCURVE",
"836 232 OFFCURVE",
"836 292 QCURVE SMOOTH",
"836 358 OFFCURVE",
"783 455 OFFCURVE",
"699 529 OFFCURVE",
"597 584 OFFCURVE",
"548 608 QCURVE SMOOTH",
"516 623 OFFCURVE",
"457 653 OFFCURVE",
"412 684 OFFCURVE",
"386 718 OFFCURVE",
"386 738 QCURVE SMOOTH",
"386 760 OFFCURVE"
);
}
);
width = 910;
}
);
note = s;
unicode = 0073;
},
{
glyphname = t;
layers = (
{
layerId = "D08966C8-96EF-481A-BF9E-1465DF9248E1";
paths = (
{
closed = 1;
nodes = (
"176 1000 OFFCURVE",
"125 995 OFFCURVE",
"85 971 OFFCURVE",
"60 923 OFFCURVE",
"60 880 QCURVE SMOOTH",
"60 839 OFFCURVE",
"85 791 OFFCURVE",
"125 767 OFFCURVE",
"176 760 OFFCURVE",
"202 760 QCURVE SMOOTH",
"258 760 LINE",
"258 430 LINE SMOOTH",
"258 369 OFFCURVE",
"263 258 OFFCURVE",
"282 162 OFFCURVE",
"321 85 OFFCURVE",
"388 30 OFFCURVE",
"489 0 OFFCURVE",
"560 0 QCURVE SMOOTH",
"605 0 OFFCURVE",
"687 18 OFFCURVE",
"749 56 OFFCURVE",
"786 114 OFFCURVE",
"786 154 QCURVE SMOOTH",
"786 193 OFFCURVE",
"770 243 OFFCURVE",
"737 271 OFFCURVE",
"686 282 OFFCURVE",
"650 282 QCURVE SMOOTH",
"617 282 OFFCURVE",
"581 307 OFFCURVE",
"563 345 OFFCURVE",
"560 390 OFFCURVE",
"560 410 QCURVE SMOOTH",
"560 760 LINE",
"642 760 LINE SMOOTH",
"668 760 OFFCURVE",
"720 767 OFFCURVE",
"761 791 OFFCURVE",
"786 839 OFFCURVE",
"786 880 QCURVE SMOOTH",
"786 923 OFFCURVE",
"761 971 OFFCURVE",
"720 995 OFFCURVE",
"668 1000 OFFCURVE",
"642 1000 QCURVE SMOOTH",
"560 1000 LINE",
"560 1176 LINE SMOOTH",
"560 1218 OFFCURVE",
"551 1298 OFFCURVE",
"520 1361 OFFCURVE",
"460 1400 OFFCURVE",
"410 1400 QCURVE SMOOTH",
"359 1400 OFFCURVE",
"299 1361 OFFCURVE",
"267 1298 OFFCURVE",
"258 1218 OFFCURVE",
"258 1176 QCURVE SMOOTH",
"258 1000 LINE",
"202 1000 LINE SMOOTH"
);
}
);
width = 870;
}
);
note = t;
unicode = 0074;
},
{
glyphname = u;
layers = (
{
layerId = "D08966C8-96EF-481A-BF9E-1465DF9248E1";
paths = (
{
closed = 1;
nodes = (
"118 256 OFFCURVE",
"173 120 OFFCURVE",
"261 36 OFFCURVE",
"371 0 OFFCURVE",
"426 0 QCURVE SMOOTH",
"475 0 OFFCURVE",
"549 31 OFFCURVE",
"602 79 OFFCURVE",
"636 139 OFFCURVE",
"644 168 QCURVE",
"644 147 OFFCURVE",
"652 89 OFFCURVE",
"683 37 OFFCURVE",
"745 0 OFFCURVE",
"800 0 QCURVE SMOOTH",
"855 0 OFFCURVE",
"916 39 OFFCURVE",
"946 102 OFFCURVE",
"952 183 OFFCURVE",
"952 226 QCURVE SMOOTH",
"952 772 LINE SMOOTH",
"952 815 OFFCURVE",
"943 897 OFFCURVE",
"911 961 OFFCURVE",
"851 1000 OFFCURVE",
"800 1000 QCURVE SMOOTH",
"748 1000 OFFCURVE",
"687 961 OFFCURVE",
"654 897 OFFCURVE",
"644 815 OFFCURVE",
"644 772 QCURVE SMOOTH",
"644 582 LINE SMOOTH",
"644 509 OFFCURVE",
"634 382 OFFCURVE",
"605 288 OFFCURVE",
"554 234 OFFCURVE",
"514 234 QCURVE SMOOTH",
"484 234 OFFCURVE",
"449 259 OFFCURVE",
"431 300 OFFCURVE",
"426 353 OFFCURVE",
"426 382 QCURVE SMOOTH",
"426 772 LINE SMOOTH",
"426 815 OFFCURVE",
"417 897 OFFCURVE",
"385 961 OFFCURVE",
"325 1000 OFFCURVE",
"274 1000 QCURVE SMOOTH",
"222 1000 OFFCURVE",
"161 961 OFFCURVE",
"128 897 OFFCURVE",
"118 815 OFFCURVE",
"118 772 QCURVE SMOOTH",
"118 356 LINE SMOOTH"
);
}
);
width = 1076;
}
);
note = u;
unicode = 0075;
},
{
glyphname = v;
layers = (
{
layerId = "D08966C8-96EF-481A-BF9E-1465DF9248E1";
paths = (
{
closed = 1;
nodes = (
"831 774 OFFCURVE",
"844 826 OFFCURVE",
"844 852 QCURVE SMOOTH",
"844 880 OFFCURVE",
"830 934 OFFCURVE",
"798 975 OFFCURVE",
"748 1000 OFFCURVE",
"712 1000 QCURVE SMOOTH",
"679 1000 OFFCURVE",
"628 974 OFFCURVE",
"591 933 OFFCURVE",
"565 881 OFFCURVE",
"558 856 QCURVE SMOOTH",
"454 492 LINE",
"438 492 LINE",
"326 856 LINE SMOOTH",
"318 884 OFFCURVE",
"290 936 OFFCURVE",
"253 976 OFFCURVE",
"206 1000 OFFCURVE",
"178 1000 QCURVE SMOOTH",
"139 1000 OFFCURVE",
"85 976 OFFCURVE",
"51 936 OFFCURVE",
"36 883 OFFCURVE",
"36 854 QCURVE SMOOTH",
"36 827 OFFCURVE",
"51 772 OFFCURVE",
"60 748 QCURVE SMOOTH",
"286 156 LINE SMOOTH",
"308 97 OFFCURVE",
"348 34 OFFCURVE",
"386 5 OFFCURVE",
"424 0 OFFCURVE",
"446 0 QCURVE SMOOTH",
"466 0 OFFCURVE",
"502 5 OFFCURVE",
"538 35 OFFCURVE",
"576 98 OFFCURVE",
"598 156 QCURVE SMOOTH",
"820 748 LINE SMOOTH"
);
}
);
width = 876;
}
);
note = v;
unicode = 0076;
},
{
glyphname = w;
layers = (
{
layerId = "D08966C8-96EF-481A-BF9E-1465DF9248E1";
paths = (
{
closed = 1;
nodes = (
"569 823 OFFCURVE",
"544 744 QCURVE SMOOTH",
"452 462 LINE",
"436 462 LINE",
"310 854 LINE SMOOTH",
"301 882 OFFCURVE",
"275 934 OFFCURVE",
"239 975 OFFCURVE",
"194 1000 OFFCURVE",
"166 1000 QCURVE SMOOTH",
"126 1000 OFFCURVE",
"72 976 OFFCURVE",
"39 935 OFFCURVE",
"24 881 OFFCURVE",
"24 852 QCURVE SMOOTH",
"24 825 OFFCURVE",
"39 770 OFFCURVE",
"48 746 QCURVE SMOOTH",
"272 156 LINE SMOOTH",
"294 97 OFFCURVE",
"334 34 OFFCURVE",
"373 5 OFFCURVE",
"412 0 OFFCURVE",
"434 0 QCURVE SMOOTH",
"454 0 OFFCURVE",
"490 5 OFFCURVE",
"525 34 OFFCURVE",
"562 97 OFFCURVE",
"584 156 QCURVE",
"692 516 LINE",
"708 516 LINE",
"812 156 LINE",
"834 97 OFFCURVE",
"874 34 OFFCURVE",
"913 5 OFFCURVE",
"952 0 OFFCURVE",
"974 0 QCURVE SMOOTH",
"994 0 OFFCURVE",
"1030 5 OFFCURVE",
"1066 34 OFFCURVE",
"1103 97 OFFCURVE",
"1126 156 QCURVE SMOOTH",
"1348 746 LINE SMOOTH",
"1357 772 OFFCURVE",
"1372 823 OFFCURVE",
"1372 850 QCURVE SMOOTH",
"1372 878 OFFCURVE",
"1358 932 OFFCURVE",
"1326 974 OFFCURVE",
"1276 1000 OFFCURVE",
"1240 1000 QCURVE SMOOTH",
"1205 1000 OFFCURVE",
"1155 975 OFFCURVE",
"1119 934 OFFCURVE",
"1094 882 OFFCURVE",
"1086 854 QCURVE SMOOTH",
"974 462 LINE",
"958 462 LINE",
"852 744 LINE SMOOTH",
"823 823 OFFCURVE",
"748 884 OFFCURVE",
"700 884 QCURVE SMOOTH",
"652 884 OFFCURVE"
);
}
);
width = 1396;
}
);
note = w;
unicode = 0077;
},
{
glyphname = x;
layers = (
{
layerId = "D08966C8-96EF-481A-BF9E-1465DF9248E1";
paths = (
{
closed = 1;
nodes = (
"670 983 OFFCURVE",
"637 953 OFFCURVE",
"607 914 OFFCURVE",
"592 892 QCURVE SMOOTH",
"472 724 LINE",
"348 892 LINE",
"334 914 OFFCURVE",
"304 953 OFFCURVE",
"271 983 OFFCURVE",
"235 1000 OFFCURVE",
"214 1000 QCURVE SMOOTH",
"180 1000 OFFCURVE",
"140 974 QCURVE SMOOTH",
"110 953 OFFCURVE",
"84 906 OFFCURVE",
"84 880 QCURVE SMOOTH",
"84 847 OFFCURVE",
"117 779 OFFCURVE",
"140 744 QCURVE SMOOTH",
"308 500 LINE",
"140 258 LINE SMOOTH",
"117 223 OFFCURVE",
"84 153 OFFCURVE",
"84 120 QCURVE SMOOTH",
"84 94 OFFCURVE",
"110 47 OFFCURVE",
"140 26 QCURVE SMOOTH",
"180 0 OFFCURVE",
"214 0 QCURVE SMOOTH",
"235 0 OFFCURVE",
"271 17 OFFCURVE",
"304 47 OFFCURVE",
"334 87 OFFCURVE",
"348 110 QCURVE",
"472 278 LINE",
"592 110 LINE SMOOTH",
"608 88 OFFCURVE",
"639 48 OFFCURVE",
"672 18 OFFCURVE",
"709 0 OFFCURVE",
"730 0 QCURVE SMOOTH",
"764 0 OFFCURVE",
"804 26 QCURVE SMOOTH",
"834 46 OFFCURVE",
"860 94 OFFCURVE",
"860 120 QCURVE SMOOTH",
"860 153 OFFCURVE",
"827 223 OFFCURVE",
"804 258 QCURVE",
"626 500 LINE",
"804 744 LINE SMOOTH",
"828 777 OFFCURVE",
"860 849 OFFCURVE",
"860 882 QCURVE SMOOTH",
"860 908 OFFCURVE",
"834 954 OFFCURVE",
"804 974 QCURVE SMOOTH",
"783 988 OFFCURVE",
"745 1000 OFFCURVE",
"728 1000 QCURVE SMOOTH",
"707 1000 OFFCURVE"
);
}
);
width = 938;
}
);
note = x;
unicode = 0078;
},
{
glyphname = y;
layers = (
{
layerId = "D08966C8-96EF-481A-BF9E-1465DF9248E1";
paths = (
{
closed = 1;
nodes = (
"358 -355 OFFCURVE",
"432 -279 OFFCURVE",
"498 -179 OFFCURVE",
"556 -67 OFFCURVE",
"605 50 OFFCURVE",
"626 104 QCURVE SMOOTH",
"866 740 LINE SMOOTH",
"877 769 OFFCURVE",
"892 828 OFFCURVE",
"892 858 QCURVE SMOOTH",
"892 889 OFFCURVE",
"869 943 OFFCURVE",
"830 982 OFFCURVE",
"777 1004 OFFCURVE",
"748 1004 QCURVE SMOOTH",
"719 1004 OFFCURVE",
"671 977 OFFCURVE",
"633 934 OFFCURVE",
"605 878 OFFCURVE",
"596 850 QCURVE SMOOTH",
"468 428 LINE",
"334 850 LINE SMOOTH",
"324 880 OFFCURVE",
"296 934 OFFCURVE",
"259 976 OFFCURVE",
"212 1000 OFFCURVE",
"184 1000 QCURVE SMOOTH",
"153 1000 OFFCURVE",
"98 979 OFFCURVE",
"56 943 OFFCURVE",
"32 893 OFFCURVE",
"32 864 QCURVE SMOOTH",
"32 834 OFFCURVE",
"47 772 OFFCURVE",
"58 740 QCURVE SMOOTH",
"83 663 OFFCURVE",
"144 499 OFFCURVE",
"207 334 OFFCURVE",
"271 173 OFFCURVE",
"300 100 QCURVE SMOOTH",
"316 60 LINE",
"299 27 OFFCURVE",
"265 -51 OFFCURVE",
"232 -119 OFFCURVE",
"197 -164 OFFCURVE",
"178 -164 QCURVE SMOOTH",
"169 -164 OFFCURVE",
"143 -162 OFFCURVE",
"128 -162 QCURVE SMOOTH",
"106 -162 OFFCURVE",
"67 -173 OFFCURVE",
"37 -199 OFFCURVE",
"20 -241 OFFCURVE",
"20 -272 QCURVE SMOOTH",
"20 -335 OFFCURVE",
"116 -400 OFFCURVE",
"230 -400 QCURVE SMOOTH",
"275 -400 OFFCURVE"
);
}
);
width = 916;
}
);
note = y;
unicode = 0079;
},
{
glyphname = z;
layers = (
{
layerId = "D08966C8-96EF-481A-BF9E-1465DF9248E1";
paths = (
{
closed = 1;
nodes = (
"223 1000 OFFCURVE",
"157 992 OFFCURVE",
"104 965 OFFCURVE",
"72 915 OFFCURVE",
"72 872 QCURVE SMOOTH",
"72 830 OFFCURVE",
"104 781 OFFCURVE",
"157 755 OFFCURVE",
"223 748 OFFCURVE",
"258 748 QCURVE SMOOTH",
"478 748 LINE",
"132 260 LINE SMOOTH",
"111 230 OFFCURVE",
"76 158 OFFCURVE",
"76 122 QCURVE SMOOTH",
"76 82 OFFCURVE",
"112 34 OFFCURVE",
"168 8 OFFCURVE",
"234 0 OFFCURVE",
"264 0 QCURVE SMOOTH",
"658 0 LINE SMOOTH",
"693 0 OFFCURVE",
"760 8 OFFCURVE",
"812 35 OFFCURVE",
"844 86 OFFCURVE",
"844 128 QCURVE SMOOTH",
"844 171 OFFCURVE",
"812 221 OFFCURVE",
"760 247 OFFCURVE",
"693 254 OFFCURVE",
"658 254 QCURVE SMOOTH",
"438 254 LINE",
"786 740 LINE",
"794 756 OFFCURVE",
"813 790 OFFCURVE",
"829 825 OFFCURVE",
"840 859 OFFCURVE",
"840 876 QCURVE SMOOTH",
"840 914 OFFCURVE",
"803 963 OFFCURVE",
"748 990 OFFCURVE",
"682 1000 OFFCURVE",
"654 1000 QCURVE SMOOTH",
"258 1000 LINE SMOOTH"
);
}
);
width = 916;
}
);
note = z;
unicode = 007A;
},
{
glyphname = braceleft;
layers = (
{
layerId = "D08966C8-96EF-481A-BF9E-1465DF9248E1";
paths = (
{
closed = 1;
nodes = (
"546 1521 OFFCURVE",
"429 1431 OFFCURVE",
"362 1295 OFFCURVE",
"362 1204 QCURVE SMOOTH",
"362 988 LINE SMOOTH",
"362 941 OFFCURVE",
"343 879 OFFCURVE",
"313 840 OFFCURVE",
"275 816 OFFCURVE",
"256 806 QCURVE SMOOTH",
"227 791 OFFCURVE",
"188 755 OFFCURVE",
"188 716 QCURVE SMOOTH",
"188 696 OFFCURVE",
"199 669 OFFCURVE",
"217 648 OFFCURVE",
"242 632 OFFCURVE",
"256 624 QCURVE SMOOTH",
"275 614 OFFCURVE",
"313 590 OFFCURVE",
"343 551 OFFCURVE",
"362 490 OFFCURVE",
"362 444 QCURVE SMOOTH",
"362 256 LINE SMOOTH",
"362 178 OFFCURVE",
"395 59 OFFCURVE",
"450 -28 OFFCURVE",
"520 -89 OFFCURVE",
"556 -108 QCURVE SMOOTH",
"641 -154 OFFCURVE",
"750 -160 QCURVE",
"803 -160 OFFCURVE",
"873 -142 OFFCURVE",
"915 -110 OFFCURVE",
"932 -68 OFFCURVE",
"932 -44 QCURVE SMOOTH",
"932 4 OFFCURVE",
"871 72 OFFCURVE",
"802 72 QCURVE",
"757 75 OFFCURVE",
"722 93 QCURVE SMOOTH",
"707 101 OFFCURVE",
"678 125 OFFCURVE",
"656 160 OFFCURVE",
"642 207 OFFCURVE",
"642 238 QCURVE SMOOTH",
"642 414 LINE SMOOTH",
"642 483 OFFCURVE",
"612 592 OFFCURVE",
"571 669 OFFCURVE",
"529 712 OFFCURVE",
"518 716 QCURVE",
"529 720 OFFCURVE",
"571 763 OFFCURVE",
"612 839 OFFCURVE",
"642 948 OFFCURVE",
"642 1018 QCURVE SMOOTH",
"642 1156 LINE SMOOTH",
"642 1190 OFFCURVE",
"656 1242 OFFCURVE",
"678 1279 OFFCURVE",
"707 1305 OFFCURVE",
"722 1313 QCURVE SMOOTH",
"757 1332 OFFCURVE",
"802 1334 QCURVE SMOOTH",
"871 1334 OFFCURVE",
"932 1402 OFFCURVE",
"932 1450 QCURVE SMOOTH",
"932 1474 OFFCURVE",
"917 1516 OFFCURVE",
"884 1548 OFFCURVE",
"831 1566 OFFCURVE",
"794 1566 QCURVE SMOOTH",
"703 1566 OFFCURVE"
);
}
);
width = 1012;
}
);
note = braceleft;
unicode = 007B;
},
{
glyphname = bar;
layers = (
{
layerId = "D08966C8-96EF-481A-BF9E-1465DF9248E1";
paths = (
{
closed = 1;
nodes = (
"424 1422 LINE SMOOTH",
"424 1447 OFFCURVE",
"417 1499 OFFCURVE",
"392 1540 OFFCURVE",
"344 1566 OFFCURVE",
"304 1566 QCURVE SMOOTH",
"260 1566 OFFCURVE",
"210 1540 OFFCURVE",
"186 1499 OFFCURVE",
"180 1447 OFFCURVE",
"180 1422 QCURVE SMOOTH",
"180 -16 LINE SMOOTH",
"180 -44 OFFCURVE",
"186 -96 OFFCURVE",
"210 -136 OFFCURVE",
"260 -160 OFFCURVE",
"304 -160 QCURVE SMOOTH",
"344 -160 OFFCURVE",
"392 -136 OFFCURVE",
"417 -96 OFFCURVE",
"424 -44 OFFCURVE",
"424 -16 QCURVE SMOOTH",
"424 40 LINE"
);
}
);
width = 604;
}
);
note = bar;
unicode = 007C;
},
{
glyphname = braceright;
layers = (
{
layerId = "D08966C8-96EF-481A-BF9E-1465DF9248E1";
paths = (
{
closed = 1;
nodes = (
"785 791 OFFCURVE",
"756 806 QCURVE SMOOTH",
"738 816 OFFCURVE",
"700 840 OFFCURVE",
"670 879 OFFCURVE",
"650 941 OFFCURVE",
"650 988 QCURVE SMOOTH",
"650 1204 LINE SMOOTH",
"650 1295 OFFCURVE",
"584 1431 OFFCURVE",
"468 1521 OFFCURVE",
"311 1566 OFFCURVE",
"220 1566 QCURVE SMOOTH",
"182 1566 OFFCURVE",
"128 1548 OFFCURVE",
"95 1516 OFFCURVE",
"80 1474 OFFCURVE",
"80 1450 QCURVE SMOOTH",
"80 1426 OFFCURVE",
"95 1384 OFFCURVE",
"127 1352 OFFCURVE",
"177 1334 OFFCURVE",
"212 1334 QCURVE SMOOTH",
"256 1332 OFFCURVE",
"291 1313 QCURVE SMOOTH",
"306 1305 OFFCURVE",
"334 1279 OFFCURVE",
"356 1242 OFFCURVE",
"370 1190 OFFCURVE",
"370 1156 QCURVE SMOOTH",
"370 1018 LINE SMOOTH",
"370 948 OFFCURVE",
"401 839 OFFCURVE",
"443 763 OFFCURVE",
"485 720 OFFCURVE",
"496 716 QCURVE",
"485 712 OFFCURVE",
"443 669 OFFCURVE",
"401 592 OFFCURVE",
"370 483 OFFCURVE",
"370 414 QCURVE SMOOTH",
"370 238 LINE SMOOTH",
"370 207 OFFCURVE",
"356 160 OFFCURVE",
"334 125 OFFCURVE",
"306 101 OFFCURVE",
"291 93 QCURVE SMOOTH",
"256 75 OFFCURVE",
"212 72 QCURVE SMOOTH",
"177 72 OFFCURVE",
"127 54 OFFCURVE",
"95 22 OFFCURVE",
"80 -20 OFFCURVE",
"80 -44 QCURVE SMOOTH",
"80 -68 OFFCURVE",
"97 -110 OFFCURVE",
"139 -142 OFFCURVE",
"209 -160 OFFCURVE",
"262 -160 QCURVE",
"371 -154 OFFCURVE",
"456 -108 QCURVE SMOOTH",
"492 -89 OFFCURVE",
"562 -28 OFFCURVE",
"617 59 OFFCURVE",
"650 178 OFFCURVE",
"650 256 QCURVE SMOOTH",
"650 444 LINE SMOOTH",
"650 490 OFFCURVE",
"670 551 OFFCURVE",
"700 590 OFFCURVE",
"738 614 OFFCURVE",
"756 624 QCURVE SMOOTH",
"770 632 OFFCURVE",
"795 648 OFFCURVE",
"813 669 OFFCURVE",
"824 696 OFFCURVE",
"824 716 QCURVE SMOOTH",
"824 755 OFFCURVE"
);
}
);
width = 1012;
}
);
note = braceright;
unicode = 007D;
},
{
glyphname = asciitilde;
layers = (
{
layerId = "D08966C8-96EF-481A-BF9E-1465DF9248E1";
paths = (
{
closed = 1;
nodes = (
"527 102 OFFCURVE",
"563 87 OFFCURVE",
"582 84 OFFCURVE",
"590 84 QCURVE SMOOTH",
"600 84 OFFCURVE",
"622 89 OFFCURVE",
"655 109 OFFCURVE",
"703 150 OFFCURVE",
"738 186 QCURVE SMOOTH",
"746 193 OFFCURVE",
"767 215 OFFCURVE",
"786 240 OFFCURVE",
"800 266 OFFCURVE",
"802 278 QCURVE",
"802 296 OFFCURVE",
"790 330 OFFCURVE",
"772 348 QCURVE SMOOTH",
"755 365 OFFCURVE",
"728 378 OFFCURVE",
"714 380 QCURVE",
"693 380 OFFCURVE",
"657 359 OFFCURVE",
"640 344 QCURVE",
"622 324 OFFCURVE",
"591 304 OFFCURVE",
"576 304 QCURVE SMOOTH",
"572 304 OFFCURVE",
"560 308 OFFCURVE",
"530 322 OFFCURVE",
"477 348 OFFCURVE",
"434 370 QCURVE SMOOTH",
"410 382 OFFCURVE",
"369 398 OFFCURVE",
"348 398 QCURVE SMOOTH",
"319 398 OFFCURVE",
"270 373 OFFCURVE",
"246 352 QCURVE SMOOTH",
"172 286 LINE SMOOTH",
"140 256 OFFCURVE",
"112 207 OFFCURVE",
"112 186 QCURVE SMOOTH",
"112 159 OFFCURVE",
"134 134 QCURVE",
"149 113 OFFCURVE",
"198 90 OFFCURVE",
"216 90 QCURVE SMOOTH",
"231 90 OFFCURVE",
"265 111 OFFCURVE",
"280 128 QCURVE SMOOTH",
"306 155 OFFCURVE",
"342 180 OFFCURVE",
"360 180 QCURVE SMOOTH",
"372 180 OFFCURVE",
"402 169 OFFCURVE",
"422 158 QCURVE SMOOTH",
"469 132 OFFCURVE"
);
}
);
width = 918;
}
);
note = asciitilde;
unicode = 007E;
},
{
glyphname = guillemotleft;
layers = (
{
layerId = "D08966C8-96EF-481A-BF9E-1465DF9248E1";
paths = (
{
closed = 1;
nodes = (
"526 170 OFFCURVE",
"577 134 OFFCURVE",
"606 134 QCURVE SMOOTH",
"626 134 OFFCURVE",
"665 153 OFFCURVE",
"688 176 QCURVE SMOOTH",
"714 202 OFFCURVE",
"734 244 OFFCURVE",
"734 264 QCURVE SMOOTH",
"734 293 OFFCURVE",
"698 342 OFFCURVE",
"674 366 QCURVE SMOOTH",
"430 606 LINE",
"676 850 LINE SMOOTH",
"699 873 OFFCURVE",
"734 924 OFFCURVE",
"734 954 QCURVE SMOOTH",
"734 974 OFFCURVE",
"715 1013 OFFCURVE",
"692 1036 QCURVE SMOOTH",
"668 1060 OFFCURVE",
"626 1082 OFFCURVE",
"606 1082 QCURVE SMOOTH",
"576 1082 OFFCURVE",
"527 1045 OFFCURVE",
"504 1022 QCURVE SMOOTH",
"190 710 LINE SMOOTH",
"164 684 OFFCURVE",
"128 637 OFFCURVE",
"128 608 QCURVE SMOOTH",
"128 592 OFFCURVE",
"139 564 OFFCURVE",
"157 538 OFFCURVE",
"178 516 OFFCURVE",
"188 506 QCURVE SMOOTH",
"502 194 LINE SMOOTH"
);
},
{
closed = 1;
nodes = (
"1088 172 OFFCURVE",
"1139 136 OFFCURVE",
"1168 136 QCURVE SMOOTH",
"1188 136 OFFCURVE",
"1227 155 OFFCURVE",
"1250 178 QCURVE SMOOTH",
"1276 204 OFFCURVE",
"1296 246 OFFCURVE",
"1296 266 QCURVE SMOOTH",
"1296 295 OFFCURVE",
"1260 344 OFFCURVE",
"1236 368 QCURVE SMOOTH",
"992 608 LINE",
"1238 852 LINE SMOOTH",
"1261 875 OFFCURVE",
"1296 926 OFFCURVE",
"1296 956 QCURVE SMOOTH",
"1296 976 OFFCURVE",
"1277 1015 OFFCURVE",
"1254 1038 QCURVE SMOOTH",
"1230 1062 OFFCURVE",
"1188 1084 OFFCURVE",
"1168 1084 QCURVE SMOOTH",
"1138 1084 OFFCURVE",
"1089 1047 OFFCURVE",
"1066 1024 QCURVE SMOOTH",
"752 712 LINE SMOOTH",
"726 686 OFFCURVE",
"690 639 OFFCURVE",
"690 610 QCURVE SMOOTH",
"690 594 OFFCURVE",
"701 566 OFFCURVE",
"719 540 OFFCURVE",
"740 518 OFFCURVE",
"750 508 QCURVE SMOOTH",
"1064 196 LINE SMOOTH"
);
}
);
width = 1526;
}
);
note = guillemotleft;
unicode = 00AB;
},
{
glyphname = guillemotright;
layers = (
{
layerId = "D08966C8-96EF-481A-BF9E-1465DF9248E1";
paths = (
{
closed = 1;
nodes = (
"1306 516 OFFCURVE",
"1327 538 OFFCURVE",
"1345 564 OFFCURVE",
"1356 592 OFFCURVE",
"1356 608 QCURVE SMOOTH",
"1356 637 OFFCURVE",
"1320 684 OFFCURVE",
"1294 710 QCURVE SMOOTH",
"980 1022 LINE SMOOTH",
"957 1045 OFFCURVE",
"908 1082 OFFCURVE",
"878 1082 QCURVE SMOOTH",
"858 1082 OFFCURVE",
"816 1060 OFFCURVE",
"792 1036 QCURVE SMOOTH",
"769 1013 OFFCURVE",
"750 974 OFFCURVE",
"750 954 QCURVE SMOOTH",
"750 924 OFFCURVE",
"785 873 OFFCURVE",
"808 850 QCURVE SMOOTH",
"1054 606 LINE",
"810 366 LINE SMOOTH",
"786 342 OFFCURVE",
"750 293 OFFCURVE",
"750 264 QCURVE SMOOTH",
"750 244 OFFCURVE",
"770 202 OFFCURVE",
"796 176 QCURVE SMOOTH",
"819 153 OFFCURVE",
"858 134 OFFCURVE",
"878 134 QCURVE SMOOTH",
"907 134 OFFCURVE",
"958 170 OFFCURVE",
"982 194 QCURVE SMOOTH",
"1296 506 LINE SMOOTH"
);
},
{
closed = 1;
nodes = (
"744 518 OFFCURVE",
"765 540 OFFCURVE",
"783 566 OFFCURVE",
"794 594 OFFCURVE",
"794 610 QCURVE SMOOTH",
"794 639 OFFCURVE",
"758 686 OFFCURVE",
"732 712 QCURVE SMOOTH",
"418 1024 LINE SMOOTH",
"395 1047 OFFCURVE",
"346 1084 OFFCURVE",
"316 1084 QCURVE SMOOTH",
"296 1084 OFFCURVE",
"254 1062 OFFCURVE",
"230 1038 QCURVE SMOOTH",
"207 1015 OFFCURVE",
"188 976 OFFCURVE",
"188 956 QCURVE SMOOTH",
"188 926 OFFCURVE",
"223 875 OFFCURVE",
"246 852 QCURVE SMOOTH",
"492 608 LINE",
"248 368 LINE SMOOTH",
"224 344 OFFCURVE",
"188 295 OFFCURVE",
"188 266 QCURVE SMOOTH",
"188 246 OFFCURVE",
"208 204 OFFCURVE",
"234 178 QCURVE SMOOTH",
"257 155 OFFCURVE",
"296 136 OFFCURVE",
"316 136 QCURVE SMOOTH",
"345 136 OFFCURVE",
"396 172 OFFCURVE",
"420 196 QCURVE SMOOTH",
"734 508 LINE SMOOTH"
);
}
);
width = 1536;
}
);
note = guillemotright;
unicode = 00BB;
},
{
glyphname = uni1780;
layers = (
{
layerId = "D08966C8-96EF-481A-BF9E-1465DF9248E1";
paths = (
{
closed = 1;
nodes = (
"950 1300 LINE SMOOTH",
"1050 1300 OFFCURVE",
"1050 1400 QCURVE SMOOTH",
"1050 1500 OFFCURVE",
"950 1500 QCURVE SMOOTH",
"250 1500 LINE SMOOTH",
"150 1500 OFFCURVE",
"150 1400 QCURVE SMOOTH",
"150 1300 OFFCURVE",
"250 1300 QCURVE SMOOTH"
);
},
{
closed = 1;
nodes = (
"1050 100 QCURVE SMOOTH",
"1050 800 LINE SMOOTH",
"1050 1100 OFFCURVE",
"700 1100 QCURVE SMOOTH",
"500 1100 LINE SMOOTH",
"150 1100 OFFCURVE",
"150 800 QCURVE SMOOTH",
"150 100 LINE SMOOTH",
"150 0 OFFCURVE",
"275 0 QCURVE SMOOTH",
"400 0 OFFCURVE",
"400 100 QCURVE SMOOTH",
"400 800 LINE SMOOTH",
"400 900 OFFCURVE",
"500 900 QCURVE SMOOTH",
"700 900 LINE SMOOTH",
"800 900 OFFCURVE",
"800 800 QCURVE SMOOTH",
"800 100 LINE SMOOTH",
"800 0 OFFCURVE",
"925 0 QCURVE SMOOTH",
"1050 0 OFFCURVE"
);
}
);
width = 1200;
}
);
note = uni1780;
unicode = 1780;
},
{
glyphname = uni1781;
layers = (
{
layerId = "D08966C8-96EF-481A-BF9E-1465DF9248E1";
paths = (
{
closed = 1;
nodes = (
"800 928 OFFCURVE",
"638 872 QCURVE SMOOTH",
"556 843 LINE",
"475 815 LINE SMOOTH",
"150 702 OFFCURVE",
"150 450 QCURVE SMOOTH",
"150 300 LINE SMOOTH",
"150 0 OFFCURVE",
"500 0 QCURVE SMOOTH",
"700 0 LINE SMOOTH",
"1050 0 OFFCURVE",
"1050 300 QCURVE SMOOTH",
"1050 500 LINE SMOOTH",
"1050 600 OFFCURVE",
"925 600 QCURVE SMOOTH",
"800 600 OFFCURVE",
"800 500 QCURVE SMOOTH",
"800 300 LINE SMOOTH",
"800 200 OFFCURVE",
"700 200 QCURVE SMOOTH",
"500 200 LINE SMOOTH",
"400 200 OFFCURVE",
"400 300 QCURVE SMOOTH",
"400 450 LINE SMOOTH",
"400 572 OFFCURVE",
"563 629 QCURVE SMOOTH",
"644 657 LINE",
"725 685 LINE SMOOTH",
"1050 798 OFFCURVE",
"1050 1050 QCURVE SMOOTH",
"1050 1200 LINE SMOOTH",
"1050 1500 OFFCURVE",
"700 1500 QCURVE SMOOTH",
"500 1500 LINE SMOOTH",
"150 1500 OFFCURVE",
"150 1200 QCURVE SMOOTH",
"150 1000 LINE SMOOTH",
"150 900 OFFCURVE",
"275 900 QCURVE SMOOTH",
"400 900 OFFCURVE",
"400 1000 QCURVE SMOOTH",
"400 1200 LINE SMOOTH",
"400 1300 OFFCURVE",
"500 1300 QCURVE SMOOTH",
"700 1300 LINE SMOOTH",
"800 1300 OFFCURVE",
"800 1200 QCURVE SMOOTH",
"800 1050 LINE SMOOTH"
);
}
);
width = 1200;
}
);
note = uni1781;
unicode = 1781;
},
{
glyphname = uni1782;
layers = (
{
layerId = "D08966C8-96EF-481A-BF9E-1465DF9248E1";
paths = (
{
closed = 1;
nodes = (
"950 1300 LINE SMOOTH",
"1050 1300 OFFCURVE",
"1050 1400 QCURVE SMOOTH",
"1050 1500 OFFCURVE",
"950 1500 QCURVE SMOOTH",
"250 1500 LINE SMOOTH",
"150 1500 OFFCURVE",
"150 1400 QCURVE SMOOTH",
"150 1300 OFFCURVE",
"250 1300 QCURVE SMOOTH"
);
},
{
closed = 1;
nodes = (
"400 900 OFFCURVE",
"500 900 QCURVE SMOOTH",
"700 900 LINE SMOOTH",
"800 900 OFFCURVE",
"800 800 QCURVE SMOOTH",
"800 100 LINE SMOOTH",
"800 0 OFFCURVE",
"925 0 QCURVE SMOOTH",
"1050 0 OFFCURVE",
"1050 100 QCURVE SMOOTH",
"1050 800 LINE SMOOTH",
"1050 1100 OFFCURVE",
"700 1100 QCURVE SMOOTH",
"500 1100 LINE SMOOTH",
"150 1100 OFFCURVE",
"150 800 QCURVE SMOOTH",
"150 100 LINE SMOOTH",
"150 0 OFFCURVE",
"275 0 QCURVE SMOOTH",
"376 0 OFFCURVE",
"396 66 QCURVE",
"647 411 LINE SMOOTH",
"656 422 OFFCURVE",
"656 435 QCURVE SMOOTH",
"656 466 OFFCURVE",
"604 508 QCURVE SMOOTH",
"562 543 OFFCURVE",
"534 543 QCURVE SMOOTH",
"514 543 OFFCURVE",
"502 526 QCURVE SMOOTH",
"400 388 LINE",
"400 800 LINE SMOOTH"
);
}
);
width = 1200;
}
);
note = uni1782;
unicode = 1782;
},
{
glyphname = uni1783;
layers = (
{
layerId = "D08966C8-96EF-481A-BF9E-1465DF9248E1";
paths = (
{
closed = 1;
nodes = (
"150 0 OFFCURVE",
"500 0 QCURVE SMOOTH",
"700 0 LINE SMOOTH",
"827 0 OFFCURVE",
"905 46 QCURVE",
"988 0 OFFCURVE",
"1125 0 QCURVE SMOOTH",
"1325 0 LINE SMOOTH",
"1650 0 OFFCURVE",
"1650 300 QCURVE SMOOTH",
"1650 1400 LINE SMOOTH",
"1650 1500 OFFCURVE",
"1525 1500 QCURVE SMOOTH",
"1400 1500 OFFCURVE",
"1400 1400 QCURVE SMOOTH",
"1400 300 LINE SMOOTH",
"1400 200 OFFCURVE",
"1325 200 QCURVE SMOOTH",
"1125 200 LINE SMOOTH",
"1025 200 OFFCURVE",
"1025 300 QCURVE SMOOTH",
"1025 1400 LINE SMOOTH",
"1025 1500 OFFCURVE",
"900 1500 QCURVE SMOOTH",
"775 1500 OFFCURVE",
"775 1400 QCURVE SMOOTH",
"775 300 LINE SMOOTH",
"775 200 OFFCURVE",
"700 200 QCURVE SMOOTH",
"500 200 LINE SMOOTH",
"400 200 OFFCURVE",
"400 300 QCURVE SMOOTH",
"400 1400 LINE SMOOTH",
"400 1500 OFFCURVE",
"250 1500 QCURVE SMOOTH",
"100 1500 LINE SMOOTH",
"0 1500 OFFCURVE",
"0 1400 QCURVE SMOOTH",
"0 1300 OFFCURVE",
"100 1300 QCURVE SMOOTH",
"150 1300 OFFCURVE",
"150 1250 QCURVE SMOOTH",
"150 300 LINE SMOOTH"
);
}
);
width = 1800;
}
);
note = uni1783;
unicode = 1783;
},
{
glyphname = uni1784;
layers = (
{
layerId = "D08966C8-96EF-481A-BF9E-1465DF9248E1";
paths = (
{
closed = 1;
nodes = (
"800 263 LINE",
"600 439 LINE",
"400 263 LINE",
"400 900 LINE SMOOTH",
"400 1000 OFFCURVE",
"275 1000 QCURVE SMOOTH",
"150 1000 OFFCURVE",
"150 900 QCURVE SMOOTH",
"150 100 LINE SMOOTH",
"150 0 OFFCURVE",
"325 0 QCURVE SMOOTH",
"400 0 OFFCURVE",
"500 98 QCURVE SMOOTH",
"600 196 LINE",
"700 98 LINE SMOOTH",
"800 0 OFFCURVE",
"875 0 QCURVE SMOOTH",
"1050 0 OFFCURVE",
"1050 100 QCURVE SMOOTH",
"1050 1000 LINE",
"881 1106 LINE",
"909 1113 OFFCURVE",
"937 1127 QCURVE SMOOTH",
"991 1153 OFFCURVE",
"1050 1248 OFFCURVE",
"1050 1300 QCURVE SMOOTH",
"1050 1500 OFFCURVE",
"900 1500 QCURVE SMOOTH",
"750 1500 OFFCURVE",
"750 1300 QCURVE",
"550 1300 LINE SMOOTH",
"400 1300 OFFCURVE",
"400 1400 QCURVE SMOOTH",
"400 1500 LINE SMOOTH",
"400 1600 OFFCURVE",
"275 1600 QCURVE SMOOTH",
"150 1600 OFFCURVE",
"150 1500 QCURVE SMOOTH",
"150 1400 LINE SMOOTH",
"150 1100 OFFCURVE",
"430 1100 QCURVE SMOOTH",
"800 1100 LINE"
);
}
);
width = 1200;
}
);
note = uni1784;
unicode = 1784;
},
{
glyphname = uni1785;
layers = (
{
layerId = "D08966C8-96EF-481A-BF9E-1465DF9248E1";
paths = (
{
closed = 1;
nodes = (
"250 1300 QCURVE SMOOTH",
"950 1300 LINE SMOOTH",
"1050 1300 OFFCURVE",
"1050 1400 QCURVE SMOOTH",
"1050 1500 OFFCURVE",
"950 1500 QCURVE SMOOTH",
"250 1500 LINE SMOOTH",
"150 1500 OFFCURVE",
"150 1400 QCURVE SMOOTH",
"150 1300 OFFCURVE"
);
},
{
closed = 1;
nodes = (
"1050 1100 OFFCURVE",
"900 1100 QCURVE SMOOTH",
"750 1100 LINE SMOOTH",
"650 1100 OFFCURVE",
"650 1000 QCURVE SMOOTH",
"650 900 OFFCURVE",
"750 900 QCURVE SMOOTH",
"800 900 LINE",
"800 300 LINE SMOOTH",
"800 200 OFFCURVE",
"700 200 QCURVE SMOOTH",
"500 200 LINE SMOOTH",
"400 200 OFFCURVE",
"400 300 QCURVE SMOOTH",
"400 1000 LINE SMOOTH",
"400 1100 OFFCURVE",
"275 1100 QCURVE SMOOTH",
"150 1100 OFFCURVE",
"150 1000 QCURVE SMOOTH",
"150 300 LINE SMOOTH",
"150 0 OFFCURVE",
"500 0 QCURVE SMOOTH",
"700 0 LINE SMOOTH",
"1050 0 OFFCURVE",
"1050 300 QCURVE SMOOTH",
"1050 1000 LINE SMOOTH"
);
}
);
width = 1200;
}
);
note = uni1785;
unicode = 1785;
},
{
glyphname = uni1786;
layers = (
{
layerId = "D08966C8-96EF-481A-BF9E-1465DF9248E1";
paths = (
{
closed = 1;
nodes = (
"250 1300 QCURVE SMOOTH",
"950 1300 LINE SMOOTH",
"1050 1300 OFFCURVE",
"1050 1400 QCURVE SMOOTH",
"1050 1500 OFFCURVE",
"950 1500 QCURVE SMOOTH",
"250 1500 LINE SMOOTH",
"150 1500 OFFCURVE",
"150 1400 QCURVE SMOOTH",
"150 1300 OFFCURVE"
);
},
{
closed = 1;
nodes = (
"647 400 OFFCURVE",
"460 400 QCURVE SMOOTH",
"400 400 LINE",
"400 1000 LINE SMOOTH",
"400 1100 OFFCURVE",
"275 1100 QCURVE SMOOTH",
"150 1100 OFFCURVE",
"150 1000 QCURVE SMOOTH",
"150 450 LINE",
"283 399 LINE",
"241 396 OFFCURVE",
"202 374 QCURVE SMOOTH",
"154 348 OFFCURVE",
"100 252 OFFCURVE",
"100 200 QCURVE SMOOTH",
"100 0 OFFCURVE",
"250 0 QCURVE SMOOTH",
"400 0 OFFCURVE",
"400 200 QCURVE",
"460 200 LINE SMOOTH",
"596 200 OFFCURVE",
"698 100 QCURVE SMOOTH",
"800 0 OFFCURVE",
"900 0 QCURVE SMOOTH",
"1050 0 OFFCURVE",
"1050 200 QCURVE SMOOTH",
"1050 1000 LINE SMOOTH",
"1050 1100 OFFCURVE",
"900 1100 QCURVE SMOOTH",
"750 1100 LINE SMOOTH",
"650 1100 OFFCURVE",
"650 1000 QCURVE SMOOTH",
"650 900 OFFCURVE",
"750 900 QCURVE SMOOTH",
"800 900 LINE",
"800 291 LINE"
);
}
);
width = 1200;
}
);
note = uni1786;
unicode = 1786;
},
{
glyphname = uni1787;
layers = (
{
layerId = "D08966C8-96EF-481A-BF9E-1465DF9248E1";
paths = (
{
closed = 1;
nodes = (
"150 0 OFFCURVE",
"325 0 QCURVE SMOOTH",
"400 0 OFFCURVE",
"500 98 QCURVE SMOOTH",
"600 196 LINE",
"700 98 LINE SMOOTH",
"800 0 OFFCURVE",
"875 0 QCURVE SMOOTH",
"1050 0 OFFCURVE",
"1050 100 QCURVE SMOOTH",
"1050 1000 LINE SMOOTH",
"1050 1100 OFFCURVE",
"925 1100 QCURVE SMOOTH",
"800 1100 OFFCURVE",
"800 1000 QCURVE SMOOTH",
"800 263 LINE",
"600 439 LINE",
"400 263 LINE",
"400 1000 LINE SMOOTH",
"400 1100 OFFCURVE",
"275 1100 QCURVE SMOOTH",
"150 1100 OFFCURVE",
"150 1000 QCURVE SMOOTH",
"150 100 LINE SMOOTH"
);
},
{
closed = 1;
nodes = (
"1050 1300 OFFCURVE",
"1050 1400 QCURVE SMOOTH",
"1050 1525 LINE SMOOTH",
"1050 1625 OFFCURVE",
"925 1625 QCURVE SMOOTH",
"800 1625 OFFCURVE",
"800 1525 QCURVE SMOOTH",
"800 1500 LINE",
"250 1500 LINE SMOOTH",
"150 1500 OFFCURVE",
"150 1400 QCURVE SMOOTH",
"150 1300 OFFCURVE",
"250 1300 QCURVE SMOOTH",
"950 1300 LINE SMOOTH"
);
}
);
width = 1200;
}
);
note = uni1787;
unicode = 1787;
},
{
glyphname = uni1788;
layers = (
{
layerId = "D08966C8-96EF-481A-BF9E-1465DF9248E1";
paths = (
{
closed = 1;
nodes = (
"775 0 OFFCURVE",
"1125 0 QCURVE SMOOTH",
"1325 0 LINE SMOOTH",
"1452 0 OFFCURVE",
"1530 46 QCURVE",
"1613 0 OFFCURVE",
"1750 0 QCURVE SMOOTH",
"1950 0 LINE SMOOTH",
"2275 0 OFFCURVE",
"2275 300 QCURVE SMOOTH",
"2275 1400 LINE SMOOTH",
"2275 1500 OFFCURVE",
"2150 1500 QCURVE SMOOTH",
"2025 1500 OFFCURVE",
"2025 1400 QCURVE SMOOTH",
"2025 300 LINE SMOOTH",
"2025 200 OFFCURVE",
"1950 200 QCURVE SMOOTH",
"1750 200 LINE SMOOTH",
"1650 200 OFFCURVE",
"1650 300 QCURVE SMOOTH",
"1650 1400 LINE SMOOTH",
"1650 1500 OFFCURVE",
"1525 1500 QCURVE SMOOTH",
"1400 1500 OFFCURVE",
"1400 1400 QCURVE SMOOTH",
"1400 300 LINE SMOOTH",
"1400 200 OFFCURVE",
"1325 200 QCURVE SMOOTH",
"1125 200 LINE SMOOTH",
"1025 200 OFFCURVE",
"1025 300 QCURVE SMOOTH",
"1025 1200 LINE SMOOTH",
"1025 1500 OFFCURVE",
"675 1500 QCURVE SMOOTH",
"500 1500 LINE SMOOTH",
"150 1500 OFFCURVE",
"150 1200 QCURVE SMOOTH",
"150 100 LINE SMOOTH",
"150 0 OFFCURVE",
"300 0 QCURVE SMOOTH",
"450 0 LINE SMOOTH",
"550 0 OFFCURVE",
"550 100 QCURVE SMOOTH",
"550 200 OFFCURVE",
"450 200 QCURVE SMOOTH",
"400 200 LINE",
"400 1200 LINE SMOOTH",
"400 1300 OFFCURVE",
"500 1300 QCURVE SMOOTH",
"675 1300 LINE SMOOTH",
"775 1300 OFFCURVE",
"775 1200 QCURVE SMOOTH",
"775 300 LINE SMOOTH"
);
}
);
width = 2425;
}
);
note = uni1788;
unicode = 1788;
},
{
glyphname = uni1789;
layers = (
{
layerId = "D08966C8-96EF-481A-BF9E-1465DF9248E1";
paths = (
{
closed = 1;
nodes = (
"150 -400 OFFCURVE",
"250 -400 QCURVE SMOOTH",
"400 -400 LINE SMOOTH",
"647 -400 OFFCURVE",
"805 -550 QCURVE SMOOTH",
"962 -700 OFFCURVE",
"1227 -700 QCURVE SMOOTH",
"1650 -700 OFFCURVE",
"1650 -400 QCURVE SMOOTH",
"1650 -100 OFFCURVE",
"1300 -100 QCURVE SMOOTH",
"1200 -100 OFFCURVE",
"1200 -200 QCURVE SMOOTH",
"1200 -300 OFFCURVE",
"1300 -300 QCURVE SMOOTH",
"1400 -300 OFFCURVE",
"1400 -400 QCURVE SMOOTH",
"1400 -500 OFFCURVE",
"1227 -500 QCURVE SMOOTH",
"1054 -500 OFFCURVE",
"939 -387 QCURVE SMOOTH",
"748 -200 OFFCURVE",
"400 -200 QCURVE SMOOTH",
"250 -200 LINE SMOOTH",
"150 -200 OFFCURVE",
"150 -300 QCURVE SMOOTH"
);
},
{
closed = 1;
nodes = (
"1050 1500 OFFCURVE",
"875 1500 QCURVE SMOOTH",
"800 1500 OFFCURVE",
"700 1402 QCURVE SMOOTH",
"600 1304 LINE",
"500 1402 LINE SMOOTH",
"400 1500 OFFCURVE",
"325 1500 QCURVE SMOOTH",
"150 1500 OFFCURVE",
"150 1400 QCURVE SMOOTH",
"150 100 LINE SMOOTH",
"150 0 OFFCURVE",
"300 0 QCURVE SMOOTH",
"450 0 LINE SMOOTH",
"550 0 OFFCURVE",
"550 100 QCURVE SMOOTH",
"550 200 OFFCURVE",
"450 200 QCURVE SMOOTH",
"400 200 LINE",
"400 1237 LINE",
"600 1061 LINE",
"800 1237 LINE",
"800 100 LINE SMOOTH",
"800 0 OFFCURVE",
"925 0 QCURVE SMOOTH",
"1050 0 OFFCURVE",
"1050 100 QCURVE SMOOTH",
"1050 1400 LINE SMOOTH"
);
},
{
closed = 1;
nodes = (
"1650 0 OFFCURVE",
"1650 100 QCURVE SMOOTH",
"1650 1200 LINE SMOOTH",
"1650 1500 OFFCURVE",
"1290 1500 QCURVE SMOOTH",
"1200 1500 LINE SMOOTH",
"1100 1500 OFFCURVE",
"1100 1400 QCURVE SMOOTH",
"1100 1300 OFFCURVE",
"1200 1300 QCURVE SMOOTH",
"1290 1300 LINE SMOOTH",
"1400 1300 OFFCURVE",
"1400 1200 QCURVE SMOOTH",
"1400 100 LINE SMOOTH",
"1400 0 OFFCURVE",
"1525 0 QCURVE SMOOTH"
);
}
);
width = 1800;
}
);
note = uni1789;
unicode = 1789;
},
{
glyphname = uni178A;
layers = (
{
layerId = "D08966C8-96EF-481A-BF9E-1465DF9248E1";
paths = (
{
closed = 1;
nodes = (
"150 0 OFFCURVE",
"325 0 QCURVE SMOOTH",
"400 0 OFFCURVE",
"500 98 QCURVE SMOOTH",
"600 196 LINE",
"700 98 LINE SMOOTH",
"800 0 OFFCURVE",
"875 0 QCURVE SMOOTH",
"1050 0 OFFCURVE",
"1050 100 QCURVE SMOOTH",
"1050 950 LINE SMOOTH",
"1050 1050 OFFCURVE",
"925 1050 QCURVE SMOOTH",
"800 1050 OFFCURVE",
"800 950 QCURVE SMOOTH",
"800 263 LINE",
"600 439 LINE",
"400 263 LINE",
"400 950 LINE SMOOTH",
"400 1050 OFFCURVE",
"275 1050 QCURVE SMOOTH",
"150 1050 OFFCURVE",
"150 950 QCURVE SMOOTH",
"150 100 LINE SMOOTH"
);
},
{
closed = 1;
nodes = (
"400 1400 LINE",
"400 1500 OFFCURVE",
"275 1500 QCURVE SMOOTH",
"150 1500 OFFCURVE",
"150 1400 QCURVE SMOOTH",
"150 1300 LINE SMOOTH",
"150 1200 OFFCURVE",
"250 1200 QCURVE SMOOTH",
"950 1200 LINE SMOOTH",
"1050 1200 OFFCURVE",
"1050 1300 QCURVE SMOOTH",
"1050 1525 LINE SMOOTH",
"1050 1625 OFFCURVE",
"925 1625 QCURVE SMOOTH",
"800 1625 OFFCURVE",
"800 1525 QCURVE SMOOTH",
"800 1400 LINE"
);
}
);
width = 1200;
}
);
note = uni178A;
unicode = 178A;
},
{
glyphname = uni178B;
layers = (
{
layerId = "D08966C8-96EF-481A-BF9E-1465DF9248E1";
paths = (
{
closed = 1;
nodes = (
"725 1262 QCURVE SMOOTH",
"800 1200 OFFCURVE",
"800 1100 QCURVE SMOOTH",
"800 300 LINE SMOOTH",
"800 200 OFFCURVE",
"700 200 QCURVE SMOOTH",
"500 200 LINE SMOOTH",
"400 200 OFFCURVE",
"400 300 QCURVE SMOOTH",
"400 1400 LINE SMOOTH",
"400 1500 OFFCURVE",
"250 1500 QCURVE SMOOTH",
"100 1500 LINE SMOOTH",
"0 1500 OFFCURVE",
"0 1400 QCURVE SMOOTH",
"0 1300 OFFCURVE",
"100 1300 QCURVE SMOOTH",
"150 1300 OFFCURVE",
"150 1250 QCURVE SMOOTH",
"150 300 LINE SMOOTH",
"150 0 OFFCURVE",
"500 0 QCURVE SMOOTH",
"700 0 LINE SMOOTH",
"1050 0 OFFCURVE",
"1050 300 QCURVE SMOOTH",
"1050 1100 LINE SMOOTH",
"1050 1207 OFFCURVE",
"889 1300 QCURVE",
"950 1300 LINE SMOOTH",
"1050 1300 OFFCURVE",
"1050 1400 QCURVE SMOOTH",
"1050 1525 LINE SMOOTH",
"1050 1625 OFFCURVE",
"925 1625 QCURVE SMOOTH",
"800 1625 OFFCURVE",
"800 1525 QCURVE SMOOTH",
"800 1500 LINE",
"750 1500 LINE SMOOTH",
"650 1500 OFFCURVE",
"650 1400 QCURVE SMOOTH",
"650 1324 OFFCURVE"
);
}
);
width = 1200;
}
);
note = uni178B;
unicode = 178B;
},
{
glyphname = uni178C;
layers = (
{
layerId = "D08966C8-96EF-481A-BF9E-1465DF9248E1";
paths = (
{
closed = 1;
nodes = (
"600 1061 LINE",
"800 1237 LINE",
"800 1050 LINE SMOOTH",
"800 928 OFFCURVE",
"638 872 QCURVE SMOOTH",
"556 843 LINE",
"475 815 LINE SMOOTH",
"150 702 OFFCURVE",
"150 450 QCURVE SMOOTH",
"150 300 LINE SMOOTH",
"150 0 OFFCURVE",
"500 0 QCURVE SMOOTH",
"575 0 OFFCURVE",
"631 24 QCURVE SMOOTH",
"800 96 LINE",
"800 50 LINE SMOOTH",
"800 -50 OFFCURVE",
"925 -50 QCURVE SMOOTH",
"1050 -50 OFFCURVE",
"1050 50 QCURVE SMOOTH",
"1050 500 LINE SMOOTH",
"1050 600 OFFCURVE",
"925 600 QCURVE SMOOTH",
"800 600 OFFCURVE",
"800 500 QCURVE SMOOTH",
"800 380 LINE SMOOTH",
"800 330 OFFCURVE",
"700 280 QCURVE",
"500 200 LINE",
"400 200 OFFCURVE",
"400 300 QCURVE SMOOTH",
"400 450 LINE SMOOTH",
"400 572 OFFCURVE",
"563 629 QCURVE SMOOTH",
"644 657 LINE",
"725 685 LINE SMOOTH",
"1050 798 OFFCURVE",
"1050 1050 QCURVE SMOOTH",
"1050 1400 LINE SMOOTH",
"1050 1500 OFFCURVE",
"875 1500 QCURVE SMOOTH",
"800 1500 OFFCURVE",
"700 1402 QCURVE SMOOTH",
"600 1304 LINE",
"500 1402 LINE SMOOTH",
"400 1500 OFFCURVE",
"325 1500 QCURVE SMOOTH",
"150 1500 OFFCURVE",
"150 1400 QCURVE SMOOTH",
"150 1000 LINE SMOOTH",
"150 900 OFFCURVE",
"275 900 QCURVE SMOOTH",
"400 900 OFFCURVE",
"400 1000 QCURVE SMOOTH",
"400 1237 LINE"
);
}
);
width = 1200;
}
);
note = uni178C;
unicode = 178C;
},
{
glyphname = uni178D;
layers = (
{
layerId = "D08966C8-96EF-481A-BF9E-1465DF9248E1";
paths = (
{
closed = 1;
nodes = (
"1650 1500 OFFCURVE",
"1525 1500 QCURVE SMOOTH",
"1400 1500 OFFCURVE",
"1400 1400 QCURVE SMOOTH",
"1400 291 LINE",
"1247 400 OFFCURVE",
"1110 400 QCURVE SMOOTH",
"1050 400 LINE",
"1050 1400 LINE SMOOTH",
"1050 1500 OFFCURVE",
"875 1500 QCURVE SMOOTH",
"800 1500 OFFCURVE",
"700 1402 QCURVE SMOOTH",
"600 1304 LINE",
"500 1402 LINE SMOOTH",
"400 1500 OFFCURVE",
"325 1500 QCURVE SMOOTH",
"150 1500 OFFCURVE",
"150 1400 QCURVE SMOOTH",
"150 100 LINE SMOOTH",
"150 0 OFFCURVE",
"300 0 QCURVE SMOOTH",
"450 0 LINE SMOOTH",
"550 0 OFFCURVE",
"550 100 QCURVE SMOOTH",
"550 200 OFFCURVE",
"450 200 QCURVE SMOOTH",
"400 200 LINE",
"400 1237 LINE",
"600 1061 LINE",
"800 1237 LINE",
"800 450 LINE",
"933 399 LINE",
"891 396 OFFCURVE",
"852 374 QCURVE SMOOTH",
"804 348 OFFCURVE",
"750 252 OFFCURVE",
"750 200 QCURVE SMOOTH",
"750 0 OFFCURVE",
"900 0 QCURVE SMOOTH",
"1050 0 OFFCURVE",
"1050 200 QCURVE",
"1110 200 LINE SMOOTH",
"1196 200 OFFCURVE",
"1298 100 QCURVE SMOOTH",
"1400 0 OFFCURVE",
"1500 0 QCURVE SMOOTH",
"1650 0 OFFCURVE",
"1650 200 QCURVE SMOOTH",
"1650 1400 LINE SMOOTH"
);
}
);
width = 1800;
}
);
note = uni178D;
unicode = 178D;
},
{
glyphname = uni178E;
layers = (
{
layerId = "D08966C8-96EF-481A-BF9E-1465DF9248E1";
paths = (
{
closed = 1;
nodes = (
"400 1300 OFFCURVE",
"500 1300 QCURVE SMOOTH",
"675 1300 LINE SMOOTH",
"775 1300 OFFCURVE",
"775 1200 QCURVE SMOOTH",
"775 100 LINE SMOOTH",
"775 0 OFFCURVE",
"950 0 QCURVE SMOOTH",
"1025 0 OFFCURVE",
"1125 98 QCURVE SMOOTH",
"1213 184 LINE",
"1300 98 LINE SMOOTH",
"1400 0 OFFCURVE",
"1475 0 QCURVE SMOOTH",
"1650 0 OFFCURVE",
"1650 100 QCURVE SMOOTH",
"1650 1200 LINE SMOOTH",
"1650 1300 OFFCURVE",
"1750 1300 QCURVE SMOOTH",
"1925 1300 LINE SMOOTH",
"2025 1300 OFFCURVE",
"2025 1200 QCURVE SMOOTH",
"2025 100 LINE SMOOTH",
"2025 0 OFFCURVE",
"2150 0 QCURVE SMOOTH",
"2275 0 OFFCURVE",
"2275 100 QCURVE SMOOTH",
"2275 1200 LINE SMOOTH",
"2275 1500 OFFCURVE",
"1925 1500 QCURVE SMOOTH",
"1750 1500 LINE SMOOTH",
"1400 1500 OFFCURVE",
"1400 1200 QCURVE SMOOTH",
"1400 263 LINE",
"1213 428 LINE",
"1025 263 LINE",
"1025 1200 LINE SMOOTH",
"1025 1500 OFFCURVE",
"675 1500 QCURVE SMOOTH",
"500 1500 LINE SMOOTH",
"150 1500 OFFCURVE",
"150 1200 QCURVE SMOOTH",
"150 100 LINE SMOOTH",
"150 0 OFFCURVE",
"300 0 QCURVE SMOOTH",
"450 0 LINE SMOOTH",
"550 0 OFFCURVE",
"550 100 QCURVE SMOOTH",
"550 200 OFFCURVE",
"450 200 QCURVE SMOOTH",
"400 200 LINE",
"400 1200 LINE SMOOTH"
);
}
);
width = 2425;
}
);
note = uni178E;
unicode = 178E;
},
{
glyphname = uni178F;
layers = (
{
layerId = "D08966C8-96EF-481A-BF9E-1465DF9248E1";
paths = (
{
closed = 1;
nodes = (
"250 1300 QCURVE SMOOTH",
"950 1300 LINE SMOOTH",
"1050 1300 OFFCURVE",
"1050 1400 QCURVE SMOOTH",
"1050 1500 OFFCURVE",
"950 1500 QCURVE SMOOTH",
"250 1500 LINE SMOOTH",
"150 1500 OFFCURVE",
"150 1400 QCURVE SMOOTH",
"150 1300 OFFCURVE"
);
},
{
closed = 1;
nodes = (
"400 900 OFFCURVE",
"500 900 QCURVE SMOOTH",
"700 900 LINE SMOOTH",
"800 900 OFFCURVE",
"800 800 QCURVE SMOOTH",
"800 100 LINE SMOOTH",
"800 0 OFFCURVE",
"925 0 QCURVE SMOOTH",
"1050 0 OFFCURVE",
"1050 100 QCURVE SMOOTH",
"1050 800 LINE SMOOTH",
"1050 1100 OFFCURVE",
"700 1100 QCURVE SMOOTH",
"500 1100 LINE SMOOTH",
"150 1100 OFFCURVE",
"150 800 QCURVE SMOOTH",
"150 100 LINE SMOOTH",
"150 0 OFFCURVE",
"300 0 QCURVE SMOOTH",
"450 0 LINE SMOOTH",
"550 0 OFFCURVE",
"550 100 QCURVE SMOOTH",
"550 200 OFFCURVE",
"450 200 QCURVE SMOOTH",
"400 200 LINE",
"400 800 LINE SMOOTH"
);
}
);
width = 1200;
}
);
note = uni178F;
unicode = 178F;
},
{
glyphname = uni1790;
layers = (
{
layerId = "D08966C8-96EF-481A-BF9E-1465DF9248E1";
paths = (
{
closed = 1;
nodes = (
"1050 1100 OFFCURVE",
"900 1100 QCURVE SMOOTH",
"750 1100 LINE SMOOTH",
"650 1100 OFFCURVE",
"650 1000 QCURVE SMOOTH",
"650 900 OFFCURVE",
"750 900 QCURVE SMOOTH",
"800 900 LINE",
"800 300 LINE SMOOTH",
"800 200 OFFCURVE",
"700 200 QCURVE SMOOTH",
"500 200 LINE SMOOTH",
"400 200 OFFCURVE",
"400 300 QCURVE SMOOTH",
"400 1000 LINE SMOOTH",
"400 1100 OFFCURVE",
"275 1100 QCURVE SMOOTH",
"150 1100 OFFCURVE",
"150 1000 QCURVE SMOOTH",
"150 300 LINE SMOOTH",
"150 0 OFFCURVE",
"500 0 QCURVE SMOOTH",
"700 0 LINE SMOOTH",
"1050 0 OFFCURVE",
"1050 300 QCURVE SMOOTH",
"1050 1000 LINE SMOOTH"
);
},
{
closed = 1;
nodes = (
"1050 1300 OFFCURVE",
"1050 1400 QCURVE SMOOTH",
"1050 1525 LINE SMOOTH",
"1050 1625 OFFCURVE",
"925 1625 QCURVE SMOOTH",
"800 1625 OFFCURVE",
"800 1525 QCURVE SMOOTH",
"800 1500 LINE",
"250 1500 LINE SMOOTH",
"150 1500 OFFCURVE",
"150 1400 QCURVE SMOOTH",
"150 1300 OFFCURVE",
"250 1300 QCURVE SMOOTH",
"950 1300 LINE SMOOTH"
);
}
);
width = 1200;
}
);
note = uni1790;
unicode = 1790;
},
{
glyphname = uni1791;
layers = (
{
layerId = "D08966C8-96EF-481A-BF9E-1465DF9248E1";
paths = (
{
closed = 1;
nodes = (
"150 738 OFFCURVE",
"638 623 QCURVE SMOOTH",
"800 585 LINE",
"800 300 LINE SMOOTH",
"800 200 OFFCURVE",
"700 200 QCURVE SMOOTH",
"500 200 LINE SMOOTH",
"400 200 OFFCURVE",
"400 300 QCURVE SMOOTH",
"400 450 LINE SMOOTH",
"400 550 OFFCURVE",
"275 550 QCURVE SMOOTH",
"150 550 OFFCURVE",
"150 450 QCURVE SMOOTH",
"150 300 LINE SMOOTH",
"150 0 OFFCURVE",
"500 0 QCURVE SMOOTH",
"700 0 LINE SMOOTH",
"1050 0 OFFCURVE",
"1050 300 QCURVE SMOOTH",
"1050 490 LINE",
"947 539 LINE",
"1050 572 OFFCURVE",
"1050 644 QCURVE SMOOTH",
"1050 766 LINE SMOOTH",
"1050 850 OFFCURVE",
"950 850 QCURVE SMOOTH",
"910 850 LINE SMOOTH",
"879 850 OFFCURVE",
"823 813 OFFCURVE",
"803 790 QCURVE",
"702 811 LINE SMOOTH",
"400 872 OFFCURVE",
"400 1000 QCURVE SMOOTH",
"400 1200 LINE SMOOTH",
"400 1300 OFFCURVE",
"500 1300 QCURVE SMOOTH",
"700 1300 LINE SMOOTH",
"800 1300 OFFCURVE",
"800 1200 QCURVE SMOOTH",
"800 1050 LINE SMOOTH",
"800 950 OFFCURVE",
"925 950 QCURVE SMOOTH",
"1050 950 OFFCURVE",
"1050 1050 QCURVE SMOOTH",
"1050 1200 LINE SMOOTH",
"1050 1500 OFFCURVE",
"700 1500 QCURVE SMOOTH",
"500 1500 LINE SMOOTH",
"150 1500 OFFCURVE",
"150 1200 QCURVE SMOOTH",
"150 1000 LINE SMOOTH"
);
}
);
width = 1200;
}
);
note = uni1791;
unicode = 1791;
},
{
glyphname = uni1792;
layers = (
{
layerId = "D08966C8-96EF-481A-BF9E-1465DF9248E1";
paths = (
{
closed = 1;
nodes = (
"250 1300 QCURVE SMOOTH",
"950 1300 LINE SMOOTH",
"1050 1300 OFFCURVE",
"1050 1400 QCURVE SMOOTH",
"1050 1500 OFFCURVE",
"950 1500 QCURVE SMOOTH",
"250 1500 LINE SMOOTH",
"150 1500 OFFCURVE",
"150 1400 QCURVE SMOOTH",
"150 1300 OFFCURVE"
);
},
{
closed = 1;
nodes = (
"1050 1100 OFFCURVE",
"900 1100 QCURVE SMOOTH",
"750 1100 LINE SMOOTH",
"650 1100 OFFCURVE",
"650 1000 QCURVE SMOOTH",
"650 900 OFFCURVE",
"750 900 QCURVE SMOOTH",
"800 900 LINE",
"800 263 LINE",
"600 439 LINE",
"400 263 LINE",
"400 1000 LINE SMOOTH",
"400 1100 OFFCURVE",
"275 1100 QCURVE SMOOTH",
"150 1100 OFFCURVE",
"150 1000 QCURVE SMOOTH",
"150 100 LINE SMOOTH",
"150 0 OFFCURVE",
"325 0 QCURVE SMOOTH",
"400 0 OFFCURVE",
"500 98 QCURVE SMOOTH",
"600 196 LINE",
"700 98 LINE SMOOTH",
"800 0 OFFCURVE",
"875 0 QCURVE SMOOTH",
"1050 0 OFFCURVE",
"1050 100 QCURVE SMOOTH",
"1050 1000 LINE SMOOTH"
);
}
);
width = 1200;
}
);
note = uni1792;
unicode = 1792;
},
{
glyphname = uni1793;
layers = (
{
layerId = "D08966C8-96EF-481A-BF9E-1465DF9248E1";
paths = (
{
closed = 1;
nodes = (
"150 0 OFFCURVE",
"325 0 QCURVE SMOOTH",
"400 0 OFFCURVE",
"500 98 QCURVE SMOOTH",
"600 196 LINE",
"700 98 LINE SMOOTH",
"800 0 OFFCURVE",
"875 0 QCURVE SMOOTH",
"1050 0 OFFCURVE",
"1050 100 QCURVE SMOOTH",
"1050 600 LINE SMOOTH",
"1050 699 OFFCURVE",
"888 740 QCURVE SMOOTH",
"725 781 LINE SMOOTH",
"400 863 OFFCURVE",
"400 1000 QCURVE SMOOTH",
"400 1200 LINE SMOOTH",
"400 1300 OFFCURVE",
"500 1300 QCURVE SMOOTH",
"700 1300 LINE SMOOTH",
"800 1300 OFFCURVE",
"800 1200 QCURVE SMOOTH",
"800 1050 LINE SMOOTH",
"800 950 OFFCURVE",
"925 950 QCURVE SMOOTH",
"1050 950 OFFCURVE",
"1050 1050 QCURVE SMOOTH",
"1050 1200 LINE SMOOTH",
"1050 1500 OFFCURVE",
"700 1500 QCURVE SMOOTH",
"500 1500 LINE SMOOTH",
"150 1500 OFFCURVE",
"150 1200 QCURVE SMOOTH",
"150 1000 LINE SMOOTH",
"150 753 OFFCURVE",
"475 665 QCURVE SMOOTH",
"800 576 LINE",
"800 263 LINE",
"600 439 LINE",
"400 263 LINE",
"400 450 LINE SMOOTH",
"400 550 OFFCURVE",
"275 550 QCURVE SMOOTH",
"150 550 OFFCURVE",
"150 450 QCURVE SMOOTH",
"150 100 LINE SMOOTH"
);
}
);
width = 1200;
}
);
note = uni1793;
unicode = 1793;
},
{
glyphname = uni1794;
layers = (
{
layerId = "D08966C8-96EF-481A-BF9E-1465DF9248E1";
paths = (
{
closed = 1;
nodes = (
"150 0 OFFCURVE",
"500 0 QCURVE SMOOTH",
"700 0 LINE SMOOTH",
"1050 0 OFFCURVE",
"1050 300 QCURVE SMOOTH",
"1050 1400 LINE SMOOTH",
"1050 1500 OFFCURVE",
"925 1500 QCURVE SMOOTH",
"800 1500 OFFCURVE",
"800 1400 QCURVE SMOOTH",
"800 300 LINE SMOOTH",
"800 200 OFFCURVE",
"700 200 QCURVE SMOOTH",
"500 200 LINE SMOOTH",
"400 200 OFFCURVE",
"400 300 QCURVE SMOOTH",
"400 1400 LINE SMOOTH",
"400 1500 OFFCURVE",
"275 1500 QCURVE SMOOTH",
"150 1500 OFFCURVE",
"150 1400 QCURVE SMOOTH",
"150 300 LINE SMOOTH"
);
}
);
width = 1200;
}
);
note = uni1794;
unicode = 1794;
},
{
glyphname = uni1795;
layers = (
{
layerId = "D08966C8-96EF-481A-BF9E-1465DF9248E1";
paths = (
{
closed = 1;
nodes = (
"1050 1300 OFFCURVE",
"1050 1400 QCURVE SMOOTH",
"1050 1525 LINE SMOOTH",
"1050 1625 OFFCURVE",
"925 1625 QCURVE SMOOTH",
"800 1625 OFFCURVE",
"800 1525 QCURVE SMOOTH",
"800 1500 LINE",
"250 1500 LINE SMOOTH",
"150 1500 OFFCURVE",
"150 1400 QCURVE SMOOTH",
"150 1300 OFFCURVE",
"250 1300 QCURVE SMOOTH",
"950 1300 LINE SMOOTH"
);
},
{
closed = 1;
nodes = (
"1050 1100 OFFCURVE",
"900 1100 QCURVE SMOOTH",
"750 1100 LINE SMOOTH",
"650 1100 OFFCURVE",
"650 1000 QCURVE SMOOTH",
"650 900 OFFCURVE",
"750 900 QCURVE SMOOTH",
"800 900 LINE",
"800 263 LINE",
"600 439 LINE",
"400 263 LINE",
"400 1000 LINE SMOOTH",
"400 1100 OFFCURVE",
"275 1100 QCURVE SMOOTH",
"150 1100 OFFCURVE",
"150 1000 QCURVE SMOOTH",
"150 100 LINE SMOOTH",
"150 0 OFFCURVE",
"325 0 QCURVE SMOOTH",
"400 0 OFFCURVE",
"500 98 QCURVE SMOOTH",
"600 196 LINE",
"700 98 LINE SMOOTH",
"800 0 OFFCURVE",
"875 0 QCURVE SMOOTH",
"1050 0 OFFCURVE",
"1050 100 QCURVE SMOOTH",
"1050 1000 LINE SMOOTH"
);
}
);
width = 1200;
}
);
note = uni1795;
unicode = 1795;
},
{
glyphname = uni1796;
layers = (
{
layerId = "D08966C8-96EF-481A-BF9E-1465DF9248E1";
paths = (
{
closed = 1;
nodes = (
"1050 1500 OFFCURVE",
"875 1500 QCURVE SMOOTH",
"800 1500 OFFCURVE",
"700 1402 QCURVE SMOOTH",
"600 1304 LINE",
"500 1402 LINE SMOOTH",
"400 1500 OFFCURVE",
"325 1500 QCURVE SMOOTH",
"150 1500 OFFCURVE",
"150 1400 QCURVE SMOOTH",
"150 100 LINE SMOOTH",
"150 0 OFFCURVE",
"300 0 QCURVE SMOOTH",
"450 0 LINE SMOOTH",
"550 0 OFFCURVE",
"550 100 QCURVE SMOOTH",
"550 200 OFFCURVE",
"450 200 QCURVE SMOOTH",
"400 200 LINE",
"400 1237 LINE",
"600 1061 LINE",
"800 1237 LINE",
"800 100 LINE SMOOTH",
"800 0 OFFCURVE",
"925 0 QCURVE SMOOTH",
"1050 0 OFFCURVE",
"1050 100 QCURVE SMOOTH",
"1050 1400 LINE SMOOTH"
);
}
);
width = 1200;
}
);
note = uni1796;
unicode = 1796;
},
{
glyphname = uni1797;
layers = (
{
layerId = "D08966C8-96EF-481A-BF9E-1465DF9248E1";
paths = (
{
closed = 1;
nodes = (
"250 1300 QCURVE SMOOTH",
"950 1300 LINE SMOOTH",
"1050 1300 OFFCURVE",
"1050 1400 QCURVE SMOOTH",
"1050 1500 OFFCURVE",
"950 1500 QCURVE SMOOTH",
"250 1500 LINE SMOOTH",
"150 1500 OFFCURVE",
"150 1400 QCURVE SMOOTH",
"150 1300 OFFCURVE"
);
},
{
closed = 1;
nodes = (
"50 200 OFFCURVE",
"50 100 QCURVE SMOOTH",
"50 0 OFFCURVE",
"150 0 QCURVE SMOOTH",
"250 0 LINE SMOOTH",
"400 0 OFFCURVE",
"400 100 QCURVE SMOOTH",
"400 800 LINE SMOOTH",
"400 900 OFFCURVE",
"500 900 QCURVE SMOOTH",
"700 900 LINE SMOOTH",
"800 900 OFFCURVE",
"800 800 QCURVE SMOOTH",
"800 100 LINE SMOOTH",
"800 0 OFFCURVE",
"925 0 QCURVE SMOOTH",
"1050 0 OFFCURVE",
"1050 100 QCURVE SMOOTH",
"1050 800 LINE SMOOTH",
"1050 1100 OFFCURVE",
"700 1100 QCURVE SMOOTH",
"500 1100 LINE SMOOTH",
"150 1100 OFFCURVE",
"150 800 QCURVE SMOOTH",
"150 200 LINE"
);
}
);
width = 1200;
}
);
note = uni1797;
unicode = 1797;
},
{
glyphname = uni1798;
layers = (
{
layerId = "D08966C8-96EF-481A-BF9E-1465DF9248E1";
paths = (
{
closed = 1;
nodes = (
"550 850 LINE SMOOTH",
"450 850 OFFCURVE",
"450 750 QCURVE SMOOTH",
"450 650 OFFCURVE",
"550 650 QCURVE SMOOTH",
"800 650 LINE",
"800 300 LINE SMOOTH",
"800 200 OFFCURVE",
"700 200 QCURVE SMOOTH",
"500 200 LINE SMOOTH",
"400 200 OFFCURVE",
"400 300 QCURVE SMOOTH",
"400 1400 LINE SMOOTH",
"400 1500 OFFCURVE",
"275 1500 QCURVE SMOOTH",
"150 1500 OFFCURVE",
"150 1400 QCURVE SMOOTH",
"150 300 LINE SMOOTH",
"150 0 OFFCURVE",
"500 0 QCURVE SMOOTH",
"700 0 LINE SMOOTH",
"1050 0 OFFCURVE",
"1050 300 QCURVE SMOOTH",
"1050 1400 LINE SMOOTH",
"1050 1500 OFFCURVE",
"925 1500 QCURVE SMOOTH",
"800 1500 OFFCURVE",
"800 1400 QCURVE SMOOTH",
"800 850 LINE"
);
}
);
width = 1200;
}
);
note = uni1798;
unicode = 1798;
},
{
glyphname = uni1799;
layers = (
{
layerId = "D08966C8-96EF-481A-BF9E-1465DF9248E1";
paths = (
{
closed = 1;
nodes = (
"775 200 OFFCURVE",
"700 200 QCURVE SMOOTH",
"500 200 LINE SMOOTH",
"400 200 OFFCURVE",
"400 300 QCURVE SMOOTH",
"400 1250 LINE SMOOTH",
"400 1300 OFFCURVE",
"450 1300 QCURVE SMOOTH",
"550 1300 OFFCURVE",
"550 1400 QCURVE SMOOTH",
"550 1500 OFFCURVE",
"450 1500 QCURVE SMOOTH",
"300 1500 LINE SMOOTH",
"150 1500 OFFCURVE",
"150 1400 QCURVE SMOOTH",
"150 300 LINE SMOOTH",
"150 0 OFFCURVE",
"500 0 QCURVE SMOOTH",
"700 0 LINE SMOOTH",
"827 0 OFFCURVE",
"905 46 QCURVE",
"988 0 OFFCURVE",
"1125 0 QCURVE SMOOTH",
"1325 0 LINE SMOOTH",
"1650 0 OFFCURVE",
"1650 300 QCURVE SMOOTH",
"1650 1400 LINE SMOOTH",
"1650 1500 OFFCURVE",
"1525 1500 QCURVE SMOOTH",
"1400 1500 OFFCURVE",
"1400 1400 QCURVE SMOOTH",
"1400 300 LINE SMOOTH",
"1400 200 OFFCURVE",
"1325 200 QCURVE SMOOTH",
"1125 200 LINE SMOOTH",
"1025 200 OFFCURVE",
"1025 300 QCURVE SMOOTH",
"1025 1400 LINE SMOOTH",
"1025 1500 OFFCURVE",
"900 1500 QCURVE SMOOTH",
"775 1500 OFFCURVE",
"775 1400 QCURVE SMOOTH",
"775 300 LINE SMOOTH"
);
}
);
width = 1800;
}
);
note = uni1799;
unicode = 1799;
},
{
glyphname = uni179A;
layers = (
{
layerId = "D08966C8-96EF-481A-BF9E-1465DF9248E1";
paths = (
{
closed = 1;
nodes = (
"150 1400 QCURVE SMOOTH",
"150 250 LINE SMOOTH",
"150 200 OFFCURVE",
"100 200 QCURVE SMOOTH",
"0 200 OFFCURVE",
"0 100 QCURVE SMOOTH",
"0 0 OFFCURVE",
"100 0 QCURVE SMOOTH",
"250 0 LINE SMOOTH",
"400 0 OFFCURVE",
"400 100 QCURVE SMOOTH",
"400 1400 LINE SMOOTH",
"400 1500 OFFCURVE",
"275 1500 QCURVE SMOOTH",
"150 1500 OFFCURVE"
);
}
);
width = 550;
}
);
note = uni179A;
unicode = 179A;
},
{
glyphname = uni179B;
layers = (
{
layerId = "D08966C8-96EF-481A-BF9E-1465DF9248E1";
paths = (
{
closed = 1;
nodes = (
"1025 200 OFFCURVE",
"1025 300 QCURVE SMOOTH",
"1025 1200 LINE SMOOTH",
"1025 1500 OFFCURVE",
"675 1500 QCURVE SMOOTH",
"500 1500 LINE SMOOTH",
"150 1500 OFFCURVE",
"150 1200 QCURVE SMOOTH",
"150 100 LINE SMOOTH",
"150 0 OFFCURVE",
"300 0 QCURVE SMOOTH",
"450 0 LINE SMOOTH",
"550 0 OFFCURVE",
"550 100 QCURVE SMOOTH",
"550 200 OFFCURVE",
"450 200 QCURVE SMOOTH",
"400 200 LINE",
"400 1200 LINE SMOOTH",
"400 1300 OFFCURVE",
"500 1300 QCURVE SMOOTH",
"675 1300 LINE SMOOTH",
"775 1300 OFFCURVE",
"775 1200 QCURVE SMOOTH",
"775 300 LINE SMOOTH",
"775 0 OFFCURVE",
"1125 0 QCURVE SMOOTH",
"1325 0 LINE SMOOTH",
"1650 0 OFFCURVE",
"1650 300 QCURVE SMOOTH",
"1650 1400 LINE SMOOTH",
"1650 1500 OFFCURVE",
"1525 1500 QCURVE SMOOTH",
"1400 1500 OFFCURVE",
"1400 1400 QCURVE SMOOTH",
"1400 300 LINE SMOOTH",
"1400 200 OFFCURVE",
"1325 200 QCURVE SMOOTH",
"1125 200 LINE SMOOTH"
);
}
);
width = 1800;
}
);
note = uni179B;
unicode = 179B;
},
{
glyphname = uni179C;
layers = (
{
layerId = "D08966C8-96EF-481A-BF9E-1465DF9248E1";
paths = (
{
closed = 1;
nodes = (
"400 1207 OFFCURVE",
"239 1300 QCURVE",
"300 1300 LINE SMOOTH",
"400 1300 OFFCURVE",
"400 1400 QCURVE SMOOTH",
"400 1525 LINE SMOOTH",
"400 1625 OFFCURVE",
"275 1625 QCURVE SMOOTH",
"150 1625 OFFCURVE",
"150 1525 QCURVE SMOOTH",
"150 1500 LINE",
"100 1500 LINE SMOOTH",
"0 1500 OFFCURVE",
"0 1400 QCURVE SMOOTH",
"0 1324 OFFCURVE",
"75 1262 QCURVE SMOOTH",
"150 1200 OFFCURVE",
"150 1100 QCURVE SMOOTH",
"150 250 LINE SMOOTH",
"150 200 OFFCURVE",
"100 200 QCURVE SMOOTH",
"0 200 OFFCURVE",
"0 100 QCURVE SMOOTH",
"0 0 OFFCURVE",
"100 0 QCURVE SMOOTH",
"250 0 LINE SMOOTH",
"400 0 OFFCURVE",
"400 100 QCURVE SMOOTH",
"400 1100 LINE SMOOTH"
);
}
);
width = 550;
}
);
note = uni179C;
unicode = 179C;
},
{
glyphname = uni179D;
layers = (
{
layerId = "D08966C8-96EF-481A-BF9E-1465DF9248E1";
paths = (
{
closed = 1;
nodes = (
"950 1300 LINE SMOOTH",
"1050 1300 OFFCURVE",
"1050 1400 QCURVE SMOOTH",
"1050 1500 OFFCURVE",
"950 1500 QCURVE SMOOTH",
"250 1500 LINE SMOOTH",
"150 1500 OFFCURVE",
"150 1400 QCURVE SMOOTH",
"150 1300 OFFCURVE",
"250 1300 QCURVE SMOOTH"
);
},
{
closed = 1;
nodes = (
"1050 1100 OFFCURVE",
"700 1100 QCURVE SMOOTH",
"500 1100 LINE SMOOTH",
"150 1100 OFFCURVE",
"150 800 QCURVE SMOOTH",
"150 100 LINE SMOOTH",
"150 0 OFFCURVE",
"275 0 QCURVE SMOOTH",
"376 0 OFFCURVE",
"396 66 QCURVE",
"647 411 LINE SMOOTH",
"656 422 OFFCURVE",
"656 435 QCURVE SMOOTH",
"656 466 OFFCURVE",
"604 508 QCURVE SMOOTH",
"562 543 OFFCURVE",
"534 543 QCURVE SMOOTH",
"514 543 OFFCURVE",
"502 526 QCURVE SMOOTH",
"400 388 LINE",
"400 800 LINE SMOOTH",
"400 900 OFFCURVE",
"500 900 QCURVE SMOOTH",
"700 900 LINE SMOOTH",
"800 900 OFFCURVE",
"800 800 QCURVE SMOOTH",
"800 567 LINE",
"700 567 LINE",
"700 367 LINE",
"800 367 LINE",
"800 100 LINE SMOOTH",
"800 0 OFFCURVE",
"925 0 QCURVE SMOOTH",
"1050 0 OFFCURVE",
"1050 100 QCURVE SMOOTH",
"1050 367 LINE",
"1150 367 LINE",
"1150 567 LINE",
"1050 567 LINE",
"1050 800 LINE SMOOTH"
);
}
);
width = 1200;
}
);
note = uni179D;
unicode = 179D;
},
{
glyphname = uni179E;
layers = (
{
layerId = "D08966C8-96EF-481A-BF9E-1465DF9248E1";
paths = (
{
closed = 1;
nodes = (
"1150 850 LINE",
"1050 850 LINE",
"1050 1400 LINE SMOOTH",
"1050 1500 OFFCURVE",
"925 1500 QCURVE SMOOTH",
"800 1500 OFFCURVE",
"800 1400 QCURVE SMOOTH",
"800 850 LINE",
"700 850 LINE",
"700 650 LINE",
"800 650 LINE",
"800 300 LINE SMOOTH",
"800 200 OFFCURVE",
"700 200 QCURVE SMOOTH",
"500 200 LINE SMOOTH",
"400 200 OFFCURVE",
"400 300 QCURVE SMOOTH",
"400 1400 LINE SMOOTH",
"400 1500 OFFCURVE",
"275 1500 QCURVE SMOOTH",
"150 1500 OFFCURVE",
"150 1400 QCURVE SMOOTH",
"150 300 LINE SMOOTH",
"150 0 OFFCURVE",
"500 0 QCURVE SMOOTH",
"700 0 LINE SMOOTH",
"1050 0 OFFCURVE",
"1050 300 QCURVE SMOOTH",
"1050 650 LINE",
"1150 650 LINE"
);
}
);
width = 1200;
}
);
note = uni179E;
unicode = 179E;
},
{
glyphname = uni179F;
layers = (
{
layerId = "D08966C8-96EF-481A-BF9E-1465DF9248E1";
paths = (
{
closed = 1;
nodes = (
"800 1300 LINE SMOOTH",
"900 1300 OFFCURVE",
"900 1400 QCURVE SMOOTH",
"900 1500 OFFCURVE",
"800 1500 QCURVE SMOOTH",
"250 1500 LINE SMOOTH",
"150 1500 OFFCURVE",
"150 1400 QCURVE SMOOTH",
"150 1300 OFFCURVE",
"250 1300 QCURVE SMOOTH"
);
},
{
closed = 1;
nodes = (
"775 0 OFFCURVE",
"1125 0 QCURVE SMOOTH",
"1325 0 LINE SMOOTH",
"1650 0 OFFCURVE",
"1650 300 QCURVE SMOOTH",
"1650 1400 LINE SMOOTH",
"1650 1500 OFFCURVE",
"1525 1500 QCURVE SMOOTH",
"1400 1500 OFFCURVE",
"1400 1400 QCURVE SMOOTH",
"1400 300 LINE SMOOTH",
"1400 200 OFFCURVE",
"1325 200 QCURVE SMOOTH",
"1125 200 LINE SMOOTH",
"1025 200 OFFCURVE",
"1025 300 QCURVE SMOOTH",
"1025 800 LINE SMOOTH",
"1025 1100 OFFCURVE",
"675 1100 QCURVE SMOOTH",
"500 1100 LINE SMOOTH",
"150 1100 OFFCURVE",
"150 800 QCURVE SMOOTH",
"150 100 LINE SMOOTH",
"150 0 OFFCURVE",
"300 0 QCURVE SMOOTH",
"450 0 LINE SMOOTH",
"550 0 OFFCURVE",
"550 100 QCURVE SMOOTH",
"550 200 OFFCURVE",
"450 200 QCURVE SMOOTH",
"400 200 LINE",
"400 800 LINE SMOOTH",
"400 900 OFFCURVE",
"500 900 QCURVE SMOOTH",
"675 900 LINE SMOOTH",
"775 900 OFFCURVE",
"775 800 QCURVE SMOOTH",
"775 300 LINE SMOOTH"
);
}
);
width = 1800;
}
);
note = uni179F;
unicode = 179F;
},
{
glyphname = uni17A0;
layers = (
{
layerId = "D08966C8-96EF-481A-BF9E-1465DF9248E1";
paths = (
{
closed = 1;
nodes = (
"775 200 OFFCURVE",
"675 200 QCURVE SMOOTH",
"500 200 LINE SMOOTH",
"400 200 OFFCURVE",
"400 300 QCURVE SMOOTH",
"400 1400 LINE SMOOTH",
"400 1500 OFFCURVE",
"275 1500 QCURVE SMOOTH",
"150 1500 OFFCURVE",
"150 1400 QCURVE SMOOTH",
"150 300 LINE SMOOTH",
"150 0 OFFCURVE",
"500 0 QCURVE SMOOTH",
"675 0 LINE SMOOTH",
"1025 0 OFFCURVE",
"1025 300 QCURVE SMOOTH",
"1025 1200 LINE SMOOTH",
"1025 1300 OFFCURVE",
"1125 1300 QCURVE SMOOTH",
"1300 1300 LINE SMOOTH",
"1400 1300 OFFCURVE",
"1400 1200 QCURVE SMOOTH",
"1400 100 LINE SMOOTH",
"1400 0 OFFCURVE",
"1525 0 QCURVE SMOOTH",
"1650 0 OFFCURVE",
"1650 100 QCURVE SMOOTH",
"1650 1200 LINE SMOOTH",
"1650 1500 OFFCURVE",
"1300 1500 QCURVE SMOOTH",
"1125 1500 LINE SMOOTH",
"775 1500 OFFCURVE",
"775 1200 QCURVE SMOOTH",
"775 300 LINE SMOOTH"
);
}
);
width = 1800;
}
);
note = uni17A0;
unicode = 17A0;
},
{
glyphname = uni17A1;
layers = (
{
layerId = "D08966C8-96EF-481A-BF9E-1465DF9248E1";
paths = (
{
closed = 1;
nodes = (
"150 738 OFFCURVE",
"638 623 QCURVE SMOOTH",
"800 585 LINE",
"800 300 LINE SMOOTH",
"800 200 OFFCURVE",
"700 200 QCURVE SMOOTH",
"500 200 LINE SMOOTH",
"400 200 OFFCURVE",
"400 300 QCURVE SMOOTH",
"400 450 LINE SMOOTH",
"400 550 OFFCURVE",
"275 550 QCURVE SMOOTH",
"150 550 OFFCURVE",
"150 450 QCURVE SMOOTH",
"150 300 LINE SMOOTH",
"150 0 OFFCURVE",
"500 0 QCURVE SMOOTH",
"700 0 LINE SMOOTH",
"1050 0 OFFCURVE",
"1050 300 QCURVE SMOOTH",
"1050 490 LINE",
"947 539 LINE",
"1050 572 OFFCURVE",
"1050 644 QCURVE SMOOTH",
"1050 766 LINE SMOOTH",
"1050 850 OFFCURVE",
"950 850 QCURVE SMOOTH",
"910 850 LINE SMOOTH",
"879 850 OFFCURVE",
"823 813 OFFCURVE",
"803 790 QCURVE",
"702 811 LINE SMOOTH",
"400 872 OFFCURVE",
"400 1000 QCURVE SMOOTH",
"400 1200 LINE SMOOTH",
"400 1300 OFFCURVE",
"500 1300 QCURVE SMOOTH",
"700 1300 LINE SMOOTH",
"800 1300 OFFCURVE",
"800 1200 QCURVE SMOOTH",
"800 1050 LINE SMOOTH",
"800 950 OFFCURVE",
"925 950 QCURVE SMOOTH",
"1050 950 OFFCURVE",
"1050 1050 QCURVE SMOOTH",
"1050 1200 LINE SMOOTH",
"1050 1500 OFFCURVE",
"700 1500 QCURVE SMOOTH",
"500 1500 LINE SMOOTH",
"150 1500 OFFCURVE",
"150 1200 QCURVE SMOOTH",
"150 1000 LINE SMOOTH"
);
},
{
closed = 1;
nodes = (
"1225 -232 LINE",
"1050 -368 LINE",
"1050 -158 LINE SMOOTH",
"1050 -70 OFFCURVE",
"925 -70 QCURVE SMOOTH",
"800 -70 LINE SMOOTH",
"700 -70 OFFCURVE",
"700 -158 QCURVE SMOOTH",
"700 -247 OFFCURVE",
"800 -247 QCURVE",
"800 -512 LINE SMOOTH",
"800 -600 OFFCURVE",
"975 -600 QCURVE SMOOTH",
"1050 -600 OFFCURVE",
"1150 -513 QCURVE SMOOTH",
"1225 -448 LINE",
"1300 -513 LINE SMOOTH",
"1400 -600 OFFCURVE",
"1475 -600 QCURVE SMOOTH",
"1650 -600 OFFCURVE",
"1650 -512 QCURVE SMOOTH",
"1650 1400 LINE SMOOTH",
"1650 1500 OFFCURVE",
"1525 1500 QCURVE SMOOTH",
"1400 1500 OFFCURVE",
"1400 1400 QCURVE SMOOTH",
"1400 -368 LINE"
);
}
);
width = 1800;
}
);
note = uni17A1;
unicode = 17A1;
},
{
glyphname = uni17A2;
layers = (
{
layerId = "D08966C8-96EF-481A-BF9E-1465DF9248E1";
paths = (
{
closed = 1;
nodes = (
"800 200 OFFCURVE",
"750 200 QCURVE SMOOTH",
"650 200 OFFCURVE",
"650 100 QCURVE SMOOTH",
"650 0 OFFCURVE",
"750 0 QCURVE SMOOTH",
"900 0 LINE SMOOTH",
"1050 0 OFFCURVE",
"1050 100 QCURVE SMOOTH",
"1050 1400 LINE SMOOTH",
"1050 1500 OFFCURVE",
"925 1500 QCURVE SMOOTH",
"800 1500 OFFCURVE",
"800 1400 QCURVE SMOOTH",
"800 850 LINE",
"550 850 LINE SMOOTH",
"450 850 OFFCURVE",
"450 750 QCURVE SMOOTH",
"450 650 OFFCURVE",
"550 650 QCURVE SMOOTH",
"800 650 LINE",
"800 250 LINE SMOOTH"
);
},
{
closed = 1;
nodes = (
"150 200 OFFCURVE",
"100 200 QCURVE SMOOTH",
"0 200 OFFCURVE",
"0 100 QCURVE SMOOTH",
"0 0 OFFCURVE",
"100 0 QCURVE SMOOTH",
"250 0 LINE SMOOTH",
"400 0 OFFCURVE",
"400 100 QCURVE SMOOTH",
"400 1400 LINE SMOOTH",
"400 1500 OFFCURVE",
"275 1500 QCURVE SMOOTH",
"150 1500 OFFCURVE",
"150 1400 QCURVE SMOOTH",
"150 250 LINE SMOOTH"
);
}
);
width = 1200;
}
);
note = uni17A2;
unicode = 17A2;
},
{
glyphname = uni17A3;
layers = (
{
layerId = "D08966C8-96EF-481A-BF9E-1465DF9248E1";
paths = (
{
closed = 1;
nodes = (
"800 200 OFFCURVE",
"750 200 QCURVE SMOOTH",
"650 200 OFFCURVE",
"650 100 QCURVE SMOOTH",
"650 0 OFFCURVE",
"750 0 QCURVE SMOOTH",
"900 0 LINE SMOOTH",
"1050 0 OFFCURVE",
"1050 100 QCURVE SMOOTH",
"1050 1400 LINE SMOOTH",
"1050 1500 OFFCURVE",
"925 1500 QCURVE SMOOTH",
"800 1500 OFFCURVE",
"800 1400 QCURVE SMOOTH",
"800 850 LINE",
"550 850 LINE SMOOTH",
"450 850 OFFCURVE",
"450 750 QCURVE SMOOTH",
"450 650 OFFCURVE",
"550 650 QCURVE SMOOTH",
"800 650 LINE",
"800 250 LINE SMOOTH"
);
},
{
closed = 1;
nodes = (
"150 200 OFFCURVE",
"100 200 QCURVE SMOOTH",
"0 200 OFFCURVE",
"0 100 QCURVE SMOOTH",
"0 0 OFFCURVE",
"100 0 QCURVE SMOOTH",
"250 0 LINE SMOOTH",
"400 0 OFFCURVE",
"400 100 QCURVE SMOOTH",
"400 1400 LINE SMOOTH",
"400 1500 OFFCURVE",
"275 1500 QCURVE SMOOTH",
"150 1500 OFFCURVE",
"150 1400 QCURVE SMOOTH",
"150 250 LINE SMOOTH"
);
}
);
width = 1200;
}
);
note = uni17A3;
unicode = 17A3;
},
{
glyphname = uni17A4;
layers = (
{
layerId = "D08966C8-96EF-481A-BF9E-1465DF9248E1";
paths = (
{
closed = 1;
nodes = (
"800 200 OFFCURVE",
"750 200 QCURVE SMOOTH",
"650 200 OFFCURVE",
"650 100 QCURVE SMOOTH",
"650 0 OFFCURVE",
"750 0 QCURVE SMOOTH",
"900 0 LINE SMOOTH",
"1050 0 OFFCURVE",
"1050 100 QCURVE SMOOTH",
"1050 1400 LINE SMOOTH",
"1050 1500 OFFCURVE",
"925 1500 QCURVE SMOOTH",
"800 1500 OFFCURVE",
"800 1400 QCURVE SMOOTH",
"800 850 LINE",
"550 850 LINE SMOOTH",
"450 850 OFFCURVE",
"450 750 QCURVE SMOOTH",
"450 650 OFFCURVE",
"550 650 QCURVE SMOOTH",
"800 650 LINE",
"800 250 LINE SMOOTH"
);
},
{
closed = 1;
nodes = (
"150 200 OFFCURVE",
"100 200 QCURVE SMOOTH",
"0 200 OFFCURVE",
"0 100 QCURVE SMOOTH",
"0 0 OFFCURVE",
"100 0 QCURVE SMOOTH",
"250 0 LINE SMOOTH",
"400 0 OFFCURVE",
"400 100 QCURVE SMOOTH",
"400 1400 LINE SMOOTH",
"400 1500 OFFCURVE",
"275 1500 QCURVE SMOOTH",
"150 1500 OFFCURVE",
"150 1400 QCURVE SMOOTH",
"150 250 LINE SMOOTH"
);
},
{
closed = 1;
nodes = (
"1650 0 OFFCURVE",
"1650 100 QCURVE SMOOTH",
"1650 1200 LINE SMOOTH",
"1650 1500 OFFCURVE",
"1290 1500 QCURVE SMOOTH",
"1200 1500 LINE SMOOTH",
"1100 1500 OFFCURVE",
"1100 1400 QCURVE SMOOTH",
"1100 1300 OFFCURVE",
"1200 1300 QCURVE SMOOTH",
"1290 1300 LINE SMOOTH",
"1400 1300 OFFCURVE",
"1400 1200 QCURVE SMOOTH",
"1400 100 LINE SMOOTH",
"1400 0 OFFCURVE",
"1525 0 QCURVE SMOOTH"
);
}
);
width = 1800;
}
);
note = uni17A4;
unicode = 17A4;
},
{
glyphname = uni17A5;
layers = (
{
layerId = "D08966C8-96EF-481A-BF9E-1465DF9248E1";
paths = (
{
closed = 1;
nodes = (
"400 900 OFFCURVE",
"500 900 QCURVE SMOOTH",
"700 900 LINE SMOOTH",
"800 900 OFFCURVE",
"800 800 QCURVE SMOOTH",
"800 100 LINE SMOOTH",
"800 0 OFFCURVE",
"925 0 QCURVE SMOOTH",
"1050 0 OFFCURVE",
"1050 100 QCURVE SMOOTH",
"1050 800 LINE SMOOTH",
"1050 1100 OFFCURVE",
"700 1100 QCURVE SMOOTH",
"500 1100 LINE SMOOTH",
"150 1100 OFFCURVE",
"150 800 QCURVE SMOOTH",
"150 100 LINE SMOOTH",
"150 0 OFFCURVE",
"300 0 QCURVE SMOOTH",
"450 0 LINE SMOOTH",
"550 0 OFFCURVE",
"550 100 QCURVE SMOOTH",
"550 200 OFFCURVE",
"450 200 QCURVE SMOOTH",
"400 200 LINE",
"400 800 LINE SMOOTH"
);
},
{
closed = 1;
nodes = (
"1050 1300 OFFCURVE",
"1050 1400 QCURVE SMOOTH",
"1050 1525 LINE SMOOTH",
"1050 1625 OFFCURVE",
"925 1625 QCURVE SMOOTH",
"800 1625 OFFCURVE",
"800 1525 QCURVE SMOOTH",
"800 1500 LINE",
"250 1500 LINE SMOOTH",
"150 1500 OFFCURVE",
"150 1400 QCURVE SMOOTH",
"150 1300 OFFCURVE",
"250 1300 QCURVE SMOOTH",
"950 1300 LINE SMOOTH"
);
}
);
width = 1200;
}
);
note = uni17A5;
unicode = 17A5;
},
{
glyphname = uni17A6;
layers = (
{
layerId = "D08966C8-96EF-481A-BF9E-1465DF9248E1";
paths = (
{
closed = 1;
nodes = (
"800 1750 LINE SMOOTH",
"800 1650 OFFCURVE",
"925 1650 QCURVE SMOOTH",
"1050 1650 OFFCURVE",
"1050 1700 QCURVE SMOOTH",
"1050 1750 OFFCURVE",
"1200 1750 QCURVE SMOOTH",
"1300 1750 LINE SMOOTH",
"1400 1750 OFFCURVE",
"1400 1650 QCURVE SMOOTH",
"1400 -450 LINE SMOOTH",
"1400 -550 OFFCURVE",
"1300 -550 QCURVE SMOOTH",
"1150 -550 LINE SMOOTH",
"1050 -550 OFFCURVE",
"1050 -450 QCURVE SMOOTH",
"1050 -357 LINE SMOOTH",
"1050 -100 OFFCURVE",
"700 -100 QCURVE SMOOTH",
"500 -100 LINE SMOOTH",
"150 -100 OFFCURVE",
"150 -357 QCURVE SMOOTH",
"150 -600 LINE SMOOTH",
"150 -700 OFFCURVE",
"300 -700 QCURVE SMOOTH",
"450 -700 LINE SMOOTH",
"550 -700 OFFCURVE",
"550 -600 QCURVE SMOOTH",
"550 -500 OFFCURVE",
"450 -500 QCURVE SMOOTH",
"400 -500 LINE",
"400 -357 LINE SMOOTH",
"400 -250 OFFCURVE",
"500 -250 QCURVE SMOOTH",
"700 -250 LINE SMOOTH",
"800 -250 OFFCURVE",
"800 -357 QCURVE SMOOTH",
"800 -450 LINE SMOOTH",
"800 -700 OFFCURVE",
"1150 -700 QCURVE SMOOTH",
"1300 -700 LINE SMOOTH",
"1650 -700 OFFCURVE",
"1650 -450 QCURVE SMOOTH",
"1650 1650 LINE SMOOTH",
"1650 1950 OFFCURVE",
"1300 1950 QCURVE SMOOTH",
"1200 1950 LINE SMOOTH",
"1117 1950 OFFCURVE",
"1050 1940 QCURVE",
"1050 2200 LINE SMOOTH",
"1050 2300 OFFCURVE",
"925 2300 QCURVE SMOOTH",
"800 2300 OFFCURVE",
"800 2200 QCURVE SMOOTH"
);
},
{
closed = 1;
nodes = (
"1050 1500 OFFCURVE",
"700 1500 QCURVE SMOOTH",
"500 1500 LINE SMOOTH",
"150 1500 OFFCURVE",
"150 1200 QCURVE SMOOTH",
"150 100 LINE SMOOTH",
"150 0 OFFCURVE",
"300 0 QCURVE SMOOTH",
"450 0 LINE SMOOTH",
"550 0 OFFCURVE",
"550 100 QCURVE SMOOTH",
"550 200 OFFCURVE",
"450 200 QCURVE SMOOTH",
"400 200 LINE",
"400 1200 LINE SMOOTH",
"400 1300 OFFCURVE",
"500 1300 QCURVE SMOOTH",
"700 1300 LINE SMOOTH",
"800 1300 OFFCURVE",
"800 1200 QCURVE SMOOTH",
"800 100 LINE SMOOTH",
"800 0 OFFCURVE",
"925 0 QCURVE SMOOTH",
"1050 0 OFFCURVE",
"1050 100 QCURVE SMOOTH",
"1050 1200 LINE SMOOTH"
);
}
);
width = 1800;
}
);
note = uni17A6;
unicode = 17A6;
},
{
glyphname = uni17A7;
layers = (
{
layerId = "D08966C8-96EF-481A-BF9E-1465DF9248E1";
paths = (
{
closed = 1;
nodes = (
"1050 1500 OFFCURVE",
"700 1500 QCURVE SMOOTH",
"500 1500 LINE SMOOTH",
"150 1500 OFFCURVE",
"150 1200 QCURVE SMOOTH",
"150 1000 LINE SMOOTH",
"150 900 OFFCURVE",
"275 900 QCURVE SMOOTH",
"400 900 OFFCURVE",
"400 1000 QCURVE SMOOTH",
"400 1200 LINE SMOOTH",
"400 1300 OFFCURVE",
"500 1300 QCURVE SMOOTH",
"700 1300 LINE SMOOTH",
"800 1300 OFFCURVE",
"800 1200 QCURVE SMOOTH",
"800 1050 LINE SMOOTH",
"800 928 OFFCURVE",
"638 872 QCURVE SMOOTH",
"556 843 LINE",
"475 815 LINE SMOOTH",
"150 702 OFFCURVE",
"150 450 QCURVE SMOOTH",
"150 300 LINE SMOOTH",
"150 0 OFFCURVE",
"500 0 QCURVE SMOOTH",
"575 0 OFFCURVE",
"631 24 QCURVE SMOOTH",
"800 96 LINE",
"800 50 LINE SMOOTH",
"800 -50 OFFCURVE",
"925 -50 QCURVE SMOOTH",
"1050 -50 OFFCURVE",
"1050 50 QCURVE SMOOTH",
"1050 500 LINE SMOOTH",
"1050 600 OFFCURVE",
"925 600 QCURVE SMOOTH",
"800 600 OFFCURVE",
"800 500 QCURVE SMOOTH",
"800 380 LINE SMOOTH",
"800 330 OFFCURVE",
"700 280 QCURVE",
"500 200 LINE",
"400 200 OFFCURVE",
"400 300 QCURVE SMOOTH",
"400 450 LINE SMOOTH",
"400 572 OFFCURVE",
"563 629 QCURVE SMOOTH",
"644 657 LINE",
"725 685 LINE SMOOTH",
"1050 798 OFFCURVE",
"1050 1050 QCURVE SMOOTH",
"1050 1200 LINE SMOOTH"
);
}
);
width = 1200;
}
);
note = uni17A7;
unicode = 17A7;
},
{
glyphname = uni17A8;
layers = (
{
layerId = "D08966C8-96EF-481A-BF9E-1465DF9248E1";
paths = (
{
closed = 1;
nodes = (
"1050 1500 OFFCURVE",
"700 1500 QCURVE SMOOTH",
"500 1500 LINE SMOOTH",
"150 1500 OFFCURVE",
"150 1200 QCURVE SMOOTH",
"150 1000 LINE SMOOTH",
"150 900 OFFCURVE",
"275 900 QCURVE SMOOTH",
"400 900 OFFCURVE",
"400 1000 QCURVE SMOOTH",
"400 1200 LINE SMOOTH",
"400 1300 OFFCURVE",
"500 1300 QCURVE SMOOTH",
"700 1300 LINE SMOOTH",
"800 1300 OFFCURVE",
"800 1200 QCURVE SMOOTH",
"800 1050 LINE SMOOTH",
"800 928 OFFCURVE",
"638 872 QCURVE SMOOTH",
"556 843 LINE",
"475 815 LINE SMOOTH",
"150 702 OFFCURVE",
"150 450 QCURVE SMOOTH",
"150 300 LINE SMOOTH",
"150 0 OFFCURVE",
"500 0 QCURVE SMOOTH",
"575 0 OFFCURVE",
"631 24 QCURVE SMOOTH",
"800 96 LINE",
"800 50 LINE SMOOTH",
"800 -50 OFFCURVE",
"925 -50 QCURVE SMOOTH",
"1050 -50 OFFCURVE",
"1050 50 QCURVE SMOOTH",
"1050 500 LINE SMOOTH",
"1050 600 OFFCURVE",
"925 600 QCURVE SMOOTH",
"800 600 OFFCURVE",
"800 500 QCURVE SMOOTH",
"800 380 LINE SMOOTH",
"800 330 OFFCURVE",
"700 280 QCURVE",
"500 200 LINE",
"400 200 OFFCURVE",
"400 300 QCURVE SMOOTH",
"400 450 LINE SMOOTH",
"400 572 OFFCURVE",
"563 629 QCURVE SMOOTH",
"644 657 LINE",
"725 685 LINE SMOOTH",
"1050 798 OFFCURVE",
"1050 1050 QCURVE SMOOTH",
"1050 1200 LINE SMOOTH"
);
},
{
closed = 1;
nodes = (
"950 1650 LINE SMOOTH",
"1050 1650 OFFCURVE",
"1050 1750 QCURVE SMOOTH",
"1050 1850 OFFCURVE",
"950 1850 QCURVE SMOOTH",
"250 1850 LINE SMOOTH",
"150 1850 OFFCURVE",
"150 1750 QCURVE SMOOTH",
"150 1650 OFFCURVE",
"250 1650 QCURVE SMOOTH"
);
}
);
width = 1200;
}
);
note = uni17A8;
unicode = 17A8;
},
{
glyphname = uni17A9;
layers = (
{
layerId = "D08966C8-96EF-481A-BF9E-1465DF9248E1";
paths = (
{
closed = 1;
nodes = (
"1050 1500 OFFCURVE",
"700 1500 QCURVE SMOOTH",
"500 1500 LINE SMOOTH",
"150 1500 OFFCURVE",
"150 1200 QCURVE SMOOTH",
"150 1000 LINE SMOOTH",
"150 900 OFFCURVE",
"275 900 QCURVE SMOOTH",
"400 900 OFFCURVE",
"400 1000 QCURVE SMOOTH",
"400 1200 LINE SMOOTH",
"400 1300 OFFCURVE",
"500 1300 QCURVE SMOOTH",
"700 1300 LINE SMOOTH",
"800 1300 OFFCURVE",
"800 1200 QCURVE SMOOTH",
"800 1050 LINE SMOOTH",
"800 928 OFFCURVE",
"638 872 QCURVE SMOOTH",
"556 843 LINE",
"475 815 LINE SMOOTH",
"150 702 OFFCURVE",
"150 450 QCURVE SMOOTH",
"150 300 LINE SMOOTH",
"150 0 OFFCURVE",
"500 0 QCURVE SMOOTH",
"575 0 OFFCURVE",
"631 24 QCURVE SMOOTH",
"800 96 LINE",
"800 50 LINE SMOOTH",
"800 -50 OFFCURVE",
"1000 -50 QCURVE",
"1000 600 LINE",
"800 600 OFFCURVE",
"800 500 QCURVE SMOOTH",
"800 380 LINE SMOOTH",
"800 330 OFFCURVE",
"700 280 QCURVE",
"500 200 LINE",
"400 200 OFFCURVE",
"400 300 QCURVE SMOOTH",
"400 450 LINE SMOOTH",
"400 572 OFFCURVE",
"563 629 QCURVE SMOOTH",
"644 657 LINE",
"725 685 LINE SMOOTH",
"1050 798 OFFCURVE",
"1050 1050 QCURVE SMOOTH",
"1050 1200 LINE SMOOTH"
);
},
{
closed = 1;
nodes = (
"1200 -50 OFFCURVE",
"1200 50 QCURVE SMOOTH",
"1200 500 LINE SMOOTH",
"1200 600 OFFCURVE",
"1075 600 QCURVE",
"1075 -50 LINE"
);
}
);
width = 1200;
}
);
note = uni17A9;
unicode = 17A9;
},
{
glyphname = uni17AA;
layers = (
{
layerId = "D08966C8-96EF-481A-BF9E-1465DF9248E1";
paths = (
{
closed = 1;
nodes = (
"1050 1500 OFFCURVE",
"700 1500 QCURVE SMOOTH",
"500 1500 LINE SMOOTH",
"150 1500 OFFCURVE",
"150 1200 QCURVE SMOOTH",
"150 1000 LINE SMOOTH",
"150 900 OFFCURVE",
"275 900 QCURVE SMOOTH",
"400 900 OFFCURVE",
"400 1000 QCURVE SMOOTH",
"400 1200 LINE SMOOTH",
"400 1300 OFFCURVE",
"500 1300 QCURVE SMOOTH",
"700 1300 LINE SMOOTH",
"800 1300 OFFCURVE",
"800 1200 QCURVE SMOOTH",
"800 1050 LINE SMOOTH",
"800 928 OFFCURVE",
"638 872 QCURVE SMOOTH",
"556 843 LINE",
"475 815 LINE SMOOTH",
"150 702 OFFCURVE",
"150 450 QCURVE SMOOTH",
"150 300 LINE SMOOTH",
"150 0 OFFCURVE",
"500 0 QCURVE SMOOTH",
"575 0 OFFCURVE",
"631 24 QCURVE SMOOTH",
"800 96 LINE",
"800 50 LINE SMOOTH",
"800 -50 OFFCURVE",
"925 -50 QCURVE SMOOTH",
"1050 -50 OFFCURVE",
"1050 50 QCURVE SMOOTH",
"1050 500 LINE SMOOTH",
"1050 600 OFFCURVE",
"925 600 QCURVE SMOOTH",
"800 600 OFFCURVE",
"800 500 QCURVE SMOOTH",
"800 380 LINE SMOOTH",
"800 330 OFFCURVE",
"700 280 QCURVE",
"500 200 LINE",
"400 200 OFFCURVE",
"400 300 QCURVE SMOOTH",
"400 450 LINE SMOOTH",
"400 572 OFFCURVE",
"563 629 QCURVE SMOOTH",
"644 657 LINE",
"725 685 LINE SMOOTH",
"1050 798 OFFCURVE",
"1050 1050 QCURVE SMOOTH",
"1050 1200 LINE SMOOTH"
);
},
{
closed = 1;
nodes = (
"1050 1650 OFFCURVE",
"1050 1750 QCURVE SMOOTH",
"1050 1875 LINE SMOOTH",
"1050 1975 OFFCURVE",
"925 1975 QCURVE SMOOTH",
"800 1975 OFFCURVE",
"800 1875 QCURVE SMOOTH",
"800 1850 LINE",
"250 1850 LINE SMOOTH",
"150 1850 OFFCURVE",
"150 1750 QCURVE SMOOTH",
"150 1650 OFFCURVE",
"250 1650 QCURVE SMOOTH",
"950 1650 LINE SMOOTH"
);
}
);
width = 1200;
}
);
note = uni17AA;
unicode = 17AA;
},
{
glyphname = uni17AB;
layers = (
{
layerId = "D08966C8-96EF-481A-BF9E-1465DF9248E1";
paths = (
{
closed = 1;
nodes = (
"150 -700 OFFCURVE",
"250 -700 QCURVE SMOOTH",
"450 -700 LINE SMOOTH",
"1050 -700 OFFCURVE",
"1050 -350 QCURVE SMOOTH",
"1050 -100 OFFCURVE",
"900 -100 QCURVE SMOOTH",
"700 -100 LINE SMOOTH",
"600 -100 OFFCURVE",
"600 -200 QCURVE SMOOTH",
"600 -300 OFFCURVE",
"700 -300 QCURVE SMOOTH",
"800 -300 OFFCURVE",
"800 -350 QCURVE SMOOTH",
"800 -500 OFFCURVE",
"450 -500 QCURVE SMOOTH",
"250 -500 LINE SMOOTH",
"150 -500 OFFCURVE",
"150 -600 QCURVE SMOOTH"
);
},
{
closed = 1;
nodes = (
"150 0 OFFCURVE",
"500 0 QCURVE SMOOTH",
"700 0 LINE SMOOTH",
"1050 0 OFFCURVE",
"1050 300 QCURVE SMOOTH",
"1050 1400 LINE SMOOTH",
"1050 1500 OFFCURVE",
"925 1500 QCURVE SMOOTH",
"800 1500 OFFCURVE",
"800 1400 QCURVE SMOOTH",
"800 300 LINE SMOOTH",
"800 200 OFFCURVE",
"700 200 QCURVE SMOOTH",
"500 200 LINE SMOOTH",
"400 200 OFFCURVE",
"400 300 QCURVE SMOOTH",
"400 1400 LINE SMOOTH",
"400 1500 OFFCURVE",
"275 1500 QCURVE SMOOTH",
"150 1500 OFFCURVE",
"150 1400 QCURVE SMOOTH",
"150 300 LINE SMOOTH"
);
}
);
width = 1200;
}
);
note = uni17AB;
unicode = 17AB;
},
{
glyphname = uni17AC;
layers = (
{
layerId = "D08966C8-96EF-481A-BF9E-1465DF9248E1";
paths = (
{
closed = 1;
nodes = (
"1050 -350 QCURVE SMOOTH",
"1050 -100 OFFCURVE",
"900 -100 QCURVE SMOOTH",
"700 -100 LINE SMOOTH",
"600 -100 OFFCURVE",
"600 -200 QCURVE SMOOTH",
"600 -300 OFFCURVE",
"700 -300 QCURVE SMOOTH",
"800 -300 OFFCURVE",
"800 -350 QCURVE SMOOTH",
"800 -500 OFFCURVE",
"450 -500 QCURVE SMOOTH",
"250 -500 LINE SMOOTH",
"150 -500 OFFCURVE",
"150 -600 QCURVE SMOOTH",
"150 -700 OFFCURVE",
"250 -700 QCURVE SMOOTH",
"450 -700 LINE SMOOTH",
"731 -700 OFFCURVE",
"880 -623 QCURVE",
"963 -700 OFFCURVE",
"1100 -700 QCURVE SMOOTH",
"1200 -700 OFFCURVE",
"1200 -600 QCURVE SMOOTH",
"1200 -500 OFFCURVE",
"1100 -500 QCURVE SMOOTH",
"1057 -500 OFFCURVE",
"1026 -475 QCURVE",
"1050 -419 OFFCURVE"
);
},
{
closed = 1;
nodes = (
"150 0 OFFCURVE",
"500 0 QCURVE SMOOTH",
"700 0 LINE SMOOTH",
"1050 0 OFFCURVE",
"1050 300 QCURVE SMOOTH",
"1050 1400 LINE SMOOTH",
"1050 1500 OFFCURVE",
"925 1500 QCURVE SMOOTH",
"800 1500 OFFCURVE",
"800 1400 QCURVE SMOOTH",
"800 300 LINE SMOOTH",
"800 200 OFFCURVE",
"700 200 QCURVE SMOOTH",
"500 200 LINE SMOOTH",
"400 200 OFFCURVE",
"400 300 QCURVE SMOOTH",
"400 1400 LINE SMOOTH",
"400 1500 OFFCURVE",
"275 1500 QCURVE SMOOTH",
"150 1500 OFFCURVE",
"150 1400 QCURVE SMOOTH",
"150 300 LINE SMOOTH"
);
}
);
width = 1200;
}
);
note = uni17AC;
unicode = 17AC;
},
{
glyphname = uni17AD;
layers = (
{
layerId = "D08966C8-96EF-481A-BF9E-1465DF9248E1";
paths = (
{
closed = 1;
nodes = (
"150 -700 OFFCURVE",
"250 -700 QCURVE SMOOTH",
"450 -700 LINE SMOOTH",
"1050 -700 OFFCURVE",
"1050 -350 QCURVE SMOOTH",
"1050 -100 OFFCURVE",
"900 -100 QCURVE SMOOTH",
"700 -100 LINE SMOOTH",
"600 -100 OFFCURVE",
"600 -200 QCURVE SMOOTH",
"600 -300 OFFCURVE",
"700 -300 QCURVE SMOOTH",
"800 -300 OFFCURVE",
"800 -350 QCURVE SMOOTH",
"800 -500 OFFCURVE",
"450 -500 QCURVE SMOOTH",
"250 -500 LINE SMOOTH",
"150 -500 OFFCURVE",
"150 -600 QCURVE SMOOTH"
);
},
{
closed = 1;
nodes = (
"1050 1500 OFFCURVE",
"875 1500 QCURVE SMOOTH",
"800 1500 OFFCURVE",
"700 1402 QCURVE SMOOTH",
"600 1304 LINE",
"500 1402 LINE SMOOTH",
"400 1500 OFFCURVE",
"325 1500 QCURVE SMOOTH",
"150 1500 OFFCURVE",
"150 1400 QCURVE SMOOTH",
"150 100 LINE SMOOTH",
"150 0 OFFCURVE",
"300 0 QCURVE SMOOTH",
"450 0 LINE SMOOTH",
"550 0 OFFCURVE",
"550 100 QCURVE SMOOTH",
"550 200 OFFCURVE",
"450 200 QCURVE SMOOTH",
"400 200 LINE",
"400 1237 LINE",
"600 1061 LINE",
"800 1237 LINE",
"800 100 LINE SMOOTH",
"800 0 OFFCURVE",
"925 0 QCURVE SMOOTH",
"1050 0 OFFCURVE",
"1050 100 QCURVE SMOOTH",
"1050 1400 LINE SMOOTH"
);
}
);
width = 1200;
}
);
note = uni17AD;
unicode = 17AD;
},
{
glyphname = uni17AE;
layers = (
{
layerId = "D08966C8-96EF-481A-BF9E-1465DF9248E1";
paths = (
{
closed = 1;
nodes = (
"1050 -350 QCURVE SMOOTH",
"1050 -100 OFFCURVE",
"900 -100 QCURVE SMOOTH",
"700 -100 LINE SMOOTH",
"600 -100 OFFCURVE",
"600 -200 QCURVE SMOOTH",
"600 -300 OFFCURVE",
"700 -300 QCURVE SMOOTH",
"800 -300 OFFCURVE",
"800 -350 QCURVE SMOOTH",
"800 -500 OFFCURVE",
"450 -500 QCURVE SMOOTH",
"250 -500 LINE SMOOTH",
"150 -500 OFFCURVE",
"150 -600 QCURVE SMOOTH",
"150 -700 OFFCURVE",
"250 -700 QCURVE SMOOTH",
"450 -700 LINE SMOOTH",
"731 -700 OFFCURVE",
"880 -623 QCURVE",
"963 -700 OFFCURVE",
"1100 -700 QCURVE SMOOTH",
"1200 -700 OFFCURVE",
"1200 -600 QCURVE SMOOTH",
"1200 -500 OFFCURVE",
"1100 -500 QCURVE SMOOTH",
"1057 -500 OFFCURVE",
"1026 -475 QCURVE",
"1050 -419 OFFCURVE"
);
},
{
closed = 1;
nodes = (
"1050 1500 OFFCURVE",
"875 1500 QCURVE SMOOTH",
"800 1500 OFFCURVE",
"700 1402 QCURVE SMOOTH",
"600 1304 LINE",
"500 1402 LINE SMOOTH",
"400 1500 OFFCURVE",
"325 1500 QCURVE SMOOTH",
"150 1500 OFFCURVE",
"150 1400 QCURVE SMOOTH",
"150 100 LINE SMOOTH",
"150 0 OFFCURVE",
"300 0 QCURVE SMOOTH",
"450 0 LINE SMOOTH",
"550 0 OFFCURVE",
"550 100 QCURVE SMOOTH",
"550 200 OFFCURVE",
"450 200 QCURVE SMOOTH",
"400 200 LINE",
"400 1237 LINE",
"600 1061 LINE",
"800 1237 LINE",
"800 100 LINE SMOOTH",
"800 0 OFFCURVE",
"925 0 QCURVE SMOOTH",
"1050 0 OFFCURVE",
"1050 100 QCURVE SMOOTH",
"1050 1400 LINE SMOOTH"
);
}
);
width = 1200;
}
);
note = uni17AE;
unicode = 17AE;
},
{
glyphname = uni17AF;
layers = (
{
layerId = "D08966C8-96EF-481A-BF9E-1465DF9248E1";
paths = (
{
closed = 1;
nodes = (
"1050 1500 OFFCURVE",
"700 1500 QCURVE SMOOTH",
"500 1500 LINE SMOOTH",
"467 1500 OFFCURVE",
"400 1490 QCURVE",
"400 1750 LINE SMOOTH",
"400 1850 OFFCURVE",
"275 1850 QCURVE SMOOTH",
"150 1850 OFFCURVE",
"150 1750 QCURVE SMOOTH",
"150 1300 LINE SMOOTH",
"150 1200 OFFCURVE",
"275 1200 QCURVE SMOOTH",
"400 1200 OFFCURVE",
"400 1250 QCURVE SMOOTH",
"400 1300 OFFCURVE",
"500 1300 QCURVE SMOOTH",
"700 1300 LINE SMOOTH",
"800 1300 OFFCURVE",
"800 1200 QCURVE SMOOTH",
"800 263 LINE",
"600 439 LINE",
"400 263 LINE",
"400 900 LINE SMOOTH",
"400 1000 OFFCURVE",
"275 1000 QCURVE SMOOTH",
"150 1000 OFFCURVE",
"150 900 QCURVE SMOOTH",
"150 100 LINE SMOOTH",
"150 0 OFFCURVE",
"325 0 QCURVE SMOOTH",
"400 0 OFFCURVE",
"500 98 QCURVE SMOOTH",
"600 196 LINE",
"700 98 LINE SMOOTH",
"800 0 OFFCURVE",
"875 0 QCURVE SMOOTH",
"1050 0 OFFCURVE",
"1050 100 QCURVE SMOOTH",
"1050 1200 LINE SMOOTH"
);
}
);
width = 1200;
}
);
note = uni17AF;
unicode = 17AF;
},
{
glyphname = uni17B0;
layers = (
{
layerId = "D08966C8-96EF-481A-BF9E-1465DF9248E1";
paths = (
{
closed = 1;
nodes = (
"1050 1500 OFFCURVE",
"875 1500 QCURVE SMOOTH",
"800 1500 OFFCURVE",
"700 1402 QCURVE SMOOTH",
"600 1304 LINE",
"500 1402 LINE SMOOTH",
"400 1500 OFFCURVE",
"325 1500 QCURVE SMOOTH",
"150 1500 OFFCURVE",
"150 1400 QCURVE SMOOTH",
"150 100 LINE SMOOTH",
"150 0 OFFCURVE",
"300 0 QCURVE SMOOTH",
"450 0 LINE SMOOTH",
"550 0 OFFCURVE",
"550 100 QCURVE SMOOTH",
"550 200 OFFCURVE",
"450 200 QCURVE SMOOTH",
"400 200 LINE",
"400 1237 LINE",
"600 1061 LINE",
"800 1237 LINE",
"800 100 LINE SMOOTH",
"800 0 OFFCURVE",
"925 0 QCURVE SMOOTH",
"1050 0 OFFCURVE",
"1050 100 QCURVE SMOOTH",
"1050 1400 LINE SMOOTH"
);
},
{
closed = 1;
nodes = (
"800 -203 QCURVE",
"800 -370 LINE SMOOTH",
"800 -450 OFFCURVE",
"740 -450 QCURVE SMOOTH",
"679 -450 OFFCURVE",
"612 -322 QCURVE",
"699 -274 OFFCURVE"
);
},
{
closed = 1;
nodes = (
"447 -500 QCURVE SMOOTH",
"400 -500 OFFCURVE",
"400 -452 QCURVE SMOOTH",
"400 -404 LINE",
"471 -395 OFFCURVE",
"573 -343 QCURVE",
"513 -500 OFFCURVE"
);
},
{
closed = 1;
nodes = (
"925 -50 QCURVE SMOOTH",
"800 -50 OFFCURVE",
"728 -102 QCURVE SMOOTH",
"513 -260 OFFCURVE",
"241 -290 QCURVE SMOOTH",
"150 -300 OFFCURVE",
"150 -400 QCURVE SMOOTH",
"150 -500 LINE SMOOTH",
"150 -700 OFFCURVE",
"342 -700 QCURVE SMOOTH",
"535 -700 OFFCURVE",
"615 -580 QCURVE",
"690 -650 OFFCURVE",
"825 -650 QCURVE SMOOTH",
"1050 -650 OFFCURVE",
"1050 -400 QCURVE SMOOTH",
"1050 -150 LINE SMOOTH",
"1050 -50 OFFCURVE"
);
}
);
width = 1200;
}
);
note = uni17B0;
unicode = 17B0;
},
{
glyphname = uni17B1;
layers = (
{
layerId = "D08966C8-96EF-481A-BF9E-1465DF9248E1";
paths = (
{
closed = 1;
nodes = (
"1050 1500 OFFCURVE",
"700 1500 QCURVE SMOOTH",
"500 1500 LINE SMOOTH",
"150 1500 OFFCURVE",
"150 1200 QCURVE SMOOTH",
"150 1000 LINE SMOOTH",
"150 900 OFFCURVE",
"275 900 QCURVE SMOOTH",
"400 900 OFFCURVE",
"400 1000 QCURVE SMOOTH",
"400 1200 LINE SMOOTH",
"400 1300 OFFCURVE",
"500 1300 QCURVE SMOOTH",
"700 1300 LINE SMOOTH",
"800 1300 OFFCURVE",
"800 1200 QCURVE SMOOTH",
"800 1050 LINE SMOOTH",
"800 928 OFFCURVE",
"638 872 QCURVE SMOOTH",
"556 843 LINE",
"475 815 LINE SMOOTH",
"150 702 OFFCURVE",
"150 450 QCURVE SMOOTH",
"150 300 LINE SMOOTH",
"150 0 OFFCURVE",
"500 0 QCURVE SMOOTH",
"575 0 OFFCURVE",
"631 24 QCURVE SMOOTH",
"800 96 LINE",
"800 50 LINE SMOOTH",
"800 -50 OFFCURVE",
"925 -50 QCURVE SMOOTH",
"1050 -50 OFFCURVE",
"1050 50 QCURVE SMOOTH",
"1050 500 LINE SMOOTH",
"1050 600 OFFCURVE",
"925 600 QCURVE SMOOTH",
"800 600 OFFCURVE",
"800 500 QCURVE SMOOTH",
"800 380 LINE SMOOTH",
"800 330 OFFCURVE",
"700 280 QCURVE",
"500 200 LINE",
"400 200 OFFCURVE",
"400 300 QCURVE SMOOTH",
"400 450 LINE SMOOTH",
"400 572 OFFCURVE",
"563 629 QCURVE SMOOTH",
"644 657 LINE",
"725 685 LINE SMOOTH",
"1050 798 OFFCURVE",
"1050 1050 QCURVE SMOOTH",
"1050 1200 LINE SMOOTH"
);
},
{
closed = 1;
nodes = (
"150 1855 OFFCURVE",
"150 1755 QCURVE SMOOTH",
"150 1655 OFFCURVE",
"250 1655 QCURVE SMOOTH",
"800 1655 LINE",
"800 1630 LINE SMOOTH",
"800 1530 OFFCURVE",
"925 1530 QCURVE SMOOTH",
"1050 1530 OFFCURVE",
"1050 1630 QCURVE SMOOTH",
"1050 1755 LINE SMOOTH",
"1050 1855 OFFCURVE",
"950 1855 QCURVE SMOOTH",
"250 1855 LINE SMOOTH"
);
}
);
width = 1200;
}
);
note = uni17B1;
unicode = 17B1;
},
{
glyphname = uni17B2;
layers = (
{
layerId = "D08966C8-96EF-481A-BF9E-1465DF9248E1";
paths = (
{
closed = 1;
nodes = (
"800 200 OFFCURVE",
"700 200 QCURVE SMOOTH",
"500 200 LINE SMOOTH",
"400 200 OFFCURVE",
"400 300 QCURVE SMOOTH",
"400 1200 LINE SMOOTH",
"400 1300 OFFCURVE",
"500 1300 QCURVE SMOOTH",
"700 1300 LINE SMOOTH",
"800 1300 OFFCURVE",
"800 1200 QCURVE SMOOTH",
"800 1100 OFFCURVE",
"925 1100 QCURVE SMOOTH",
"1050 1100 OFFCURVE",
"1050 1200 QCURVE SMOOTH",
"1050 1500 OFFCURVE",
"700 1500 QCURVE SMOOTH",
"500 1500 LINE SMOOTH",
"150 1500 OFFCURVE",
"150 1200 QCURVE SMOOTH",
"150 300 LINE SMOOTH",
"150 0 OFFCURVE",
"500 0 QCURVE SMOOTH",
"700 0 LINE SMOOTH",
"1050 0 OFFCURVE",
"1050 300 QCURVE SMOOTH",
"1050 400 LINE SMOOTH",
"1050 530 OFFCURVE",
"900 580 QCURVE",
"1050 617 OFFCURVE",
"1050 780 QCURVE SMOOTH",
"1050 1020 OFFCURVE",
"805 1020 QCURVE SMOOTH",
"700 1020 LINE SMOOTH",
"600 1020 OFFCURVE",
"600 920 QCURVE SMOOTH",
"600 820 OFFCURVE",
"700 820 QCURVE SMOOTH",
"800 820 OFFCURVE",
"800 780 QCURVE SMOOTH",
"800 733 OFFCURVE",
"700 692 QCURVE SMOOTH",
"600 650 OFFCURVE",
"600 575 QCURVE SMOOTH",
"600 500 OFFCURVE",
"700 500 QCURVE SMOOTH",
"800 500 OFFCURVE",
"800 400 QCURVE SMOOTH",
"800 300 LINE SMOOTH"
);
}
);
width = 1200;
}
);
note = uni17B2;
unicode = 17B2;
},
{
glyphname = uni17B3;
layers = (
{
layerId = "D08966C8-96EF-481A-BF9E-1465DF9248E1";
paths = (
{
closed = 1;
nodes = (
"1050 1500 OFFCURVE",
"700 1500 QCURVE SMOOTH",
"500 1500 LINE SMOOTH",
"150 1500 OFFCURVE",
"150 1200 QCURVE SMOOTH",
"150 1000 LINE SMOOTH",
"150 900 OFFCURVE",
"275 900 QCURVE SMOOTH",
"400 900 OFFCURVE",
"400 1000 QCURVE SMOOTH",
"400 1200 LINE SMOOTH",
"400 1300 OFFCURVE",
"500 1300 QCURVE SMOOTH",
"700 1300 LINE SMOOTH",
"800 1300 OFFCURVE",
"800 1200 QCURVE SMOOTH",
"800 1050 LINE SMOOTH",
"800 928 OFFCURVE",
"638 872 QCURVE SMOOTH",
"556 843 LINE",
"475 815 LINE SMOOTH",
"150 702 OFFCURVE",
"150 450 QCURVE SMOOTH",
"150 300 LINE SMOOTH",
"150 0 OFFCURVE",
"500 0 QCURVE SMOOTH",
"575 0 OFFCURVE",
"631 24 QCURVE SMOOTH",
"800 96 LINE",
"800 50 LINE SMOOTH",
"800 -50 OFFCURVE",
"925 -50 QCURVE SMOOTH",
"1050 -50 OFFCURVE",
"1050 50 QCURVE SMOOTH",
"1050 500 LINE SMOOTH",
"1050 600 OFFCURVE",
"925 600 QCURVE SMOOTH",
"800 600 OFFCURVE",
"800 500 QCURVE SMOOTH",
"800 380 LINE SMOOTH",
"800 330 OFFCURVE",
"700 280 QCURVE",
"500 200 LINE",
"400 200 OFFCURVE",
"400 300 QCURVE SMOOTH",
"400 450 LINE SMOOTH",
"400 572 OFFCURVE",
"563 629 QCURVE SMOOTH",
"644 657 LINE",
"725 685 LINE SMOOTH",
"1050 798 OFFCURVE",
"1050 1050 QCURVE SMOOTH",
"1050 1200 LINE SMOOTH"
);
},
{
closed = 1;
nodes = (
"1050 1655 OFFCURVE",
"1050 1755 QCURVE SMOOTH",
"1050 1880 LINE SMOOTH",
"1050 1980 OFFCURVE",
"925 1980 QCURVE SMOOTH",
"800 1980 OFFCURVE",
"800 1880 QCURVE SMOOTH",
"800 1855 LINE",
"250 1855 LINE SMOOTH",
"150 1855 OFFCURVE",
"150 1755 QCURVE SMOOTH",
"150 1630 LINE SMOOTH",
"150 1530 OFFCURVE",
"275 1530 QCURVE SMOOTH",
"400 1530 OFFCURVE",
"400 1630 QCURVE SMOOTH",
"400 1655 LINE",
"950 1655 LINE SMOOTH"
);
}
);
width = 1200;
}
);
note = uni17B3;
unicode = 17B3;
},
{
glyphname = uni17B6;
layers = (
{
layerId = "D08966C8-96EF-481A-BF9E-1465DF9248E1";
paths = (
{
closed = 1;
nodes = (
"400 0 OFFCURVE",
"400 100 QCURVE SMOOTH",
"400 1200 LINE SMOOTH",
"400 1500 OFFCURVE",
"40 1500 QCURVE SMOOTH",
"0 1500 LINE SMOOTH",
"-100 1500 OFFCURVE",
"-100 1400 QCURVE SMOOTH",
"-100 1300 OFFCURVE",
"0 1300 QCURVE SMOOTH",
"40 1300 LINE SMOOTH",
"150 1300 OFFCURVE",
"150 1200 QCURVE SMOOTH",
"150 100 LINE SMOOTH",
"150 0 OFFCURVE",
"275 0 QCURVE SMOOTH"
);
}
);
width = 550;
}
);
note = uni17B6;
unicode = 17B6;
},
{
glyphname = uni17B7;
layers = (
{
layerId = "D08966C8-96EF-481A-BF9E-1465DF9248E1";
paths = (
{
closed = 1;
nodes = (
"-250 1700 LINE SMOOTH",
"-150 1700 OFFCURVE",
"-150 1750 QCURVE SMOOTH",
"-150 1800 OFFCURVE",
"-220 1838 QCURVE SMOOTH",
"-290 1875 LINE SMOOTH",
"-430 1950 OFFCURVE",
"-550 1950 QCURVE SMOOTH",
"-950 1950 LINE SMOOTH",
"-1050 1950 OFFCURVE",
"-1050 1850 QCURVE SMOOTH",
"-1050 1800 LINE SMOOTH",
"-1050 1700 OFFCURVE",
"-950 1700 QCURVE SMOOTH"
);
}
);
width = 0;
}
);
note = uni17B7;
unicode = 17B7;
},
